<?xml version="1.0" standalone="no"?>
<!DOCTYPE svg PUBLIC "-//W3C//DTD SVG 20010904//EN"
 "http://www.w3.org/TR/2001/REC-SVG-20010904/DTD/svg10.dtd">
<svg version="1.0" xmlns="http://www.w3.org/2000/svg"
 width="1710.000000pt" height="760.000000pt" viewBox="0 0 1710.000000 760.000000"
 preserveAspectRatio="xMidYMid meet">

<g transform="translate(0.000000,760.000000) scale(0.100000,-0.100000)"
fill="#000000" stroke="none">
<path d="M13673 6063 c-13 -5 63 -123 78 -123 4 0 14 -12 22 -27 56 -103 77
-148 77 -163 0 -10 11 -51 24 -91 28 -86 70 -341 86 -514 13 -148 27 -223 47
-254 8 -13 11 -21 5 -17 -6 4 -8 -2 -5 -14 3 -11 9 -23 14 -26 5 -3 6 3 2 12
-5 13 -2 16 9 12 9 -4 21 -1 27 5 18 18 31 -10 31 -65 0 -28 9 -66 22 -92 l21
-45 55 82 c30 45 57 89 59 97 3 8 16 38 28 65 83 184 121 300 110 335 -4 11
-2 20 3 20 5 0 14 39 21 88 7 48 16 101 22 118 17 57 9 104 -20 104 -33 1 -52
46 -56 139 -5 103 -14 132 -48 154 -14 9 -28 26 -32 37 -4 12 -15 20 -29 20
-13 0 -37 7 -54 15 -17 9 -53 18 -81 22 -28 3 -56 12 -62 19 -6 8 -28 14 -49
14 -22 0 -40 6 -43 13 -3 7 -24 19 -48 26 -24 7 -55 17 -69 21 -29 10 -149 19
-167 13z m441 -127 c-6 -15 28 -121 57 -178 11 -22 17 -48 14 -58 -3 -10 0
-22 6 -26 9 -5 7 -9 -7 -14 -21 -8 -43 14 -44 43 0 10 -7 20 -15 23 -8 3 -17
15 -21 27 -4 12 -22 53 -40 91 l-33 71 24 3 c13 2 29 10 35 18 16 18 31 18 24
0z m86 -324 c26 -24 54 -92 42 -104 -5 -5 -18 14 -32 47 -13 30 -27 55 -32 55
-4 0 -8 5 -8 10 0 15 8 12 30 -8z m48 -147 c-3 -3 -9 2 -12 12 -6 14 -5 15 5
6 7 -7 10 -15 7 -18z"/>
<path d="M11788 5995 c-31 -17 -93 -128 -110 -195 -6 -25 -17 -56 -24 -70 -7
-14 -18 -55 -24 -90 -6 -35 -20 -80 -30 -99 -10 -20 -20 -67 -23 -104 -3 -38
-11 -74 -17 -80 -10 -10 -11 4 -6 63 4 41 11 91 15 110 5 19 12 70 15 113 3
43 8 83 12 88 3 6 1 21 -6 34 -12 23 -11 37 15 122 7 23 20 20 -175 38 -39 4
-62 1 -80 -9 -14 -8 -45 -25 -70 -38 -25 -13 -47 -25 -50 -28 -3 -3 -23 -11
-45 -19 -22 -7 -60 -25 -85 -40 -25 -15 -60 -33 -77 -40 -18 -7 -33 -17 -33
-22 0 -5 -6 -9 -13 -9 -22 0 -44 -32 -52 -75 -6 -35 -8 -38 -20 -22 -13 18
-70 24 -80 7 -3 -5 -1 -19 5 -30 12 -22 49 -27 68 -8 9 9 12 1 12 -36 0 -54
-15 -90 -35 -82 -44 17 -23 -171 34 -309 5 -11 25 -64 46 -118 78 -205 181
-376 306 -507 76 -79 105 -119 142 -191 39 -77 89 -62 142 43 34 68 34 69 49
45 19 -28 56 -133 56 -158 0 -23 67 -189 84 -209 8 -8 17 -26 21 -39 6 -18 9
-20 16 -10 6 10 9 4 9 -18 0 -25 -3 -30 -18 -26 -13 3 -21 -5 -30 -31 -16 -43
-23 -45 -39 -9 -10 20 -10 35 -2 63 9 31 8 42 -6 64 -10 14 -21 26 -25 26 -13
0 -21 -33 -10 -40 12 -8 -17 -80 -32 -80 -4 0 -8 -9 -8 -19 0 -11 -5 -23 -11
-26 -5 -4 -14 -18 -19 -31 -5 -13 -16 -24 -24 -24 -7 0 -16 -7 -20 -15 -3 -8
-15 -15 -26 -15 -11 0 -20 7 -20 15 0 28 -18 15 -39 -28 -12 -24 -21 -49 -21
-55 0 -7 -11 -17 -25 -22 -16 -6 -25 -17 -25 -30 0 -12 4 -19 9 -15 5 3 13 0
17 -6 3 -6 -6 -22 -22 -35 -19 -15 -25 -26 -18 -31 13 -10 -10 -73 -27 -73 -8
0 -7 6 2 16 12 14 11 16 -5 13 -23 -5 -44 -66 -40 -114 2 -28 -2 -38 -21 -51
-13 -8 -23 -23 -23 -32 2 -21 -38 -108 -53 -117 -6 -4 -8 -13 -5 -20 3 -8 -3
-16 -12 -19 -10 -3 -26 -19 -35 -36 -10 -16 -25 -30 -33 -30 -8 0 -18 -10 -23
-22 -5 -13 -18 -32 -28 -43 -10 -11 -22 -28 -26 -37 -3 -10 -14 -18 -23 -18
-10 0 -14 -5 -10 -16 3 -8 -3 -24 -13 -36 -16 -16 -19 -30 -14 -68 5 -41 3
-49 -18 -63 -13 -9 -32 -14 -45 -11 -29 7 -42 -15 -19 -33 18 -13 18 -13 -1
-13 -10 0 -27 -7 -37 -14 -16 -12 -16 -16 -4 -23 10 -5 13 -19 10 -40 -5 -33
-22 -43 -75 -43 -32 0 -37 -15 -8 -23 30 -8 25 -37 -6 -37 -16 0 -24 -5 -21
-12 2 -7 11 -13 20 -13 9 0 17 -5 18 -10 1 -13 -68 -37 -106 -37 -21 1 -25 -2
-15 -8 10 -6 15 -29 17 -72 0 -35 3 -78 6 -95 4 -18 2 -35 -4 -38 -16 -10 -10
-54 11 -75 11 -11 20 -24 20 -29 0 -5 13 -12 29 -16 34 -7 81 -47 81 -69 0 -8
9 -20 20 -26 11 -6 19 -16 18 -23 -3 -16 49 -70 61 -63 16 10 37 -4 38 -26 1
-12 8 -28 16 -36 12 -11 18 -12 36 -1 22 15 28 10 73 -63 20 -31 4 -40 -18
-11 -12 17 -14 17 -28 -2 -18 -23 -20 -35 -6 -35 6 0 10 -7 10 -15 0 -8 7 -15
15 -15 20 0 64 -46 71 -75 3 -14 10 -25 14 -25 15 0 58 -99 53 -121 -5 -17 -3
-20 8 -13 8 5 19 9 24 10 6 0 15 2 22 2 8 1 10 17 8 47 -4 41 -3 45 18 45 27
0 68 -26 102 -65 33 -40 105 -178 105 -204 0 -11 6 -35 14 -53 8 -18 24 -58
36 -88 26 -66 39 -99 52 -123 5 -10 6 -27 3 -37 -3 -11 -1 -30 6 -42 7 -13 18
-47 25 -76 15 -63 59 -142 79 -142 16 0 21 25 6 34 -4 3 -11 20 -15 37 -4 23
-2 35 11 44 14 11 15 19 4 75 -7 34 -15 69 -18 79 -4 12 -3 13 5 3 5 -8 18
-12 28 -10 16 3 19 -4 22 -49 2 -29 7 -53 13 -53 15 0 149 113 154 131 3 10
21 29 40 44 19 14 35 31 35 38 0 7 8 17 18 24 11 6 29 32 41 58 21 45 51 70
58 48 2 -6 13 -9 23 -6 35 9 21 -13 -45 -72 -36 -32 -65 -63 -65 -68 0 -5 14
-6 30 -2 19 4 30 3 30 -4 0 -6 -8 -11 -18 -11 -10 0 -33 -13 -52 -30 -19 -16
-38 -29 -43 -30 -18 -1 -106 -69 -150 -116 -46 -50 -47 -53 -50 -120 -2 -65
-1 -69 21 -72 14 -2 22 -10 22 -23 0 -10 9 -27 20 -36 11 -10 20 -25 20 -35 0
-10 7 -18 15 -18 8 0 15 5 15 10 0 6 -5 10 -12 10 -6 0 -8 3 -5 6 8 8 67 -15
67 -26 0 -5 -9 -6 -20 -3 -18 5 -20 2 -16 -38 3 -24 5 -48 5 -53 1 -13 80 2
131 26 57 26 79 35 110 44 48 13 58 64 13 64 -8 0 -26 9 -40 20 -14 11 -32 20
-39 20 -8 0 -14 7 -14 15 0 8 4 15 9 15 5 0 16 2 24 6 8 3 28 -7 45 -21 26
-22 35 -24 52 -15 20 11 40 6 40 -10 0 -4 -10 -6 -22 -3 -16 4 -20 2 -13 -5 6
-6 17 -12 25 -14 8 -2 20 -10 26 -18 10 -12 23 -10 95 14 125 41 132 46 114
66 -20 22 -19 30 5 30 11 0 20 -7 20 -15 0 -22 24 -29 52 -14 12 7 45 17 73
23 l50 11 -23 23 c-12 12 -36 25 -52 29 -23 4 -30 11 -30 29 0 34 16 30 72
-21 28 -25 56 -45 64 -45 29 0 94 35 94 51 0 20 -21 38 -50 44 -30 6 -30 6
-41 57 -5 24 -12 52 -15 63 -5 18 -4 18 11 -3 18 -25 35 -21 35 8 0 19 -25 34
-41 24 -17 -10 -9 24 17 69 l25 46 -33 21 c-18 11 -37 20 -42 20 -5 0 -7 3 -4
6 7 6 89 -16 102 -28 6 -4 19 -8 31 -8 11 0 26 -9 33 -20 7 -12 23 -20 41 -20
16 0 31 -6 35 -15 9 -24 39 -19 31 5 -8 26 12 26 45 0 14 -11 32 -20 40 -20
26 -1 50 -26 50 -54 0 -17 5 -26 15 -26 11 0 15 -9 13 -29 -1 -16 4 -36 10
-44 11 -13 10 -16 -5 -20 -10 -3 -3 -4 15 -2 37 4 57 15 28 15 -14 0 -17 5
-12 23 3 14 -1 32 -9 43 -20 27 -19 40 3 22 41 -35 45 -34 38 16 l-7 46 23
-22 c13 -13 32 -36 42 -51 11 -18 23 -26 32 -23 11 4 14 1 9 -13 -6 -21 20
-54 38 -48 13 4 25 40 26 80 1 18 -3 26 -10 22 -6 -4 0 9 13 29 13 20 26 36
30 36 11 0 20 -79 13 -121 l-7 -42 48 7 c27 4 72 6 101 6 28 -1 54 4 58 9 3 6
-8 31 -24 55 -17 25 -31 49 -31 54 0 15 -92 60 -150 73 -30 6 -78 13 -105 13
-48 2 -115 24 -115 37 0 19 32 31 53 22 13 -6 47 -9 77 -7 30 2 66 4 80 4 37
2 50 18 50 59 0 27 3 32 10 21 5 -8 10 -32 10 -52 0 -30 4 -38 18 -38 22 0 41
-20 72 -77 22 -39 31 -48 53 -44 4 0 7 -6 7 -14 0 -22 28 -18 40 6 19 35 23
13 7 -36 -22 -63 -16 -72 46 -73 29 -1 107 -4 174 -8 l121 -6 23 31 c12 17 27
31 32 31 4 0 -1 -12 -12 -26 -11 -15 -19 -30 -16 -34 2 -4 55 -10 117 -13 62
-4 156 -9 208 -13 94 -6 95 -6 70 12 -36 27 -58 55 -70 91 -8 22 -18 33 -31
33 -10 0 -19 7 -19 15 0 8 -6 12 -14 9 -15 -6 -42 49 -31 65 3 6 -1 14 -9 17
-18 7 -22 34 -6 34 5 0 9 3 9 8 -1 4 0 12 1 17 1 6 1 40 0 77 -1 37 2 73 6 80
13 20 15 48 4 48 -5 0 -7 7 -3 16 4 10 -1 17 -16 21 -13 3 -21 13 -21 27 0 27
-17 46 -44 47 -17 1 -18 2 -3 6 26 7 21 19 -17 42 -29 18 -45 44 -46 73 0 5
53 29 72 32 3 1 9 4 12 7 9 9 -215 78 -263 81 -40 3 -47 7 -70 44 -90 144
-140 190 -190 177 -14 -4 -21 -1 -21 9 0 9 -18 35 -40 60 -37 43 -39 47 -28
79 7 19 25 51 40 71 42 56 38 70 -19 66 -47 -3 -48 -3 -46 26 1 16 -8 43 -22
65 -14 19 -25 44 -25 54 0 11 -9 31 -19 46 -37 51 -37 174 -1 201 4 3 15 28
24 57 9 28 24 54 32 57 8 3 14 18 14 34 0 16 7 35 15 42 20 17 19 24 -9 57
-19 22 -22 31 -13 50 6 13 14 23 18 23 4 0 5 9 2 20 -4 14 1 22 18 29 31 12
70 66 63 85 -3 9 -1 16 5 16 17 0 13 38 -6 49 -15 8 -15 11 -4 25 12 14 11 20
-8 39 -11 13 -21 29 -21 35 0 7 -4 12 -9 12 -5 0 -13 9 -16 20 -9 28 -21 25
-36 -9 -7 -16 -17 -27 -21 -25 -4 3 -8 -2 -8 -10 0 -9 -6 -13 -14 -10 -9 3
-15 -5 -19 -25 -13 -62 -35 -21 -28 51 1 9 -3 19 -9 23 -7 4 -5 16 7 36 13 22
15 31 5 41 -7 7 -12 40 -12 79 0 40 -6 78 -15 95 -19 38 -19 58 0 50 10 -4 19
2 25 17 8 21 9 21 20 -10 8 -22 19 -33 31 -33 10 0 19 -5 19 -10 0 -6 -3 -9
-7 -9 -21 3 -29 -3 -30 -22 -2 -18 2 -20 28 -15 30 6 40 -9 20 -29 -6 -6 -13
-44 -16 -85 -4 -41 -9 -78 -11 -82 -3 -5 -1 -8 4 -8 5 0 16 18 25 40 11 29 21
40 36 40 18 0 21 -6 21 -45 0 -25 4 -45 8 -45 5 0 16 18 26 40 10 22 24 40 32
40 18 0 13 24 -16 82 -10 20 -16 39 -12 43 3 3 0 10 -8 15 -11 7 -11 12 -2 23
7 8 10 21 7 29 -3 8 4 23 15 33 12 11 28 35 36 54 17 41 17 41 2 41 -7 0 -27
14 -45 32 -31 30 -33 31 -33 10 0 -12 -6 -22 -14 -22 -23 0 -29 20 -12 39 9
10 16 21 16 25 0 4 12 23 27 42 22 29 24 37 12 45 -8 5 -10 9 -6 9 5 0 2 7 -7
15 -8 9 -13 22 -10 30 7 17 -79 150 -102 159 -8 3 -13 10 -10 15 4 5 0 12 -6
14 -8 3 -6 6 5 6 9 1 17 -3 17 -9 0 -5 7 -10 15 -10 8 0 15 -5 15 -11 0 -6 10
-9 23 -7 16 2 23 11 25 33 2 17 8 35 13 41 5 7 11 42 14 79 3 52 8 71 23 81
16 11 19 24 17 69 -2 33 1 55 8 55 6 0 8 3 5 6 -4 3 0 21 8 40 8 19 11 34 7
34 -4 0 -2 5 5 12 7 7 12 19 12 28 0 9 9 35 20 58 11 22 20 46 20 52 0 5 4 10
10 10 14 0 27 60 22 103 -4 39 -34 70 -58 60 -8 -3 -14 1 -14 10 0 8 -7 18
-16 21 -11 4 -15 2 -11 -7 4 -10 -2 -13 -19 -9 -13 2 -24 8 -24 12 0 4 -29 21
-65 36 -36 16 -65 31 -65 34 0 3 14 14 30 23 36 22 38 32 8 41 -23 6 -23 6 -3
23 17 13 18 15 2 9 -13 -4 -29 5 -54 29 -20 19 -40 35 -46 35 -11 0 -77 68
-77 79 0 11 -43 29 -96 41 -57 13 -114 -1 -149 -36 -25 -25 -27 -25 -50 -10
-22 14 -28 24 -27 46 0 3 3 20 7 39 7 33 6 33 -19 27 -22 -5 -26 -3 -26 14 0
12 -9 39 -20 60 -11 22 -18 50 -15 62 3 14 -2 32 -13 46 l-18 23 -29 -45 c-16
-25 -33 -46 -38 -46 -4 0 -15 17 -23 38 -32 79 -45 100 -69 116 -24 16 -25 16
-25 -6 0 -12 5 -36 11 -53 13 -34 5 -105 -11 -105 -17 0 -51 44 -62 84 -12 38
-12 38 -19 13 -4 -15 -6 -65 -4 -112 3 -63 1 -85 -8 -82 -6 2 -14 14 -18 28
-4 13 -7 20 -8 15 -1 -9 -19 8 -51 48 -8 11 -17 43 -20 72 l-5 54 -24 -35
c-15 -23 -24 -52 -26 -83 -3 -67 -13 -91 -39 -98 -23 -5 -23 -6 -9 -65 9 -41
10 -65 4 -77 -9 -15 -10 -15 -11 -1 0 10 -8 15 -22 14 -12 -1 -44 12 -70 28
-42 26 -54 29 -105 25 -32 -3 -65 -7 -73 -9 -9 -3 -16 4 -18 19 -2 14 2 22 11
22 10 0 13 7 10 20 -6 23 -23 27 -23 5 0 -8 -7 -15 -15 -15 -9 0 -37 -19 -63
-43 -26 -24 -60 -48 -75 -55 -17 -7 -25 -17 -21 -24 4 -7 3 -8 -4 -4 -6 4 -28
-10 -49 -32 -61 -63 -113 -82 -79 -30 9 14 13 28 9 31 -3 4 1 7 11 7 20 0 86
66 86 86 0 8 8 14 19 14 10 0 27 12 36 28 22 34 76 82 93 82 6 0 12 6 12 14 0
7 15 25 34 40 19 14 40 32 48 39 7 7 21 16 31 20 9 4 20 15 24 24 11 28 50 56
143 104 19 9 51 33 69 53 19 20 41 36 48 36 7 0 13 7 13 15 0 22 -25 18 -57
-9 -39 -33 -100 -66 -122 -66 -10 0 -29 -12 -43 -27 -13 -16 -66 -68 -117
-116 -84 -80 -116 -99 -116 -70 0 10 80 105 148 176 20 22 35 42 33 44 -14 15
-117 -71 -171 -143 -8 -11 -15 -14 -15 -7 0 12 17 36 48 68 6 8 12 16 12 20 0
3 11 18 25 33 14 15 25 32 25 39 0 7 4 13 9 13 15 0 20 28 11 61 -7 22 -5 41
4 64 l14 32 -47 21 c-25 12 -73 24 -106 28 -33 4 -86 17 -117 30 -66 27 -92
29 -130 9z m237 -435 c3 -5 1 -10 -4 -10 -6 0 -11 5 -11 10 0 6 2 10 4 10 3 0
8 -4 11 -10z m-5 -114 c0 -21 -21 -31 -30 -15 -5 7 -6 17 -4 21 9 14 34 9 34
-6z m-50 -49 c0 -14 -50 -58 -59 -53 -19 12 -13 35 9 29 14 -4 20 0 20 11 0 9
7 16 15 16 8 0 15 -2 15 -3z m-423 -159 c-3 -8 -6 -5 -6 6 -1 11 2 17 5 13 3
-3 4 -12 1 -19z m1981 -328 c-4 -18 -46 -26 -60 -12 -16 16 -1 29 32 28 21 -1
30 -5 28 -16z m52 -116 c-25 -50 -66 -104 -81 -104 -19 0 -8 21 30 59 21 21
44 56 51 77 8 22 15 33 17 26 3 -6 -5 -33 -17 -58z m85 56 c3 -5 -1 -10 -9
-10 -9 0 -16 5 -16 10 0 6 4 10 9 10 6 0 13 -4 16 -10z m-81 -160 c-21 -35
-57 -45 -122 -35 l-47 7 29 15 c20 11 31 12 39 4 18 -18 52 -12 77 14 32 34
45 32 24 -5z m-862 -62 c10 -18 23 -51 30 -74 12 -40 49 -71 71 -57 5 3 8 0 5
-8 -2 -8 -18 -21 -36 -29 -17 -8 -32 -18 -32 -22 0 -12 36 -28 67 -30 15 -1
31 -6 35 -12 3 -5 14 -10 25 -11 24 -2 93 -37 93 -46 0 -5 19 -17 43 -27 41
-18 43 -21 39 -56 -4 -33 -7 -36 -38 -36 -19 0 -34 5 -34 10 0 6 -9 10 -19 10
-24 0 -90 35 -126 66 -15 13 -32 21 -36 18 -5 -3 -9 1 -9 8 0 10 -28 13 -123
13 -67 0 -128 -4 -134 -8 -8 -5 -13 -4 -13 2 0 5 -10 12 -22 14 -13 2 -9 3 7
2 30 -3 31 -2 27 32 -3 24 -11 38 -28 45 -13 6 -24 15 -24 19 0 4 21 18 47 31
29 14 49 31 51 43 2 11 15 34 28 52 13 17 24 36 24 42 0 6 6 11 14 11 7 0 19
7 26 15 18 21 23 19 42 -17z m873 -128 c3 -5 2 -10 -4 -10 -5 0 -13 5 -16 10
-3 6 -2 10 4 10 5 0 13 -4 16 -10z m-540 -300 c3 -5 3 -15 -1 -21 -6 -11 -23
6 -24 24 0 10 18 9 25 -3z m294 -46 c15 -30 21 -60 19 -88 -4 -40 -4 -41 -15
-14 -7 14 -17 29 -23 33 -6 4 -9 19 -5 33 3 15 1 42 -4 60 -13 45 2 32 28 -24z
m-282 -26 c-2 -12 -9 -24 -15 -26 -15 -5 -15 3 0 28 16 25 19 25 15 -2z m-27
-63 c0 -8 -4 -15 -9 -15 -5 0 -17 -3 -26 -7 -16 -5 -15 -4 1 15 22 26 34 28
34 7z m330 -67 c0 -2 11 -36 25 -76 14 -41 25 -88 25 -105 l0 -32 -16 30 c-9
17 -17 50 -18 74 -2 27 -9 48 -19 56 -18 13 -23 55 -7 55 6 0 10 -1 10 -2z
m150 -217 c0 -24 -27 -35 -44 -18 -11 10 -9 14 13 24 14 6 27 12 29 12 1 1 2
-8 2 -18z m-44 -473 c-1 -14 8 -27 24 -34 13 -7 32 -23 41 -36 17 -21 16 -23
-6 -50 -13 -15 -25 -31 -27 -36 -1 -5 -20 -12 -41 -16 -33 -6 -38 -4 -46 16
-5 15 -5 26 3 30 7 5 5 8 -6 8 -10 0 -18 -4 -18 -10 0 -5 -7 -10 -15 -10 -20
0 -19 37 1 48 9 5 26 7 37 4 15 -4 18 -2 12 9 -15 24 -12 50 7 62 10 7 18 17
18 24 0 7 4 13 8 13 5 0 8 -10 8 -22z m-1326 -138 c0 -5 -5 -12 -11 -16 -12
-7 -31 15 -23 28 6 9 34 -1 34 -12z m1020 -41 c0 -10 5 -21 11 -25 7 -4 7 -10
1 -16 -12 -12 -35 -1 -27 13 4 5 1 9 -4 9 -6 0 -11 -7 -11 -15 0 -8 -5 -15
-11 -15 -5 0 -9 -8 -7 -17 1 -10 -1 -23 -5 -30 -15 -23 15 -25 39 -2 19 18 34
23 62 20 48 -4 52 -9 25 -30 -14 -12 -20 -25 -17 -38 7 -25 -11 -39 -60 -46
-32 -5 -39 -3 -43 13 -7 25 -51 27 -68 4 -9 -13 -20 -15 -51 -9 l-39 7 45 20
c51 21 106 76 91 91 -6 6 -36 1 -81 -12 -92 -28 -194 -38 -205 -21 -10 15 51
69 78 70 9 0 17 4 17 9 0 5 28 11 63 14 34 2 87 14 117 25 58 22 80 17 80 -19z
m168 29 c-3 -7 -11 -13 -18 -13 -7 0 -15 6 -17 13 -3 7 4 12 17 12 13 0 20 -5
18 -12z m-1238 -13 c0 -8 -7 -15 -15 -15 -8 0 -15 7 -15 15 0 8 7 15 15 15 8
0 15 -7 15 -15z m648 -90 c28 -9 25 -41 -3 -38 -66 5 -124 17 -119 24 3 5 16
9 29 9 13 0 27 4 30 10 6 10 19 9 63 -5z m-674 -20 c3 -9 1 -24 -6 -34 -12
-20 -4 -56 11 -47 5 4 17 -2 27 -11 17 -17 17 -18 -3 -21 -14 -2 -28 -19 -42
-52 -24 -55 -29 -141 -17 -257 9 -83 7 -85 -61 -52 -24 12 -50 34 -58 50 -20
38 -20 108 0 115 35 14 -5 94 -43 86 -6 -2 -20 1 -30 7 -15 8 -13 11 13 22 17
7 34 13 40 13 13 1 85 90 119 149 30 50 40 57 50 32z m96 -67 c0 -12 -35 -9
-48 4 -21 21 -13 27 18 15 17 -6 30 -15 30 -19z m-5 -68 c3 -5 -1 -10 -9 -10
-8 0 -18 5 -21 10 -3 6 1 10 9 10 8 0 18 -4 21 -10z m101 -9 c-3 -5 1 -11 9
-14 8 -4 27 -32 44 -64 16 -32 37 -65 47 -73 34 -27 63 -40 79 -34 8 4 15 1
15 -6 0 -9 4 -9 13 -3 27 22 66 21 88 -3 28 -30 49 -31 49 -1 0 21 4 23 43 22
24 -1 49 -5 54 -8 6 -4 18 4 27 18 13 20 25 25 56 25 30 0 40 -4 40 -16 0 -8
5 -12 10 -9 6 3 16 3 22 -1 26 -16 55 -10 126 24 65 31 75 33 88 20 13 -13 9
-20 -31 -59 -25 -24 -45 -48 -45 -52 0 -11 107 4 150 20 34 13 100 18 133 11
38 -9 41 -25 12 -60 -15 -18 -34 -37 -41 -41 -8 -5 -14 -24 -14 -47 0 -34 -19
-70 -38 -70 -4 0 -20 -11 -36 -25 -35 -30 -50 -31 -115 -5 -58 22 -94 26 -173
15 -53 -7 -57 -6 -72 18 -9 14 -14 32 -10 42 6 15 3 16 -27 10 -18 -4 -40 -11
-49 -16 -15 -8 -126 -31 -145 -31 -26 1 -46 10 -66 28 -12 10 -19 13 -14 5 7
-12 -2 -13 -50 -8 -66 7 -81 16 -67 44 11 19 5 73 -8 73 -4 0 -14 -24 -22 -52
l-15 -53 -7 70 c-7 61 -32 170 -64 272 -6 17 -8 34 -4 37 8 9 14 7 8 -3z m838
-97 c17 -7 22 -34 6 -34 -5 0 -14 9 -20 20 -12 22 -10 23 14 14z m-1377 -135
c1 -14 -5 -19 -23 -19 -24 0 -28 7 -18 33 7 21 40 10 41 -14z m1491 -584 c0
-25 -4 -45 -7 -45 -8 0 -41 65 -41 80 0 6 11 10 25 10 22 0 24 -4 23 -45z m99
-42 c5 -12 7 -12 14 -2 6 11 12 10 26 -4 35 -34 66 -57 78 -57 7 0 20 -9 30
-20 10 -11 24 -20 32 -20 7 0 16 -7 19 -15 4 -10 14 -13 28 -9 30 7 72 -11 86
-36 18 -33 1 -39 -22 -7 -12 16 -29 27 -44 27 -31 0 -30 -11 1 -42 14 -14 28
-42 33 -64 9 -44 37 -58 59 -28 7 10 13 13 13 6 0 -6 7 -9 16 -5 20 7 34 -13
34 -49 0 -17 8 -31 20 -38 15 -8 19 -17 14 -34 -4 -16 0 -25 10 -29 9 -4 16
-14 16 -22 0 -9 4 -14 9 -11 15 10 33 -22 26 -45 -7 -19 -12 -21 -58 -16 -31
4 -56 2 -64 -4 -7 -6 -26 -9 -43 -7 -16 3 -30 3 -30 0 0 -7 39 -55 84 -102 86
-92 153 -206 83 -143 -41 37 -46 36 -36 -2 6 -20 8 -42 5 -48 -2 -7 -5 -4 -5
6 -1 10 -7 25 -15 32 -7 8 -16 32 -20 55 -5 34 -20 56 -85 123 -79 81 -79 82
-100 63 -16 -15 -24 -17 -33 -8 -11 11 -10 15 20 74 2 3 -6 9 -17 13 -12 3
-43 24 -71 46 -28 22 -55 37 -60 34 -6 -3 -25 9 -42 28 -18 19 -41 37 -50 40
-10 4 -18 16 -18 27 0 11 -4 20 -9 20 -12 0 -81 144 -81 168 0 11 6 25 14 32
8 6 16 21 18 33 2 14 11 23 26 25 12 2 19 8 16 14 -4 6 -1 14 5 18 18 10 62 0
68 -17z m-1467 -323 c0 -5 -2 -10 -4 -10 -3 0 -8 5 -11 10 -3 6 -1 10 4 10 6
0 11 -4 11 -10z m-265 -30 c7 -12 -2 -12 -30 0 -19 8 -19 9 2 9 12 1 25 -3 28
-9z m385 -11 c0 -6 -4 -7 -10 -4 -5 3 -10 11 -10 16 0 6 5 7 10 4 6 -3 10 -11
10 -16z m-456 -74 c-6 -16 -34 -28 -34 -16 0 22 13 39 25 35 8 -3 11 -12 9
-19z m2326 -79 c0 -15 -18 -31 -26 -23 -7 7 7 37 17 37 5 0 9 -6 9 -14z
m-1095 -51 c14 -25 25 -56 23 -68 -3 -17 -10 -9 -36 40 -35 68 -36 73 -23 73
5 0 21 -20 36 -45z m-1180 7 c-3 -3 -11 0 -18 7 -9 10 -8 11 6 5 10 -3 15 -9
12 -12z m1325 -55 c0 -5 -4 -5 -10 -2 -5 3 -10 14 -10 23 0 15 2 15 10 2 5 -8
10 -19 10 -23z m517 11 c-3 -8 -6 -5 -6 6 -1 11 2 17 5 13 3 -3 4 -12 1 -19z
m-278 -82 c-9 -10 -49 25 -49 42 0 13 6 11 27 -10 15 -15 25 -30 22 -32z
m-579 8 l45 -25 -39 5 c-22 3 -49 15 -60 26 -29 28 -3 26 54 -6z m328 -63 c3
-8 -1 -12 -9 -9 -7 2 -15 10 -17 17 -3 8 1 12 9 9 7 -2 15 -10 17 -17z m-49
-5 c10 -12 8 -13 -8 -9 -12 3 -21 9 -21 14 0 14 16 11 29 -5z m-232 -101 c-29
-26 -57 -33 -57 -15 0 10 54 38 75 39 6 0 -3 -11 -18 -24z m713 11 c0 -11 -19
-15 -25 -6 -3 5 1 10 9 10 9 0 16 -2 16 -4z m-1590 -16 c0 -5 -5 -10 -11 -10
-5 0 -7 5 -4 10 3 6 8 10 11 10 2 0 4 -4 4 -10z m365 -30 c3 -5 1 -10 -4 -10
-6 0 -11 5 -11 10 0 6 2 10 4 10 3 0 8 -4 11 -10z m441 -14 c11 -23 10 -24
-37 -28 -59 -6 -149 2 -149 12 0 10 70 21 95 14 11 -3 29 2 40 10 28 21 38 20
51 -8z m1150 -31 c10 -8 14 -15 8 -15 -5 0 -19 7 -30 15 -10 8 -14 15 -8 15 5
0 19 -7 30 -15z m-2019 -37 c-3 -8 -6 -5 -6 6 -1 11 2 17 5 13 3 -3 4 -12 1
-19z m325 5 c27 -24 22 -36 -7 -17 -14 9 -25 20 -25 25 0 14 11 11 32 -8z
m227 -44 c-33 -24 -38 -14 -8 17 15 16 25 21 28 13 2 -6 -7 -20 -20 -30z m437
-17 c23 -18 44 -53 44 -71 0 -18 -30 -12 -37 7 -4 9 -15 28 -25 41 -31 41 -20
55 18 23z m-577 -88 c9 -8 -7 -10 -67 -6 -34 2 -60 8 -56 13 5 8 113 2 123 -7z
m71 -4 c12 -8 9 -10 -13 -10 -16 0 -26 4 -22 10 8 12 16 12 35 0z m220 -35
c10 -12 10 -15 -3 -15 -23 0 -47 11 -47 21 0 15 37 10 50 -6z m57 -11 c-3 -3
-12 -4 -19 -1 -8 3 -5 6 6 6 11 1 17 -2 13 -5z m-407 -64 c0 -5 -2 -10 -4 -10
-3 0 -8 5 -11 10 -3 6 -1 10 4 10 6 0 11 -4 11 -10z m-50 -139 c0 -5 -7 -12
-16 -15 -14 -5 -15 -4 -4 9 14 17 20 19 20 6z"/>
<path d="M13250 1789 c0 -5 5 -7 10 -4 6 3 10 8 10 11 0 2 -4 4 -10 4 -5 0
-10 -5 -10 -11z"/>
<path d="M13310 1765 c0 -8 5 -15 10 -15 6 0 10 7 10 15 0 8 -4 15 -10 15 -5
0 -10 -7 -10 -15z"/>
<path d="M13616 1702 c-3 -6 -1 -14 5 -17 15 -10 25 3 12 16 -7 7 -13 7 -17 1z"/>
<path d="M13680 1701 c0 -6 5 -13 10 -16 6 -3 10 1 10 9 0 9 -4 16 -10 16 -5
0 -10 -4 -10 -9z"/>
<path d="M13399 5976 c-2 -2 -38 -6 -79 -9 -41 -3 -87 -10 -103 -16 -27 -11
-53 -53 -36 -59 5 -2 9 -9 9 -16 0 -29 38 -87 60 -92 30 -6 100 -64 100 -82 0
-6 33 -38 74 -71 40 -33 94 -83 118 -110 112 -125 248 -417 248 -533 0 -65 14
-77 25 -22 9 50 19 34 44 -66 11 -47 31 -117 44 -156 14 -39 28 -95 32 -125
14 -102 78 -229 116 -229 23 0 23 -3 -1 48 -11 22 -20 50 -20 60 0 10 -3 22
-7 26 -5 4 -9 22 -9 39 -1 28 -27 114 -54 182 -19 48 -29 118 -34 235 -6 148
-31 365 -50 435 -13 48 -26 108 -31 150 -2 11 -14 48 -28 81 -14 33 -31 83
-38 110 -15 62 -47 119 -92 162 -28 28 -48 36 -113 47 -77 14 -166 19 -175 11z"/>
<path d="M11585 5950 c-4 -6 5 -10 19 -10 14 0 26 5 26 10 0 6 -9 10 -19 10
-11 0 -23 -4 -26 -10z"/>
<path d="M12710 5898 c0 -34 11 -43 50 -44 25 -1 41 -9 60 -33 15 -17 33 -31
42 -31 8 0 52 -18 97 -41 45 -22 89 -39 98 -37 11 2 8 7 -13 18 -16 8 -55 36
-87 62 -32 27 -63 48 -68 48 -6 0 -36 18 -66 40 -66 47 -113 54 -113 18z"/>
<path d="M2050 5105 l0 -124 -36 24 c-97 66 -224 33 -275 -72 -20 -41 -24 -63
-24 -148 0 -85 4 -107 24 -148 34 -70 87 -102 167 -102 55 0 66 4 103 33 l42
33 10 -30 c10 -27 15 -31 50 -31 l39 0 0 345 0 345 -50 0 -50 0 0 -125z m-60
-168 c39 -19 60 -72 60 -152 0 -111 -38 -164 -117 -165 -42 0 -90 41 -103 88
-43 155 48 285 160 229z"/>
<path d="M1215 4928 c-54 -145 -108 -291 -121 -325 l-23 -63 58 0 58 0 33 90
32 91 120 -3 121 -3 31 -87 31 -88 58 0 c51 0 58 2 53 18 -4 9 -57 154 -119
322 l-114 305 -60 3 -60 3 -98 -263z m245 -114 c0 -2 -38 -4 -85 -4 -61 0 -85
3 -85 12 0 7 18 68 41 136 l41 123 44 -132 c24 -72 44 -133 44 -135z"/>
<path d="M4934 5073 c4 -65 9 -166 13 -225 l6 -108 37 0 38 0 5 53 c4 28 9
130 13 225 l7 172 -63 0 -62 0 6 -117z"/>
<path d="M3437 5087 c-14 -44 -23 -56 -52 -70 -26 -13 -35 -23 -35 -42 0 -21
5 -25 30 -25 l30 0 0 -124 c0 -147 12 -222 42 -253 30 -32 89 -46 151 -36 l52
8 3 43 3 43 -35 -7 c-50 -9 -81 1 -94 31 -7 16 -12 79 -12 160 l0 135 70 0 70
0 0 40 0 40 -70 0 -70 0 0 55 0 55 -33 0 c-31 0 -34 -3 -50 -53z"/>
<path d="M2420 5025 c-85 -27 -134 -99 -146 -212 -19 -181 111 -309 278 -273
71 15 113 43 146 98 24 42 27 56 27 142 0 83 -3 102 -26 145 -47 92 -169 136
-279 100z m134 -87 c37 -16 66 -83 66 -151 0 -110 -50 -173 -128 -164 -52 6
-85 34 -101 86 -45 153 46 283 163 229z"/>
<path d="M3025 5026 c-16 -7 -38 -23 -49 -34 -22 -25 -36 -20 -36 14 0 22 -4
24 -45 24 l-45 0 0 -350 0 -350 50 0 50 0 0 130 0 130 38 -24 c89 -59 210 -35
262 52 56 93 50 278 -12 357 -44 56 -146 81 -213 51z m94 -91 c77 -39 83 -228
9 -290 -26 -22 -39 -26 -70 -22 -45 6 -63 19 -85 60 -20 39 -22 161 -4 205 23
56 92 78 150 47z"/>
<path d="M3892 5031 c-97 -25 -156 -115 -157 -241 0 -127 48 -209 142 -241 51
-17 157 -17 216 0 47 14 47 14 47 57 0 24 -1 44 -2 44 -2 0 -25 -7 -52 -15
-111 -34 -202 -10 -232 60 -27 67 -31 65 146 65 l160 0 0 60 c0 92 -36 162
-102 196 -34 17 -123 26 -166 15z m109 -87 c27 -14 59 -65 59 -94 0 -6 -41
-10 -109 -10 l-110 0 9 31 c12 40 28 59 65 75 39 17 50 17 86 -2z"/>
<path d="M4250 4990 l0 -40 110 0 c61 0 110 -2 110 -5 0 -2 -54 -80 -120 -172
-95 -132 -120 -175 -120 -200 l0 -33 185 0 185 0 0 40 0 40 -116 0 c-99 0
-115 2 -110 15 3 8 55 84 116 168 92 129 110 160 110 190 l0 37 -175 0 -175 0
0 -40z"/>
<path d="M15200 4860 c0 -5 5 -10 10 -10 6 0 10 5 10 10 0 6 -4 10 -10 10 -5
0 -10 -4 -10 -10z"/>
<path d="M16077 4739 c-11 -12 -15 -28 -12 -40 6 -18 7 -18 46 1 42 22 46 29
27 48 -18 18 -41 15 -61 -9z"/>
<path d="M4941 4646 c-28 -33 -12 -103 26 -112 63 -16 108 36 81 93 -11 23
-21 29 -54 31 -27 2 -45 -2 -53 -12z"/>
<path d="M16134 4635 c-7 -17 1 -45 13 -45 13 0 34 40 28 50 -9 15 -35 12 -41
-5z"/>
<path d="M9945 4538 c-16 -6 -46 -24 -67 -40 -27 -21 -35 -33 -31 -49 3 -12 1
-24 -6 -28 -12 -8 -101 -5 -138 4 -32 8 -28 0 12 -24 28 -16 35 -27 35 -51 0
-16 3 -30 8 -30 4 0 23 18 42 40 25 29 37 36 46 29 20 -16 50 6 57 40 5 24 16
35 53 53 46 21 47 21 60 2 37 -54 72 -66 115 -40 25 15 34 16 67 4 20 -7 40
-17 44 -23 4 -5 8 -6 8 -2 0 5 10 1 22 -7 24 -17 60 -21 72 -8 4 4 22 12 39
19 30 11 30 12 10 18 -12 4 -24 13 -27 21 -7 17 -36 19 -36 2 -1 -7 -13 2 -29
19 -26 31 -35 34 -132 48 -120 17 -182 18 -224 3z"/>
<path d="M13797 4498 c-8 -29 -15 -66 -15 -83 -1 -29 0 -28 15 10 19 50 32
125 22 125 -5 0 -15 -24 -22 -52z"/>
<path d="M11134 4390 c-11 -4 -56 -11 -100 -15 -43 -4 -94 -14 -113 -21 -18
-8 -43 -14 -55 -14 -26 -1 -179 -82 -178 -95 0 -5 22 -17 49 -28 46 -18 93
-52 93 -68 0 -22 -59 -59 -108 -70 -52 -10 -161 -16 -212 -11 -14 2 -37 0 -52
-4 -46 -11 -78 3 -94 41 -8 19 -18 35 -23 35 -9 0 -22 -109 -14 -122 2 -5 17
-8 33 -8 15 0 57 -9 92 -20 88 -28 122 -25 231 16 97 37 131 39 125 7 -4 -21
-108 -77 -193 -105 -33 -11 -88 -35 -122 -54 -34 -19 -70 -34 -82 -34 -24 0
-31 -10 -36 -50 -2 -17 -11 -40 -20 -52 -8 -13 -15 -30 -15 -40 0 -13 -8 -18
-29 -18 -25 0 -31 -6 -41 -35 -6 -19 -19 -42 -28 -51 -15 -15 -14 -18 13 -40
17 -13 30 -33 30 -46 0 -28 30 -36 39 -11 5 11 0 23 -14 33 -34 26 -6 36 98
35 90 -1 92 0 92 23 0 27 27 72 44 72 6 0 23 -14 38 -32 21 -27 29 -31 39 -20
24 23 49 15 49 -17 0 -35 7 -41 53 -45 19 -2 39 -6 46 -10 21 -13 21 -2 0 43
-24 53 -15 69 44 73 40 3 41 4 53 52 7 28 25 71 39 97 14 27 35 74 46 106 11
32 59 130 108 218 49 88 92 171 96 185 4 14 18 38 31 53 32 38 31 57 -3 56
-16 0 -37 -4 -49 -9z"/>
<path d="M9590 4383 c0 -5 5 -15 10 -23 8 -12 10 -11 10 8 0 12 -4 22 -10 22
-5 0 -10 -3 -10 -7z"/>
<path d="M14517 4263 c-12 -12 -7 -31 9 -37 22 -9 33 1 27 24 -5 20 -23 26
-36 13z"/>
<path d="M14586 4241 c-30 -33 -15 -46 47 -46 31 0 57 3 57 7 0 20 -13 36 -27
31 -9 -4 -19 1 -25 10 -12 22 -31 21 -52 -2z"/>
<path d="M15335 4170 c-19 -8 -19 -9 3 -9 12 -1 22 4 22 9 0 6 -1 10 -2 9 -2
0 -12 -4 -23 -9z"/>
<path d="M10056 4031 c-3 -5 1 -12 10 -15 20 -8 29 -1 19 13 -8 13 -22 14 -29
2z"/>
<path d="M1990 3829 c0 -68 3 -90 13 -87 8 3 13 33 15 91 2 73 0 87 -13 87
-12 0 -15 -16 -15 -91z"/>
<path d="M3650 3890 c0 -27 -2 -29 -29 -24 -50 10 -79 -56 -45 -104 11 -17 24
-21 55 -20 l39 1 0 89 c0 52 -4 88 -10 88 -5 0 -10 -13 -10 -30z m-12 -52 c25
-25 8 -78 -25 -78 -22 0 -37 44 -24 69 13 24 31 27 49 9z"/>
<path d="M4431 3907 c-8 -11 -5 -14 19 -14 24 0 27 3 19 14 -6 7 -15 13 -19
13 -4 0 -13 -6 -19 -13z"/>
<path d="M5290 3891 c0 -25 -3 -28 -27 -23 -32 6 -53 -18 -53 -61 0 -50 16
-67 60 -65 l40 1 0 89 c0 52 -4 88 -10 88 -5 0 -10 -13 -10 -29z m-5 -86 c0
-36 -3 -40 -25 -40 -27 0 -36 20 -26 61 5 19 12 25 29 22 18 -3 22 -9 22 -43z"/>
<path d="M6060 3830 c0 -53 4 -90 10 -90 6 0 10 37 10 90 0 53 -4 90 -10 90
-6 0 -10 -37 -10 -90z"/>
<path d="M7540 3892 c0 -26 -3 -28 -28 -24 -35 5 -56 -18 -56 -63 0 -47 19
-65 65 -63 l39 1 0 89 c0 52 -4 88 -10 88 -5 0 -10 -13 -10 -28z m-5 -87 c0
-36 -2 -40 -25 -40 -20 0 -26 6 -28 28 -5 42 5 59 30 55 20 -3 23 -9 23 -43z"/>
<path d="M1080 3900 c0 -5 14 -10 30 -10 l30 0 0 -75 c0 -43 4 -75 10 -75 6 0
10 32 10 75 0 73 1 75 25 75 14 0 25 5 25 10 0 6 -28 10 -65 10 -37 0 -65 -4
-65 -10z"/>
<path d="M6250 3900 c0 -5 5 -10 10 -10 6 0 10 5 10 10 0 6 -4 10 -10 10 -5 0
-10 -4 -10 -10z"/>
<path d="M5080 3886 c0 -8 -6 -17 -12 -20 -10 -5 -10 -7 0 -12 6 -3 12 -23 12
-44 0 -51 8 -70 31 -70 23 0 25 15 4 24 -10 3 -15 19 -15 46 0 29 4 40 15 40
8 0 15 5 15 10 0 6 -7 10 -15 10 -8 0 -15 7 -15 15 0 8 -4 15 -10 15 -5 0 -10
-6 -10 -14z"/>
<path d="M9950 3893 c0 -5 7 -17 15 -27 14 -19 15 -19 15 7 0 17 -5 27 -15 27
-8 0 -15 -3 -15 -7z"/>
<path d="M1230 3803 c0 -35 4 -63 10 -63 6 0 10 23 10 51 0 42 3 52 20 56 30
8 24 22 -10 21 l-30 -1 0 -64z"/>
<path d="M1317 3852 c-36 -40 -10 -112 40 -112 46 0 72 80 37 114 -21 21 -57
20 -77 -2z m61 -14 c30 -30 -2 -93 -36 -71 -21 13 -27 50 -12 69 15 17 32 18
48 2z"/>
<path d="M1440 3816 c0 -63 12 -76 63 -74 l37 1 0 64 c0 76 -18 85 -22 11 -2
-42 -7 -54 -22 -56 -25 -5 -36 14 -36 66 0 23 -4 42 -10 42 -5 0 -10 -24 -10
-54z"/>
<path d="M1583 3808 c12 -34 27 -63 33 -65 5 -2 18 20 28 49 9 29 20 59 23 67
3 8 0 12 -8 9 -7 -2 -19 -24 -27 -48 -16 -48 -16 -47 -42 23 -5 15 -14 27 -19
27 -6 0 0 -28 12 -62z"/>
<path d="M1696 3848 c-34 -48 -6 -111 47 -106 42 4 47 27 5 25 -23 -2 -33 3
-36 16 -3 14 4 17 37 17 45 0 51 11 25 48 -8 12 -26 22 -39 22 -13 0 -31 -10
-39 -22z m62 -15 c2 -8 -6 -13 -22 -13 -25 0 -33 10 -19 24 10 10 36 3 41 -11z"/>
<path d="M1810 3860 c0 -5 14 -10 30 -10 37 0 37 -6 0 -50 -43 -49 -39 -60 20
-60 57 0 68 17 14 22 l-36 3 31 39 c43 54 41 66 -14 66 -25 0 -45 -4 -45 -10z"/>
<path d="M2066 3857 c-22 -16 -26 -78 -7 -101 17 -20 65 -21 81 -1 10 13 7 14
-26 12 -30 -1 -39 2 -42 16 -3 14 4 17 37 17 34 0 41 3 41 19 0 42 -48 64 -84
38z m58 -22 c4 -11 -2 -15 -24 -15 -29 0 -38 9 -23 23 12 12 41 7 47 -8z"/>
<path d="M2250 3850 c-24 -24 -26 -57 -4 -88 19 -27 55 -28 79 -2 16 18 16 20
2 20 -10 0 -17 -4 -17 -10 0 -19 -39 -10 -51 11 -8 16 -8 28 0 45 12 28 28 30
52 8 22 -20 35 -1 13 20 -21 22 -50 20 -74 -4z"/>
<path d="M2377 3852 c-21 -23 -22 -76 -1 -96 36 -37 94 -6 94 51 0 54 -59 83
-93 45z m61 -14 c26 -26 7 -78 -29 -78 -28 0 -40 55 -17 78 7 7 17 12 23 12 6
0 16 -5 23 -12z"/>
<path d="M2500 3804 c0 -77 18 -86 22 -11 3 44 6 52 23 52 17 0 20 -8 23 -52
2 -37 7 -53 17 -53 10 0 15 16 17 53 3 44 6 52 23 52 17 0 20 -8 23 -52 2 -29
7 -53 13 -53 11 0 13 119 2 121 -5 1 -43 3 -85 4 l-78 2 0 -63z"/>
<path d="M2710 3778 c0 -52 4 -88 10 -88 6 0 10 13 10 29 0 25 3 28 27 23 32
-6 53 18 53 61 0 50 -16 67 -60 65 l-40 -1 0 -89z m73 51 c5 -9 7 -28 3 -43
-5 -21 -12 -27 -29 -24 -23 3 -35 43 -23 75 7 18 35 14 49 -8z"/>
<path d="M2850 3855 c-16 -19 -5 -34 12 -17 17 17 45 15 52 -3 4 -10 -1 -15
-15 -15 -34 0 -59 -19 -59 -45 0 -26 15 -32 73 -33 25 0 27 3 27 45 0 24 -5
53 -10 64 -13 23 -62 26 -80 4z m68 -67 c-7 -21 -36 -34 -49 -21 -6 6 -8 16
-5 22 10 15 59 14 54 -1z"/>
<path d="M2980 3851 c-27 -52 -2 -117 43 -109 19 4 27 1 27 -9 0 -20 -29 -28
-51 -15 -11 7 -20 8 -24 2 -11 -18 42 -35 70 -22 24 11 25 16 25 90 l0 79 -40
1 c-30 1 -42 -3 -50 -17z m65 -46 c0 -33 -4 -41 -22 -43 -25 -4 -38 26 -29 64
5 19 12 25 29 22 18 -3 22 -9 22 -43z"/>
<path d="M3110 3803 c0 -76 18 -85 22 -10 3 44 6 52 23 52 17 0 20 -8 23 -52
2 -38 7 -53 18 -53 17 0 20 64 4 104 -8 22 -15 26 -50 24 l-40 -1 0 -64z"/>
<path d="M3255 3856 c-22 -16 -26 -76 -6 -100 16 -19 64 -21 79 -3 52 62 -10
150 -73 103z m66 -27 c16 -31 -4 -71 -34 -67 -39 5 -37 88 2 88 11 0 25 -10
32 -21z"/>
<path d="M3370 3803 c0 -48 3 -63 14 -63 11 0 16 15 18 53 3 44 6 52 23 52 17
0 20 -8 23 -52 2 -29 8 -53 13 -53 6 0 9 26 7 63 l-3 62 -47 1 -48 1 0 -64z"/>
<path d="M3717 3852 c-21 -23 -22 -76 -1 -96 20 -20 58 -21 74 -1 11 13 8 14
-20 9 -22 -5 -35 -3 -41 7 -15 24 -10 29 31 29 35 0 40 3 40 23 0 46 -52 64
-83 29z m57 -17 c4 -11 -2 -15 -24 -15 -22 0 -28 4 -24 15 4 8 14 15 24 15 10
0 20 -7 24 -15z"/>
<path d="M3881 3858 c1 -27 36 -112 46 -115 11 -4 57 116 49 125 -10 10 -26
-11 -32 -43 -9 -51 -20 -51 -34 0 -11 41 -31 63 -29 33z"/>
<path d="M4017 3852 c-21 -23 -22 -76 -1 -96 36 -37 94 -6 94 51 0 54 -59 83
-93 45z m61 -14 c26 -26 7 -78 -29 -78 -28 0 -40 55 -17 78 7 7 17 12 23 12 6
0 16 -5 23 -12z"/>
<path d="M4152 3861 c-20 -12 -11 -55 13 -59 26 -5 46 -22 39 -33 -7 -12 -44
-11 -44 1 0 6 -7 10 -15 10 -13 0 -14 -4 -5 -20 12 -23 59 -27 78 -8 22 22 13
46 -23 59 -19 7 -35 19 -35 26 0 16 32 17 48 1 17 -17 28 -2 12 17 -14 16 -47
20 -68 6z"/>
<path d="M4320 3803 c0 -35 4 -63 10 -63 6 0 10 22 10 49 0 41 4 51 20 56 30
10 24 24 -10 23 l-30 -1 0 -64z"/>
<path d="M4416 3857 c-22 -16 -26 -78 -7 -101 17 -20 65 -21 81 -1 10 13 7 14
-26 12 -30 -1 -39 2 -42 16 -3 14 4 17 37 17 34 0 41 3 41 19 0 42 -48 64 -84
38z m58 -22 c4 -11 -2 -15 -24 -15 -29 0 -38 9 -23 23 12 12 41 7 47 -8z"/>
<path d="M4533 3808 c12 -34 27 -63 33 -65 5 -2 18 20 28 49 9 29 20 59 23 67
3 8 0 12 -8 9 -7 -2 -19 -24 -27 -48 -16 -48 -16 -47 -42 23 -5 15 -14 27 -19
27 -6 0 0 -28 12 -62z"/>
<path d="M4656 3857 c-22 -16 -26 -78 -7 -101 17 -20 65 -21 81 -1 10 13 7 14
-26 12 -30 -1 -39 2 -42 16 -3 14 4 17 37 17 34 0 41 3 41 19 0 42 -48 64 -84
38z m58 -22 c4 -11 -2 -15 -24 -15 -29 0 -38 9 -23 23 12 12 41 7 47 -8z"/>
<path d="M4770 3849 c-14 -25 -1 -44 35 -53 14 -4 25 -13 25 -21 0 -18 -31
-20 -48 -3 -17 17 -28 2 -12 -17 16 -19 64 -19 80 0 17 21 5 44 -30 56 -34 12
-41 39 -10 39 11 0 20 -4 20 -10 0 -5 7 -10 15 -10 18 0 19 12 3 28 -20 20
-66 15 -78 -9z"/>
<path d="M4956 3848 c-34 -48 -6 -111 47 -106 42 4 47 27 5 25 -23 -2 -33 3
-36 16 -3 14 4 17 37 17 45 0 51 11 25 48 -8 12 -26 22 -39 22 -13 0 -31 -10
-39 -22z m62 -15 c2 -8 -6 -13 -22 -13 -25 0 -33 10 -19 24 10 10 36 3 41 -11z"/>
<path d="M5356 3848 c-32 -46 -7 -108 43 -108 41 0 56 24 52 82 -3 46 -69 64
-95 26z m69 -43 c0 -34 -3 -40 -22 -43 -16 -2 -26 4 -34 21 -15 33 4 69 34 65
18 -2 22 -10 22 -43z"/>
<path d="M5480 3803 c0 -48 3 -63 14 -63 11 0 16 15 18 53 3 44 6 52 23 52 17
0 20 -8 23 -52 2 -29 8 -53 13 -53 6 0 9 26 7 63 l-3 62 -47 1 -48 1 0 -64z"/>
<path d="M5610 3803 c0 -48 3 -63 14 -63 11 0 16 15 18 53 3 44 6 52 23 52 17
0 20 -8 23 -52 2 -29 8 -53 13 -53 6 0 9 26 7 63 l-3 62 -47 1 -48 1 0 -64z"/>
<path d="M5756 3848 c-34 -48 -6 -111 47 -106 42 4 47 27 5 25 -23 -2 -33 3
-36 16 -3 14 4 17 37 17 45 0 51 11 25 48 -8 12 -26 22 -39 22 -13 0 -31 -10
-39 -22z m62 -15 c2 -8 -6 -13 -22 -13 -25 0 -33 10 -19 24 10 10 36 3 41 -11z"/>
<path d="M5870 3860 c0 -5 14 -10 30 -10 37 0 37 -6 0 -50 -43 -49 -39 -60 20
-60 57 0 68 17 14 22 l-36 3 31 39 c43 54 41 66 -14 66 -25 0 -45 -4 -45 -10z"/>
<path d="M6122 3808 l3 -63 48 -2 47 -2 0 65 c0 49 -3 64 -14 64 -11 0 -16
-15 -18 -52 -3 -45 -6 -53 -23 -53 -17 0 -20 8 -23 53 -2 28 -8 52 -13 52 -6
0 -9 -26 -7 -62z"/>
<path d="M6250 3805 c0 -37 4 -65 10 -65 6 0 10 28 10 65 0 37 -4 65 -10 65
-6 0 -10 -28 -10 -65z"/>
<path d="M6372 3808 l3 -63 48 -2 47 -2 0 65 c0 49 -3 64 -14 64 -11 0 -16
-15 -18 -52 -3 -45 -6 -53 -23 -53 -17 0 -20 8 -23 53 -2 28 -8 52 -13 52 -6
0 -9 -26 -7 -62z"/>
<path d="M6500 3803 c0 -76 18 -85 22 -10 3 44 6 52 23 52 17 0 20 -8 23 -52
2 -38 7 -53 18 -53 17 0 20 64 4 104 -8 22 -15 26 -50 24 l-40 -1 0 -64z"/>
<path d="M6646 3857 c-22 -16 -26 -78 -7 -101 17 -20 65 -21 81 -1 10 13 7 14
-26 12 -30 -1 -39 2 -42 16 -3 14 4 17 37 17 34 0 41 3 41 19 0 42 -48 64 -84
38z m58 -22 c4 -11 -2 -15 -24 -15 -29 0 -38 9 -23 23 12 12 41 7 47 -8z"/>
<path d="M6832 3861 c-20 -12 -11 -55 13 -59 26 -5 46 -22 39 -33 -7 -12 -44
-11 -44 1 0 6 -7 10 -15 10 -13 0 -14 -4 -5 -20 12 -23 59 -27 78 -8 22 22 13
46 -23 59 -19 7 -35 19 -35 26 0 16 32 17 48 1 17 -17 28 -2 12 17 -14 16 -47
20 -68 6z"/>
<path d="M6956 3857 c-22 -16 -26 -78 -7 -101 17 -20 65 -21 81 -1 10 13 7 14
-26 12 -30 -1 -39 2 -42 16 -3 14 4 17 37 17 34 0 41 3 41 19 0 42 -48 64 -84
38z m58 -22 c4 -11 -2 -15 -24 -15 -29 0 -38 9 -23 23 12 12 41 7 47 -8z"/>
<path d="M7080 3850 c-24 -24 -26 -57 -4 -88 19 -27 55 -28 79 -2 16 18 16 20
2 20 -10 0 -17 -4 -17 -10 0 -19 -39 -10 -51 11 -8 16 -8 28 0 45 12 28 28 30
52 8 22 -20 35 -1 13 20 -21 22 -50 20 -74 -4z"/>
<path d="M7207 3852 c-21 -23 -22 -76 -1 -96 36 -37 94 -6 94 51 0 54 -59 83
-93 45z m61 -14 c26 -26 7 -78 -29 -78 -28 0 -40 55 -17 78 7 7 17 12 23 12 6
0 16 -5 23 -12z"/>
<path d="M7330 3803 c0 -76 18 -85 22 -10 3 44 6 52 23 52 17 0 20 -8 23 -52
2 -38 7 -53 18 -53 17 0 20 64 4 104 -8 22 -15 26 -50 24 l-40 -1 0 -64z"/>
<path d="M7607 3852 c-10 -10 -17 -33 -17 -50 0 -49 37 -74 84 -56 26 10 18
25 -9 18 -25 -6 -55 9 -55 27 0 5 21 9 46 9 42 0 45 1 38 23 -15 50 -56 63
-87 29z m61 -19 c2 -8 -6 -13 -22 -13 -25 0 -33 10 -19 24 10 10 36 3 41 -11z"/>
<path d="M5980 3810 c0 -5 11 -10 24 -10 14 0 28 5 31 10 4 6 -7 10 -24 10
-17 0 -31 -4 -31 -10z"/>
<path d="M10046 3795 c-9 -13 -16 -27 -16 -30 0 -8 59 -1 83 10 26 11 33 -2
14 -23 -23 -26 -21 -45 8 -72 14 -13 25 -34 25 -47 0 -30 8 -29 49 7 18 17 42
30 52 30 12 0 19 7 19 19 0 11 3 27 6 35 5 12 -7 22 -48 40 -30 13 -60 31 -67
40 -9 11 -30 16 -61 16 -40 0 -50 -4 -64 -25z"/>
<path d="M13631 3614 c0 -11 3 -14 6 -6 3 7 2 16 -1 19 -3 4 -6 -2 -5 -13z"/>
<path d="M15232 3610 c0 -14 2 -19 5 -12 2 6 2 18 0 25 -3 6 -5 1 -5 -13z"/>
<path d="M15320 3565 c-18 -22 0 -37 24 -20 10 8 15 18 11 24 -9 15 -20 14
-35 -4z"/>
<path d="M1220 3470 c0 -96 17 -125 22 -37 3 44 6 52 23 52 17 0 20 -8 23 -52
2 -38 7 -53 18 -53 17 0 19 64 4 105 -9 23 -15 27 -40 23 -27 -4 -30 -2 -30
24 0 15 -4 28 -10 28 -6 0 -10 -37 -10 -90z"/>
<path d="M1106 3495 c-20 -21 -21 -79 0 -99 20 -20 58 -21 74 -1 17 21 7 29
-18 14 -33 -20 -54 -5 -50 38 3 43 33 58 55 27 16 -22 31 -9 17 14 -15 23 -58
27 -78 7z"/>
<path d="M1360 3495 c-17 -20 -5 -32 15 -15 15 12 45 8 45 -8 0 -4 -15 -12
-32 -17 -28 -8 -33 -15 -33 -40 0 -29 1 -30 49 -31 l48 -1 -4 55 c-3 31 -11
58 -19 63 -22 14 -55 11 -69 -6z m60 -70 c0 -9 -7 -18 -16 -22 -18 -7 -39 11
-30 26 11 17 46 13 46 -4z"/>
<path d="M1480 3443 c0 -76 18 -85 22 -11 2 42 7 54 22 56 25 5 36 -14 36 -65
0 -24 5 -43 10 -43 15 0 12 106 -2 118 -7 6 -30 10 -50 9 l-38 -1 0 -63z"/>
<path d="M1626 3495 c-20 -21 -21 -79 0 -99 20 -20 58 -21 74 -1 17 21 7 29
-18 14 -33 -20 -54 -5 -50 38 3 43 33 58 55 27 16 -22 31 -9 17 14 -15 23 -58
27 -78 7z"/>
<path d="M1746 3488 c-34 -48 -6 -111 47 -106 42 4 47 27 5 25 -23 -2 -33 3
-36 16 -3 14 4 17 37 17 45 0 51 11 25 48 -8 12 -26 22 -39 22 -13 0 -31 -10
-39 -22z m62 -15 c2 -8 -6 -13 -22 -13 -25 0 -33 10 -19 24 10 10 36 3 41 -11z"/>
<path d="M9730 3437 c-39 -20 -37 -45 5 -63 48 -20 79 -15 83 13 3 23 -29 63
-50 63 -7 0 -24 -6 -38 -13z"/>
<path d="M10002 3427 c-6 -6 -14 -25 -17 -40 -4 -16 -14 -31 -22 -34 -7 -3
-18 -14 -23 -24 -9 -15 -4 -23 31 -44 43 -28 63 -27 35 0 -22 22 -20 44 5 71
18 20 28 22 65 17 25 -3 44 -2 44 4 0 15 -23 33 -41 33 -9 0 -22 7 -29 15 -15
18 -34 19 -48 2z"/>
<path d="M10430 3421 c0 -21 26 -36 36 -20 6 11 -13 39 -27 39 -5 0 -9 -9 -9
-19z"/>
<path d="M10660 3395 c0 -19 5 -25 21 -25 12 0 27 -8 34 -17 11 -15 15 -15 29
-4 34 28 17 47 -56 65 -25 6 -28 4 -28 -19z"/>
<path d="M1866 3402 c-3 -6 -1 -14 5 -17 15 -10 25 3 12 16 -7 7 -13 7 -17 1z"/>
<path d="M10395 3350 c-3 -5 -1 -10 4 -10 6 0 11 5 11 10 0 6 -2 10 -4 10 -3
0 -8 -4 -11 -10z"/>
<path d="M9895 3290 c-3 -5 -2 -10 4 -10 5 0 13 5 16 10 3 6 2 10 -4 10 -5 0
-13 -4 -16 -10z"/>
<path d="M14349 3265 c6 -40 24 -56 34 -31 4 9 -4 28 -17 43 l-24 27 7 -39z"/>
<path d="M10696 3249 c-3 -17 -1 -50 5 -72 6 -22 8 -51 4 -66 l-6 -26 28 28
c22 22 28 36 28 72 0 40 3 45 23 45 32 0 27 27 -5 33 -16 3 -37 8 -49 12 -18
6 -22 2 -28 -26z"/>
<path d="M9550 3220 c-14 -11 -30 -20 -36 -20 -6 0 -17 -7 -24 -15 -10 -12
-10 -15 2 -15 8 0 30 -13 48 -30 18 -16 40 -30 47 -30 20 0 53 38 53 62 0 20
-1 20 -18 5 -23 -21 -36 -21 -52 -2 -10 13 -10 19 4 33 31 35 16 43 -24 12z"/>
<path d="M10080 3200 c20 -13 33 -13 25 0 -3 6 -14 10 -23 10 -15 0 -15 -2 -2
-10z"/>
<path d="M10415 3155 c-18 -8 -47 -11 -72 -8 -38 5 -47 2 -80 -28 -31 -27 -40
-44 -50 -91 -7 -32 -15 -68 -18 -78 -4 -12 -2 -20 4 -20 6 0 11 6 11 14 0 28
38 28 95 0 30 -15 58 -25 61 -21 4 3 2 20 -4 36 -10 29 -9 31 13 31 13 0 29 8
34 18 5 10 21 24 35 32 23 12 26 19 26 72 0 63 -4 66 -55 43z"/>
<path d="M10598 3163 c-19 -5 -25 -47 -8 -58 18 -11 51 15 48 37 -3 23 -13 28
-40 21z"/>
<path d="M14290 3151 c0 -12 5 -21 10 -21 6 0 10 6 10 14 0 8 -4 18 -10 21 -5
3 -10 -3 -10 -14z"/>
<path d="M9455 3131 c-10 -46 1 -68 38 -74 54 -8 79 31 35 54 -13 6 -33 20
-45 31 l-21 20 -7 -31z"/>
<path d="M13868 3118 c-2 -13 -1 -39 0 -59 l4 -36 23 23 c13 13 29 24 35 24
18 0 11 28 -12 50 -28 26 -46 25 -50 -2z"/>
<path d="M14000 3128 c0 -22 17 -41 29 -34 19 12 13 46 -9 46 -11 0 -20 -6
-20 -12z"/>
<path d="M10135 3090 c-4 -7 -18 -9 -31 -6 -22 6 -24 3 -24 -29 0 -34 -20 -49
-35 -25 -11 17 -39 11 -70 -15 -16 -14 -45 -32 -63 -40 -54 -24 -39 -47 42
-67 61 -15 71 -16 97 -3 15 8 34 15 41 15 7 1 27 13 44 28 28 24 32 34 35 87
3 49 1 60 -13 63 -9 2 -19 -2 -23 -8z m-115 -150 c0 -5 -9 -10 -21 -10 -11 0
-17 5 -14 10 3 6 13 10 21 10 8 0 14 -4 14 -10z"/>
<path d="M14382 3056 c13 -43 17 -43 41 -10 22 29 22 30 -20 38 l-32 7 11 -35z"/>
<path d="M15349 3059 c-7 -13 -7 -25 -2 -30 13 -13 58 24 49 39 -11 19 -34 14
-47 -9z"/>
<path d="M9716 3054 c-10 -26 -8 -30 29 -49 45 -25 54 -14 24 30 -26 38 -43
44 -53 19z"/>
<path d="M10506 3055 c-7 -19 4 -58 21 -72 19 -15 7 -36 -15 -29 -10 3 -27 -3
-40 -14 -19 -16 -22 -25 -17 -54 4 -21 17 -41 31 -51 32 -21 37 -19 30 10 -5
20 0 31 20 50 15 14 32 25 39 25 20 0 67 57 63 77 -3 14 -11 17 -36 15 -26 -2
-35 3 -43 22 -13 28 -45 40 -53 21z"/>
<path d="M14122 3059 c2 -7 10 -15 17 -17 8 -3 12 1 9 9 -2 7 -10 15 -17 17
-8 3 -12 -1 -9 -9z"/>
<path d="M14215 2960 c0 -73 10 -84 33 -37 11 22 10 32 -5 66 -10 23 -20 41
-23 41 -3 0 -5 -32 -5 -70z"/>
<path d="M14270 3000 c0 -13 10 -22 33 -28 36 -10 48 -7 41 11 -4 12 -50 37
-66 37 -4 0 -8 -9 -8 -20z"/>
<path d="M15516 2982 c-11 -18 6 -162 19 -162 19 0 38 27 28 42 -4 7 -10 37
-13 67 -5 51 -20 75 -34 53z"/>
<path d="M15592 2949 c2 -6 8 -10 13 -10 5 0 11 4 13 10 2 6 -4 11 -13 11 -9
0 -15 -5 -13 -11z"/>
<path d="M10212 2908 c-5 -7 -13 -28 -17 -45 -5 -25 -3 -33 7 -33 20 0 61 58
54 76 -7 17 -30 18 -44 2z"/>
<path d="M15477 2913 c-10 -17 -19 -84 -13 -99 12 -30 36 4 36 52 0 40 -12 65
-23 47z"/>
<path d="M14130 2886 c0 -17 5 -26 16 -26 10 0 14 7 12 22 -5 32 -28 35 -28 4z"/>
<path d="M15326 2891 c-23 -25 -31 -157 -11 -169 7 -4 16 -33 21 -65 9 -57 10
-59 49 -73 55 -19 97 -21 102 -6 3 6 -2 12 -11 12 -22 0 -31 21 -14 34 11 8
14 21 11 38 -5 25 -9 27 -67 30 -56 3 -61 5 -65 28 -1 14 3 58 9 98 14 81 6
106 -24 73z"/>
<path d="M15390 2879 c0 -11 5 -17 10 -14 6 3 10 13 10 21 0 8 -4 14 -10 14
-5 0 -10 -9 -10 -21z"/>
<path d="M15650 2886 c0 -9 5 -16 10 -16 6 0 10 4 10 9 0 6 -4 13 -10 16 -5 3
-10 -1 -10 -9z"/>
<path d="M14340 2875 c0 -8 5 -15 10 -15 6 0 10 7 10 15 0 8 -4 15 -10 15 -5
0 -10 -7 -10 -15z"/>
<path d="M14472 2870 c1 -14 -2 -35 -6 -47 -4 -14 -3 -23 3 -23 15 0 24 57 12
77 -9 16 -10 15 -9 -7z"/>
<path d="M14670 2864 c0 -8 5 -12 10 -9 6 4 8 11 5 16 -9 14 -15 11 -15 -7z"/>
<path d="M6287 2846 c-48 -18 -74 -41 -98 -88 -17 -33 -19 -61 -19 -233 0
-198 4 -225 39 -252 11 -9 74 -12 212 -13 186 0 198 1 240 23 29 16 52 38 69
68 24 43 25 49 25 247 l0 204 -33 29 -32 29 -183 0 c-127 -1 -193 -5 -220 -14z
m218 -190 c31 -31 40 -67 27 -105 -9 -26 -7 -32 19 -57 16 -15 29 -33 29 -40
0 -27 -23 -25 -54 5 -27 26 -37 30 -64 25 -61 -12 -122 35 -122 96 0 28 26 77
47 89 34 19 92 13 118 -13z"/>
<path d="M6408 2628 c-31 -24 -27 -72 7 -94 23 -15 27 -15 50 0 17 11 25 26
25 46 0 50 -45 76 -82 48z"/>
<path d="M14972 2833 c4 -22 43 -25 43 -3 0 8 -11 16 -23 18 -19 3 -23 0 -20
-15z"/>
<path d="M15230 2836 c0 -9 5 -16 10 -16 6 0 10 4 10 9 0 6 -4 13 -10 16 -5 3
-10 -1 -10 -9z"/>
<path d="M9710 2830 c0 -5 -7 -10 -15 -10 -23 0 -28 -24 -12 -62 13 -31 13
-36 -5 -58 -13 -16 -17 -32 -13 -48 7 -30 -12 -82 -31 -82 -8 0 -14 -7 -14
-16 0 -13 7 -15 34 -11 18 3 38 1 44 -5 8 -8 17 -4 31 13 19 23 20 23 39 6 11
-10 31 -18 44 -16 13 1 31 -1 41 -6 21 -9 61 0 93 22 27 17 31 38 9 47 -8 3
-15 17 -15 32 0 17 -4 24 -12 20 -7 -3 -21 -9 -31 -12 -15 -5 -17 -13 -13 -38
l6 -32 -47 1 c-47 0 -48 1 -58 39 -14 48 -35 60 -35 20 0 -26 0 -27 -20 -9
-24 21 -26 51 -5 59 20 7 19 60 -1 77 -11 9 -14 23 -11 46 3 18 4 33 1 33 -2
0 -4 -4 -4 -10z"/>
<path d="M14231 2809 c-7 -12 -10 -23 -8 -26 3 -3 11 5 17 17 15 28 8 35 -9 9z"/>
<path d="M10428 2778 c-2 -18 -11 -24 -34 -26 -22 -2 -34 -9 -37 -23 -8 -29
-26 -23 -42 15 -21 51 -32 51 -38 1 -7 -49 8 -105 28 -105 17 0 27 -27 14 -36
-6 -3 -21 4 -34 16 -13 12 -28 19 -34 15 -13 -8 -15 -35 -2 -35 5 0 7 -9 4
-20 -6 -21 -28 -27 -38 -11 -7 13 -50 7 -70 -9 -9 -7 -13 -21 -10 -31 4 -12 1
-21 -8 -25 -9 -3 -18 -17 -22 -32 -5 -22 -1 -31 26 -53 28 -23 31 -29 21 -42
-11 -12 -10 -18 3 -29 41 -35 46 -41 37 -50 -16 -16 -56 -5 -60 16 -2 10 -19
32 -38 48 -26 23 -34 38 -34 64 0 27 -4 34 -20 34 -24 0 -26 -13 -5 -30 33
-27 4 -55 -34 -31 -23 15 -51 1 -51 -25 0 -27 10 -30 29 -11 10 10 16 7 32
-12 12 -15 26 -22 38 -18 16 4 21 -3 29 -32 5 -22 14 -35 22 -33 8 2 23 -1 34
-6 12 -6 29 -13 39 -16 11 -3 17 -16 17 -35 0 -16 3 -38 7 -48 7 -17 6 -17
-20 0 -14 9 -29 17 -32 17 -4 0 -3 -26 0 -57 7 -58 27 -93 51 -93 7 0 15 -18
19 -40 6 -35 21 -59 29 -49 8 11 -13 152 -24 159 -19 12 -15 99 6 115 12 8 18
31 21 78 4 62 3 67 -16 67 -14 0 -21 6 -21 20 0 17 3 19 19 10 28 -14 31 -13
31 15 0 21 -5 25 -29 25 -17 0 -32 4 -36 9 -7 13 40 48 76 56 29 7 59 47 59
79 0 8 11 28 26 43 63 69 114 150 107 169 -8 22 -31 16 -35 -8z"/>
<path d="M14647 2794 c-11 -11 -8 -44 3 -44 15 0 24 30 13 41 -5 5 -12 6 -16
3z"/>
<path d="M15555 2776 c-21 -32 -13 -79 13 -74 12 2 18 15 20 42 4 51 -11 66
-33 32z"/>
<path d="M14215 2759 c-3 -3 6 -12 19 -19 25 -13 50 -6 43 13 -3 11 -56 17
-62 6z"/>
<path d="M14521 2751 c-22 -40 -5 -75 24 -51 19 16 19 44 1 59 -12 10 -17 8
-25 -8z"/>
<path d="M13993 2743 c-23 -15 -32 -63 -13 -63 6 0 10 5 10 10 0 6 7 10 15 10
10 0 15 10 15 30 0 17 -1 30 -2 29 -2 0 -13 -7 -25 -16z"/>
<path d="M15614 2735 c-3 -14 -4 -28 -1 -31 7 -8 38 27 34 39 -7 22 -26 18
-33 -8z"/>
<path d="M15860 2706 c0 -33 17 -42 40 -21 24 21 15 45 -16 45 -19 0 -24 -5
-24 -24z"/>
<path d="M10117 2704 c-12 -12 -8 -55 7 -69 12 -12 15 -12 20 1 3 9 6 21 6 28
0 18 -24 48 -33 40z"/>
<path d="M14693 2703 c-15 -5 -18 -53 -4 -53 14 0 41 41 35 52 -6 9 -12 9 -31
1z"/>
<path d="M9981 2671 c-38 -52 -3 -71 66 -36 l23 12 -34 27 -35 26 -20 -29z"/>
<path d="M13790 2676 c0 -15 7 -26 19 -29 27 -7 32 1 19 29 -14 31 -38 31 -38
0z"/>
<path d="M14354 2686 c-19 -14 -19 -15 0 -22 20 -8 47 5 54 24 5 17 -30 15
-54 -2z"/>
<path d="M14267 2671 c-6 -24 2 -61 13 -61 16 0 21 53 7 67 -12 13 -15 12 -20
-6z"/>
<path d="M15250 2684 c0 -4 5 -24 12 -46 10 -33 15 -39 36 -36 36 4 37 21 3
57 -27 28 -51 40 -51 25z"/>
<path d="M15676 2682 c-2 -4 -1 -14 5 -22 15 -25 10 -32 -18 -28 -23 2 -29 -1
-31 -21 -5 -36 12 -47 37 -22 12 12 32 21 46 21 31 0 32 18 4 54 -21 27 -34
32 -43 18z"/>
<path d="M14884 2663 c-3 -10 -10 -28 -15 -41 -12 -32 -12 -32 17 -32 33 0 64
17 64 35 0 17 -35 55 -50 55 -6 0 -13 -8 -16 -17z"/>
<path d="M13870 2662 c0 -5 7 -16 16 -23 14 -12 16 -11 13 5 -4 20 -29 35 -29
18z"/>
<path d="M1930 2645 c7 -8 16 -15 21 -15 5 0 6 7 3 15 -4 8 -13 15 -21 15 -13
0 -13 -3 -3 -15z"/>
<path d="M1520 2565 l0 -85 50 0 c28 0 50 5 50 10 0 6 -18 10 -40 10 -38 0
-40 2 -40 30 0 28 3 30 35 30 19 0 35 5 35 10 0 6 -16 10 -35 10 -32 0 -35 2
-35 29 0 28 3 30 43 34 40 3 40 4 -10 5 l-53 2 0 -85z"/>
<path d="M15032 2643 c-40 -8 -22 -36 28 -46 25 -5 52 -15 60 -23 12 -12 12
-16 -2 -30 -14 -15 -18 -15 -42 1 -19 13 -30 15 -37 8 -19 -19 -5 -46 29 -55
36 -10 42 -23 12 -31 -14 -4 -20 -14 -22 -36 -1 -17 -2 -38 -2 -47 -1 -11 13
-22 37 -30 40 -14 81 -9 55 7 -23 14 6 33 30 20 11 -6 22 -11 25 -11 2 0 4 37
5 83 1 45 7 95 13 110 15 37 4 46 -19 17 l-19 -24 -46 47 c-44 45 -55 49 -105
40z m118 -189 c0 -2 -7 -4 -15 -4 -8 0 -15 4 -15 10 0 5 7 7 15 4 8 -4 15 -8
15 -10z"/>
<path d="M13770 2630 c0 -5 5 -10 10 -10 6 0 10 5 10 10 0 6 -4 10 -10 10 -5
0 -10 -4 -10 -10z"/>
<path d="M14062 2631 c-8 -5 -12 -17 -10 -27 3 -15 6 -14 21 9 18 27 13 34
-11 18z"/>
<path d="M14179 2615 c-4 -5 -10 -25 -14 -42 -6 -31 -5 -33 19 -33 27 0 33 9
17 26 -5 5 -11 20 -13 34 -2 14 -6 21 -9 15z"/>
<path d="M1662 2598 c-23 -23 -13 -46 23 -58 19 -6 35 -18 35 -26 0 -17 -41
-19 -58 -2 -6 6 -14 9 -17 6 -11 -10 26 -38 49 -38 28 0 50 24 42 45 -3 9 -19
21 -36 26 -16 6 -30 17 -30 25 0 17 32 18 48 2 6 -6 15 -8 19 -4 10 9 -25 36
-47 36 -9 0 -21 -5 -28 -12z"/>
<path d="M1770 2519 c0 -53 4 -89 10 -89 6 0 10 14 10 30 0 27 2 30 25 24 35
-9 55 11 55 55 0 51 -12 64 -59 67 l-41 2 0 -89z m79 49 c12 -33 -2 -63 -30
-63 -19 0 -25 6 -27 28 -2 16 -1 35 2 43 9 22 46 17 55 -8z"/>
<path d="M1920 2590 c-11 -11 -20 -33 -20 -48 0 -51 61 -82 90 -47 11 13 8 14
-20 9 -22 -5 -35 -3 -41 7 -15 24 -10 29 31 29 36 0 40 3 40 25 0 23 -24 45
-49 45 -6 0 -20 -9 -31 -20z m58 -22 c3 -13 -3 -18 -21 -18 -29 0 -37 7 -30
27 8 19 47 12 51 -9z"/>
<path d="M2052 2594 c-15 -10 -22 -25 -22 -49 0 -57 49 -85 85 -49 21 21 13
29 -13 13 -31 -19 -52 -5 -52 36 0 41 21 55 52 36 27 -16 38 -3 14 15 -25 18
-36 18 -64 -2z"/>
<path d="M2184 2602 c-21 -13 -34 -52 -28 -77 8 -31 38 -49 70 -41 32 8 31 25
-1 18 -25 -4 -55 12 -55 29 0 5 21 9 46 9 42 0 45 1 39 23 -12 37 -46 56 -71
39z m49 -26 c7 -19 -1 -26 -30 -26 -22 0 -31 19 -16 33 11 12 41 7 46 -7z"/>
<path d="M15530 2595 c0 -8 5 -15 10 -15 6 0 10 7 10 15 0 8 -4 15 -10 15 -5
0 -10 -7 -10 -15z"/>
<path d="M10077 2533 c-11 -13 -16 -27 -13 -31 10 -9 38 24 34 41 -2 12 -7 9
-21 -10z"/>
<path d="M15650 2539 c0 -18 2 -19 15 -9 8 7 15 16 15 21 0 5 -7 9 -15 9 -9 0
-15 -9 -15 -21z"/>
<path d="M13757 2544 c-13 -13 -7 -24 14 -24 11 0 19 5 17 12 -5 14 -22 21
-31 12z"/>
<path d="M15708 2530 c-10 -11 -24 -20 -32 -20 -23 0 -32 -41 -12 -55 9 -7 16
-18 16 -25 0 -10 3 -10 14 0 19 15 38 73 34 100 l-3 21 -17 -21z"/>
<path d="M14075 2520 c-3 -5 1 -13 10 -16 22 -9 29 1 11 15 -10 8 -16 9 -21 1z"/>
<path d="M14916 2511 c-11 -12 -16 -31 -14 -53 3 -33 4 -33 58 -36 72 -4 86
12 58 68 -17 34 -25 40 -52 40 -20 0 -40 -8 -50 -19z"/>
<path d="M15262 2473 c0 -46 4 -63 20 -80 42 -45 49 -20 19 65 -27 79 -38 83
-39 15z"/>
<path d="M15770 2495 c0 -17 5 -25 13 -22 6 2 12 12 12 22 0 10 -6 20 -12 23
-8 2 -13 -6 -13 -23z"/>
<path d="M9910 2490 c-9 -17 -8 -20 10 -20 13 0 20 7 20 20 0 11 -4 20 -10 20
-5 0 -14 -9 -20 -20z"/>
<path d="M14195 2490 c-8 -14 3 -30 21 -30 16 0 16 2 8 24 -7 18 -20 21 -29 6z"/>
<path d="M13869 2474 c-16 -16 -14 -64 2 -64 8 0 21 6 58 27 6 4 -29 53 -37
53 -4 0 -15 -7 -23 -16z"/>
<path d="M9724 2465 c-10 -24 12 -42 46 -37 17 2 37 -1 45 -8 18 -15 20 -13
30 19 7 22 5 24 -21 18 -18 -3 -37 0 -48 9 -26 18 -45 18 -52 -1z"/>
<path d="M15448 2442 c5 -9 12 -24 15 -32 3 -9 6 -4 6 11 1 15 -6 29 -14 33
-12 4 -13 2 -7 -12z"/>
<path d="M9876 2443 c-3 -3 -6 -15 -6 -25 0 -11 -7 -18 -19 -18 -10 0 -35 -7
-54 -15 -20 -8 -61 -15 -91 -15 -30 0 -66 -4 -80 -10 -28 -10 -35 -30 -12 -30
16 0 29 -27 20 -41 -3 -5 -2 -14 1 -19 10 -16 35 8 35 31 0 20 24 26 35 9 10
-16 45 -12 45 5 0 15 11 19 38 16 8 -1 19 3 27 9 16 13 27 -1 15 -20 -12 -19
5 -47 40 -65 39 -20 43 -19 26 8 -8 12 -14 37 -14 55 1 18 -2 35 -5 38 -4 4 0
16 8 28 8 11 15 28 15 38 0 19 -14 31 -24 21z"/>
<path d="M9570 2431 c-49 -10 -60 -18 -60 -47 0 -17 5 -24 19 -24 11 0 23 5
26 10 3 6 14 10 24 10 20 0 51 30 51 48 0 13 -7 13 -60 3z"/>
<path d="M14110 2410 c0 -5 7 -10 16 -10 8 0 12 5 9 10 -3 6 -10 10 -16 10 -5
0 -9 -4 -9 -10z"/>
<path d="M15530 2390 c0 -13 5 -18 15 -14 8 4 15 12 15 20 0 8 -7 14 -15 14
-8 0 -15 -9 -15 -20z"/>
<path d="M15923 2373 c-18 -7 -16 -43 2 -43 9 0 15 9 15 25 0 14 -1 25 -2 24
-2 0 -9 -3 -15 -6z"/>
<path d="M14504 2357 c-2 -7 -3 -24 -2 -37 2 -19 -2 -26 -19 -28 -27 -4 -28
-10 -8 -36 12 -16 17 -17 30 -6 25 21 47 69 40 90 -7 23 -34 34 -41 17z"/>
<path d="M15370 2360 c0 -5 5 -10 11 -10 5 0 7 5 4 10 -3 6 -8 10 -11 10 -2 0
-4 -4 -4 -10z"/>
<path d="M14040 2320 c0 -32 3 -41 14 -37 8 3 22 0 32 -8 16 -11 16 -17 6 -39
-10 -22 -9 -26 4 -26 10 0 13 -6 10 -18 -5 -13 1 -22 19 -30 21 -10 25 -9 26
6 1 9 0 22 -1 27 -1 6 -2 17 -2 25 1 8 -1 35 -4 59 -5 41 -7 43 -34 39 -23 -4
-30 0 -32 16 -2 12 -11 22 -20 24 -15 3 -18 -4 -18 -38z"/>
<path d="M13825 2331 c-9 -16 3 -31 26 -31 14 0 19 6 17 17 -4 20 -33 29 -43
14z"/>
<path d="M14756 2313 c-6 -14 -9 -15 -16 -4 -4 8 -15 11 -24 8 -25 -10 -19
-27 9 -27 15 0 25 -6 25 -14 0 -7 7 -19 15 -26 12 -10 15 -7 20 13 12 48 -13
91 -29 50z"/>
<path d="M15524 2306 c-3 -14 -2 -35 2 -48 8 -22 8 -22 15 7 10 46 10 65 -1
65 -5 0 -12 -11 -16 -24z"/>
<path d="M15622 2313 c4 -20 18 -26 37 -14 18 12 5 31 -20 31 -14 0 -19 -6
-17 -17z"/>
<path d="M15012 2273 l3 -48 38 1 c47 2 51 5 36 38 -10 21 -57 56 -76 56 -2 0
-3 -21 -1 -47z"/>
<path d="M15695 2307 c-4 -10 -5 -21 -1 -24 10 -10 18 4 13 24 -4 17 -4 17
-12 0z"/>
<path d="M14275 2287 c-14 -21 -15 -30 -5 -41 12 -16 -2 -56 -20 -56 -15 0
-12 -32 7 -95 24 -79 46 -74 37 9 -4 40 -3 66 4 70 6 3 32 -15 59 -42 46 -46
50 -47 86 -39 20 5 37 14 37 19 0 6 -9 8 -20 5 -23 -6 -25 2 -8 38 9 19 9 28
0 37 -7 7 -12 19 -12 28 0 9 -9 25 -19 34 -19 17 -19 17 -14 -3 4 -16 1 -21
-15 -21 -12 0 -24 -4 -27 -10 -3 -5 -16 -10 -29 -10 -19 0 -21 4 -18 33 2 18
-3 41 -11 51 -14 19 -15 19 -32 -7z"/>
<path d="M14430 2300 c0 -5 5 -10 11 -10 5 0 7 5 4 10 -3 6 -8 10 -11 10 -2 0
-4 -4 -4 -10z"/>
<path d="M15145 2290 c3 -5 13 -10 21 -10 8 0 14 5 14 10 0 6 -9 10 -21 10
-11 0 -17 -4 -14 -10z"/>
<path d="M15220 2285 c-10 -12 -10 -18 0 -30 11 -13 16 -12 36 10 13 15 24 28
24 31 0 11 -49 2 -60 -11z"/>
<path d="M9563 2283 c-22 -8 -14 -32 12 -39 32 -8 43 1 29 23 -12 19 -23 24
-41 16z"/>
<path d="M13868 2268 c-43 -23 -47 -33 -19 -48 11 -5 21 -20 23 -32 2 -13 10
-23 18 -23 12 0 15 14 17 63 1 34 1 62 0 61 -1 0 -19 -9 -39 -21z"/>
<path d="M15335 2278 c-4 -10 -4 -26 0 -35 8 -17 8 -17 12 0 3 9 3 25 0 35 -4
16 -4 16 -12 0z"/>
<path d="M9738 2265 c-44 -24 -49 -83 -8 -105 15 -8 16 -13 7 -35 -8 -16 -20
-25 -35 -25 -28 0 -37 -21 -25 -57 11 -33 43 -38 58 -9 14 27 29 16 31 -22 0
-20 -5 -36 -15 -42 -14 -8 -14 -11 4 -24 11 -8 32 -16 48 -16 15 0 27 -4 27
-10 0 -5 -7 -10 -15 -10 -22 0 -18 -19 8 -40 12 -10 19 -21 16 -25 -7 -6 -70
56 -104 100 l-15 20 -15 -20 c-8 -11 -24 -31 -35 -43 -11 -13 -20 -28 -20 -33
0 -5 -7 -9 -16 -9 -14 0 -15 -8 -10 -47 7 -52 84 -300 99 -320 5 -7 25 -13 43
-13 42 0 45 -18 5 -22 l-29 -3 16 -49 c20 -59 37 -69 45 -27 5 23 15 34 43 46
45 18 44 18 44 0 0 -8 -18 -26 -40 -40 -34 -22 -39 -29 -34 -50 3 -14 2 -25
-4 -25 -11 0 7 -59 24 -81 6 -8 16 -27 21 -44 6 -19 17 -31 31 -33 32 -5 54
-46 41 -76 -10 -22 -6 -35 37 -112 27 -48 61 -100 77 -117 15 -16 27 -33 27
-38 0 -16 40 -31 53 -20 8 6 18 6 27 1 26 -16 39 -11 46 18 4 15 18 41 32 57
16 19 23 23 17 10 -16 -40 -18 -85 -3 -85 29 0 133 23 142 31 16 14 46 10 46
-6 0 -9 -9 -15 -22 -15 -31 0 -161 -31 -172 -41 -5 -5 -4 -14 2 -22 7 -8 9
-17 5 -20 -18 -19 97 16 135 41 19 13 22 12 22 -1 0 -8 -13 -17 -30 -20 -16
-4 -30 -11 -30 -17 0 -6 6 -10 14 -8 8 2 15 0 15 -4 2 -22 0 -28 -10 -28 -5 0
-7 4 -4 10 9 15 -53 1 -107 -23 -27 -12 -48 -24 -48 -27 0 -12 39 -29 45 -20
11 18 26 10 20 -10 -5 -14 2 -29 24 -50 29 -30 61 -40 61 -19 0 5 5 7 10 4 6
-4 8 -14 5 -24 -4 -12 4 -22 27 -34 18 -10 48 -28 65 -41 28 -21 99 -43 108
-34 2 2 1 14 -2 28 -4 24 -41 50 -70 50 -7 0 -13 5 -13 10 0 6 9 10 20 10 11
0 20 7 20 15 0 8 4 15 9 15 5 0 7 -8 4 -19 -3 -10 1 -22 7 -26 15 -9 32 14 26
38 -2 9 1 17 6 17 6 0 5 6 -2 15 -10 12 -10 15 4 15 11 0 16 8 15 28 0 15 -3
21 -6 15 -8 -20 -23 -15 -23 8 0 11 -4 18 -9 14 -5 -3 -12 -2 -14 2 -7 11 51
78 59 70 4 -4 1 -13 -5 -21 -10 -12 -8 -19 8 -35 12 -12 29 -21 39 -21 10 0
22 -4 27 -9 6 -5 23 -11 39 -13 24 -2 31 2 38 22 7 23 7 22 4 -5 -3 -16 -8
-38 -12 -49 -6 -16 -3 -18 27 -12 32 6 31 5 -14 -19 -27 -14 -55 -25 -63 -25
-8 0 -14 -5 -14 -11 0 -5 -4 -8 -10 -4 -12 8 -50 -16 -50 -32 0 -7 5 -13 10
-13 6 0 10 -4 10 -9 0 -5 -8 -7 -19 -4 -26 7 -35 -33 -12 -56 16 -16 92 -32
171 -36 14 -1 40 -5 58 -9 30 -7 32 -6 33 21 4 111 10 175 20 221 13 55 8 102
-23 215 -10 39 -17 47 -36 47 -17 0 -26 8 -34 31 -6 17 -24 56 -39 85 -16 30
-29 67 -29 83 0 17 -4 32 -9 35 -5 3 -12 18 -16 33 -4 16 -22 47 -42 71 -19
23 -43 67 -54 97 -34 97 -98 227 -125 254 -26 26 -129 176 -139 203 -3 8 -24
28 -45 44 -30 22 -43 41 -55 80 -11 37 -21 53 -36 57 -16 4 -20 10 -14 24 17
41 18 63 1 63 -21 0 -25 -12 -29 -79 -3 -38 -9 -59 -23 -70 -10 -9 -25 -29
-33 -46 -8 -19 -15 -25 -18 -17 -3 8 7 36 22 64 25 46 26 51 11 66 -15 15 -18
14 -45 -16 -34 -36 -41 -38 -82 -17 -25 13 -28 20 -23 43 6 26 6 26 -9 7 -9
-11 -17 -24 -17 -30 0 -5 -11 -18 -25 -30 -26 -20 -26 -21 -10 -64 15 -45 20
-90 8 -77 -8 8 -31 70 -42 112 -5 18 -12 38 -17 45 -4 7 -8 23 -9 34 -1 11 -2
32 -3 47 -1 15 -11 35 -22 45 -11 11 -21 37 -24 63 -2 25 -7 54 -9 65 -3 11
-6 26 -6 33 -1 6 -10 12 -21 12 -12 0 -20 7 -20 16 0 9 9 18 20 21 11 3 20 12
20 19 0 17 -8 17 -42 -1z m244 -464 c15 -12 35 -18 49 -16 14 3 10 0 -8 -6
-27 -10 -37 -9 -58 5 -24 16 -34 36 -16 36 4 0 19 -9 33 -19z m-14 -191 c28
-19 52 -38 52 -43 0 -10 -71 31 -112 66 -43 35 -9 23 60 -23z m170 -22 c-6
-16 -36 -34 -44 -25 -9 9 15 37 33 37 8 0 13 -5 11 -12z m222 8 c0 -3 -4 -8
-10 -11 -5 -3 -10 -1 -10 4 0 6 5 11 10 11 6 0 10 -2 10 -4z m-46 -72 c-25
-61 -34 -68 -55 -45 -25 27 -24 30 11 43 17 5 35 19 41 30 18 33 20 13 3 -28z
m-204 -24 c0 -5 -16 -10 -35 -10 -28 0 -37 -5 -44 -22 -11 -29 -90 -117 -91
-102 0 6 7 17 15 24 22 19 18 39 -10 46 -37 9 -35 48 3 51 15 1 45 6 67 11 55
13 95 14 95 2z m64 -15 c-7 -17 14 -48 26 -40 4 3 13 -1 19 -9 9 -11 7 -15
-10 -19 -18 -5 -20 -12 -17 -49 2 -37 0 -43 -17 -45 -11 -2 -33 9 -50 22 -29
25 -30 26 -10 40 40 29 45 37 45 75 0 22 4 40 10 40 5 0 7 -7 4 -15z m-248
-122 c-3 -8 1 -27 9 -44 21 -40 11 -37 -14 5 -25 40 -28 68 -5 59 8 -3 13 -12
10 -20z m154 -22 c0 -4 -8 -19 -17 -32 -33 -44 -43 -68 -33 -74 6 -3 10 -19
10 -34 0 -16 7 -34 16 -41 13 -11 16 -10 21 9 9 34 37 22 41 -18 5 -46 -9 -57
-44 -35 -36 23 -53 44 -54 65 0 26 -43 59 -68 52 -15 -3 -21 -11 -18 -20 3 -8
6 -18 6 -23 0 -5 10 -10 22 -12 13 -2 32 -17 43 -35 13 -21 28 -32 43 -33 13
0 20 -4 17 -10 -9 -14 -89 -12 -103 2 -7 7 -12 20 -12 29 0 10 -9 19 -22 21
-29 4 -44 59 -28 98 10 24 18 28 51 28 45 1 69 16 69 42 0 17 15 26 48 29 6 0
12 -3 12 -8z m198 -27 c12 -8 22 -25 22 -38 0 -12 7 -31 15 -42 14 -18 15 -18
27 14 7 17 18 32 25 32 21 0 15 -17 -18 -55 -32 -36 -34 -59 -3 -34 16 13 17
11 10 -16 -10 -42 -25 -55 -32 -27 -4 12 -12 22 -19 22 -8 0 -10 9 -8 25 7 33
-41 116 -62 109 -9 -4 -15 0 -15 10 0 20 29 21 58 0z m-408 -19 c9 -11 10 -19
3 -26 -14 -14 -53 6 -53 26 0 20 34 19 50 0z m605 -114 c-6 -4 -25 -13 -42
-19 -38 -13 -47 3 -10 18 29 12 64 13 52 1z m-305 -86 c6 -8 10 -19 8 -24 -1
-5 -11 2 -21 15 -19 26 -8 34 13 9z m420 7 c0 -9 -93 -140 -130 -182 -15 -17
-20 -19 -16 -7 5 14 1 16 -22 11 -23 -5 -19 0 20 28 25 18 54 46 63 61 18 30
74 97 81 97 2 0 4 -4 4 -8z m-332 -164 c-3 -7 -18 -14 -33 -16 l-28 -2 24 23
c24 23 46 20 37 -5z m-92 -14 c-4 -14 -9 -24 -12 -21 -3 2 -2 17 2 31 3 15 9
25 11 22 3 -3 2 -17 -1 -32z m462 -39 c-8 -8 -48 25 -48 40 0 9 9 6 27 -11 14
-13 24 -26 21 -29z m-259 37 c11 -2 11 -5 1 -17 -15 -18 -20 -18 -55 -5 -46
18 -17 30 54 22z m-227 -54 c-7 -7 -12 -8 -12 -2 0 14 12 26 19 19 2 -3 -1
-11 -7 -17z m528 -9 c0 -6 -4 -7 -10 -4 -5 3 -10 11 -10 16 0 6 5 7 10 4 6 -3
10 -11 10 -16z m64 -18 c6 -10 -45 -31 -75 -31 -29 0 -22 19 9 26 15 3 32 7
37 9 18 6 24 5 29 -4z m-224 -11 c0 -5 23 -10 51 -10 43 0 50 -3 45 -16 -3 -9
-6 -22 -6 -30 0 -18 -39 -18 -46 -1 -4 11 -17 12 -54 6 -28 -4 -54 -10 -59
-14 -5 -3 -12 -1 -15 4 -8 12 8 22 48 32 l31 7 -32 1 c-40 1 -44 18 -5 24 15
2 30 5 35 6 4 0 7 -3 7 -9z m200 -107 c0 -10 -49 -33 -69 -33 -10 0 -4 8 14
20 31 20 55 26 55 13z m-167 -134 c-11 -40 -33 -51 -33 -16 0 24 27 63 37 54
2 -3 0 -20 -4 -38z m314 -4 c-4 -8 -11 -15 -17 -15 -6 0 -6 7 2 20 14 22 24
19 15 -5z m-368 -42 c-23 -32 -59 -64 -59 -54 0 14 50 71 62 71 6 0 5 -7 -3
-17z m346 -10 c-4 -10 -7 -33 -6 -51 2 -39 -11 -36 -32 7 -14 28 -14 30 9 35
13 4 24 11 24 16 0 6 3 10 6 10 3 0 3 -8 -1 -17z m-401 -8 c-4 -8 -12 -15 -20
-15 -8 0 -14 7 -14 15 0 8 9 15 20 15 13 0 18 -5 14 -15z m333 -10 c-4 -8 -2
-17 3 -20 15 -9 12 -25 -5 -25 -8 0 -15 -5 -15 -12 0 -6 -9 -3 -20 7 -11 10
-23 15 -28 11 -7 -7 -8 -11 -11 -37 0 -5 -5 -7 -11 -4 -14 9 -12 45 3 45 6 1
26 12 42 25 34 28 50 32 42 10z m-88 -119 c-3 -3 -11 5 -18 17 -13 21 -12 21
5 5 10 -10 16 -20 13 -22z"/>
<path d="M10571 791 c-10 -6 -10 -10 -1 -16 13 -8 24 -1 19 14 -3 6 -10 7 -18
2z"/>
<path d="M13970 2253 c0 -5 7 -16 15 -27 18 -24 39 -12 25 15 -10 18 -40 27
-40 12z"/>
<path d="M14596 2253 c-11 -11 -6 -23 9 -23 8 0 15 4 15 9 0 13 -16 22 -24 14z"/>
<path d="M9790 2242 c0 -4 16 -23 35 -42 19 -19 35 -41 35 -49 0 -8 7 -22 15
-31 17 -19 10 -79 -10 -86 -10 -4 -10 -14 -2 -42 6 -20 12 -38 13 -40 7 -10
104 70 104 86 0 4 -14 15 -30 24 -17 9 -30 22 -30 28 0 16 83 12 108 -6 21
-14 22 -14 22 5 0 12 3 20 8 20 37 -6 45 22 19 74 -20 39 -40 47 -55 22 -7
-14 -13 -13 -53 4 l-44 20 -3 -24 c-5 -37 -29 -38 -62 -2 -16 18 -30 35 -30
40 0 4 -9 7 -20 7 -11 0 -20 -4 -20 -8z m120 -218 c0 -8 -5 -12 -10 -9 -6 4
-8 11 -5 16 9 14 15 11 15 -7z"/>
<path d="M15581 2234 c0 -11 3 -14 6 -6 3 7 2 16 -1 19 -3 4 -6 -2 -5 -13z"/>
<path d="M15390 2204 c0 -14 4 -23 10 -19 6 3 10 15 10 26 0 10 -4 19 -10 19
-5 0 -10 -12 -10 -26z"/>
<path d="M14545 2209 c-4 -6 -4 -13 -1 -16 8 -8 36 5 36 17 0 13 -27 13 -35
-1z"/>
<path d="M14566 2173 c5 -5 12 -12 16 -18 4 -6 8 -2 8 8 0 9 -7 17 -17 17 -9
0 -12 -3 -7 -7z"/>
<path d="M13949 2146 c-13 -5 -26 -11 -28 -13 -2 -1 24 -33 58 -70 56 -60 67
-68 104 -70 24 -2 50 3 63 12 34 22 71 19 77 -6 5 -18 2 -20 -23 -14 -30 7
-60 -5 -93 -35 -18 -17 -18 -19 -1 -28 13 -7 22 -5 34 11 17 21 17 21 31 -8 9
-19 26 -33 47 -39 42 -12 57 2 54 48 -2 19 1 37 7 41 15 9 14 45 -1 45 -17 1
-86 60 -70 60 13 0 17 32 5 43 -11 12 -33 -14 -33 -39 0 -32 -5 -30 -51 11
-46 41 -57 43 -68 13 -9 -23 -10 -23 -24 23 -7 20 -56 29 -88 15z"/>
<path d="M15883 2133 c-4 -9 1 -29 10 -45 25 -44 22 -58 -14 -58 -37 0 -35
-17 7 -41 40 -23 55 -9 48 45 -12 92 -15 104 -30 110 -8 3 -17 -1 -21 -11z"/>
<path d="M15427 2110 c6 -33 10 -35 28 -20 21 18 19 33 -4 27 -11 -3 -22 0
-24 7 -2 6 -2 0 0 -14z"/>
<path d="M9622 2118 c6 -18 28 -21 28 -4 0 9 -7 16 -16 16 -9 0 -14 -5 -12
-12z"/>
<path d="M14660 2070 c0 -5 5 -10 11 -10 5 0 7 5 4 10 -3 6 -8 10 -11 10 -2 0
-4 -4 -4 -10z"/>
<path d="M14462 2059 c-27 -10 -29 -26 -3 -34 11 -3 30 -20 44 -38 14 -18 39
-40 57 -51 l32 -18 -4 23 c-1 13 -13 28 -25 34 -12 5 -24 20 -27 35 -8 35 -45
60 -74 49z"/>
<path d="M15575 2060 c3 -5 8 -10 11 -10 2 0 4 5 4 10 0 6 -5 10 -11 10 -5 0
-7 -4 -4 -10z"/>
<path d="M10080 2049 c0 -6 -8 -9 -17 -6 -24 5 -70 -19 -83 -43 -10 -18 -7
-19 43 -16 29 1 59 6 65 10 14 9 16 66 2 66 -5 0 -10 -5 -10 -11z"/>
<path d="M14673 2039 c-6 -6 -22 -17 -35 -23 -19 -10 -22 -18 -20 -46 6 -53
42 -86 42 -39 0 18 4 20 25 15 29 -7 34 13 10 38 -10 10 -13 24 -9 41 7 27 4
31 -13 14z"/>
<path d="M15518 2013 c-3 -52 3 -68 32 -98 l30 -31 -31 -11 c-31 -12 -32 -13
-25 -65 8 -63 22 -80 56 -70 32 9 34 39 4 59 -13 8 -24 19 -24 24 0 14 22 11
41 -7 9 -8 27 -16 40 -16 13 -1 32 -8 41 -16 42 -35 62 21 21 62 -14 14 -23
29 -20 33 8 7 47 -25 47 -39 0 -12 58 -68 70 -68 20 0 9 20 -25 46 -28 21 -33
29 -24 40 6 8 18 14 25 14 8 0 14 6 14 13 -1 14 -65 57 -86 57 -8 0 -20 11
-26 25 -13 30 -38 33 -38 5 0 -11 -2 -20 -5 -20 -2 0 -25 20 -51 45 -25 25
-50 45 -55 45 -5 0 -10 -12 -11 -27z m107 -133 c3 -5 -1 -10 -9 -10 -9 0 -16
5 -16 10 0 6 4 10 9 10 6 0 13 -4 16 -10z m-35 -31 c0 -5 -4 -9 -10 -9 -5 0
-10 7 -10 16 0 8 5 12 10 9 6 -3 10 -10 10 -16z"/>
<path d="M15063 1978 c2 -31 6 -43 17 -43 20 -1 81 -25 100 -40 8 -7 27 -15
42 -19 25 -6 27 -10 25 -46 -2 -39 -10 -50 -22 -30 -11 19 -25 10 -25 -15 0
-14 -9 -38 -19 -53 -30 -42 -30 -64 2 -81 26 -15 29 -15 38 2 6 9 17 17 24 17
8 0 15 9 15 19 0 17 4 18 41 10 49 -11 58 -7 51 26 -3 18 0 25 12 25 9 0 22
11 28 25 9 20 8 28 -4 42 -8 10 -18 26 -21 36 -7 18 -37 24 -37 7 0 -5 -7 -10
-15 -10 -8 0 -15 5 -15 10 0 6 -9 10 -20 10 -17 0 -45 20 -106 80 -12 11 -25
20 -29 20 -5 0 -23 11 -41 25 -18 14 -35 25 -37 25 -3 0 -5 -19 -4 -42z m287
-172 c0 -15 -14 -35 -21 -30 -15 9 -10 34 6 34 8 0 15 -2 15 -4z"/>
<path d="M15185 1989 c4 -5 18 -9 32 -9 32 0 23 12 -12 16 -14 1 -23 -2 -20
-7z"/>
<path d="M14313 1941 c-27 -56 -28 -70 -8 -77 8 -4 15 -12 15 -19 0 -6 9 -20
20 -30 18 -17 23 -17 50 -4 l30 14 -40 83 c-22 45 -41 82 -43 82 -1 -1 -12
-22 -24 -49z"/>
<path d="M15416 1975 c4 -8 10 -15 15 -15 4 0 6 7 3 15 -4 8 -10 15 -15 15 -4
0 -6 -7 -3 -15z"/>
<path d="M14430 1965 c0 -8 4 -15 10 -15 5 0 7 7 4 15 -4 8 -8 15 -10 15 -2 0
-4 -7 -4 -15z"/>
<path d="M10030 1958 c-21 -9 -22 -12 -7 -15 23 -6 47 3 47 17 0 12 -8 12 -40
-2z"/>
<path d="M9590 1948 c0 -25 18 -68 30 -68 17 0 11 36 -10 61 -16 19 -19 21
-20 7z"/>
<path d="M14740 1939 c0 -5 5 -7 10 -4 6 3 10 8 10 11 0 2 -4 4 -10 4 -5 0
-10 -5 -10 -11z"/>
<path d="M10982 1928 c-18 -18 -15 -24 16 -22 44 2 45 3 32 19 -15 18 -32 19
-48 3z"/>
<path d="M15290 1930 c0 -11 54 -50 69 -50 8 0 7 6 -1 20 -13 21 -68 45 -68
30z"/>
<path d="M15880 1930 c0 -5 5 -10 10 -10 6 0 10 5 10 10 0 6 -4 10 -10 10 -5
0 -10 -4 -10 -10z"/>
<path d="M14812 1890 c0 -14 2 -19 5 -12 2 6 2 18 0 25 -3 6 -5 1 -5 -13z"/>
<path d="M14834 1885 c10 -41 26 -56 26 -23 0 14 -7 32 -17 39 -15 13 -16 11
-9 -16z"/>
<path d="M15070 1884 c0 -14 -4 -33 -10 -43 -7 -14 -3 -26 15 -52 14 -18 25
-40 25 -50 0 -9 6 -22 14 -28 23 -19 56 59 45 107 -5 20 -9 40 -9 44 0 7 -63
48 -74 48 -3 0 -6 -12 -6 -26z"/>
<path d="M14901 1881 c-7 -5 -11 -16 -9 -26 3 -16 5 -15 21 3 19 21 11 37 -12
23z"/>
<path d="M15790 1831 c0 -12 29 -23 41 -15 18 10 9 24 -16 24 -14 0 -25 -4
-25 -9z"/>
<path d="M15887 1824 c-15 -8 -27 -21 -27 -29 0 -26 12 -44 26 -38 10 4 14 -2
14 -20 0 -14 -7 -27 -15 -31 -8 -3 -15 -14 -15 -24 0 -10 -5 -23 -12 -30 -9
-9 -9 -12 0 -12 7 0 20 9 29 20 10 11 23 20 31 20 10 0 12 18 10 76 -2 42 -5
77 -8 79 -3 2 -17 -3 -33 -11z"/>
<path d="M14930 1811 c-15 -29 -12 -40 9 -34 13 3 20 -2 24 -18 5 -19 8 -20
22 -9 14 12 14 15 -5 35 -11 12 -20 27 -20 33 0 19 -18 14 -30 -7z"/>
<path d="M14435 1760 c3 -5 11 -10 16 -10 6 0 7 5 4 10 -3 6 -11 10 -16 10 -6
0 -7 -4 -4 -10z"/>
<path d="M14767 1746 c-9 -7 -17 -23 -17 -34 0 -17 6 -21 25 -20 20 2 25 8 25
30 0 33 -10 40 -33 24z"/>
<path d="M15407 1743 c-12 -11 -8 -40 7 -52 18 -15 46 -4 46 18 0 30 -35 52
-53 34z"/>
<path d="M15750 1735 c0 -8 5 -15 10 -15 6 0 10 7 10 15 0 8 -4 15 -10 15 -5
0 -10 -7 -10 -15z"/>
<path d="M15808 1723 c7 -3 16 -2 19 1 4 3 -2 6 -13 5 -11 0 -14 -3 -6 -6z"/>
<path d="M15646 1698 c8 -29 10 -31 23 -23 20 12 13 45 -10 45 -16 0 -19 -4
-13 -22z"/>
<path d="M15850 1710 c0 -5 5 -10 10 -10 6 0 10 5 10 10 0 6 -4 10 -10 10 -5
0 -10 -4 -10 -10z"/>
<path d="M14915 1700 c3 -5 8 -10 11 -10 2 0 4 5 4 10 0 6 -5 10 -11 10 -5 0
-7 -4 -4 -10z"/>
<path d="M15566 1685 c4 -8 -1 -17 -10 -21 -38 -15 5 -47 47 -36 l26 7 -25 33
c-26 33 -48 43 -38 17z"/>
<path d="M15788 1679 c-3 -8 -5 -17 -4 -21 0 -4 -8 -13 -18 -21 -25 -18 -15
-32 23 -35 28 -2 31 1 31 26 0 34 -24 72 -32 51z"/>
<path d="M14727 1666 c-8 -19 8 -56 23 -56 14 0 12 33 -3 54 -13 18 -14 18
-20 2z"/>
<path d="M14649 1665 c-3 -6 -4 -30 -4 -55 0 -34 4 -45 18 -48 13 -3 17 3 17
25 -1 33 -24 92 -31 78z"/>
<path d="M14984 1656 c-8 -21 -1 -49 14 -54 8 -2 12 7 12 27 0 33 -17 51 -26
27z"/>
<path d="M15420 1656 c0 -8 4 -17 9 -20 10 -7 23 19 14 28 -11 11 -23 6 -23
-8z"/>
<path d="M14822 1640 c0 -14 2 -19 5 -12 2 6 2 18 0 25 -3 6 -5 1 -5 -13z"/>
<path d="M15270 1623 c-8 -2 -21 -7 -29 -9 -11 -4 -10 -8 4 -24 27 -29 45 -25
45 10 0 17 -1 30 -2 29 -2 0 -10 -3 -18 -6z"/>
<path d="M15486 1615 c-9 -23 -8 -25 9 -25 17 0 19 9 6 28 -7 11 -10 10 -15
-3z"/>
<path d="M15327 1607 c-9 -23 8 -40 22 -23 13 15 7 36 -9 36 -4 0 -10 -6 -13
-13z"/>
<path d="M15171 1587 c-8 -11 -5 -16 14 -25 28 -13 43 1 25 23 -15 19 -24 19
-39 2z"/>
<path d="M14725 1577 c-5 -11 -3 -23 5 -30 10 -9 14 -9 17 1 3 6 10 12 16 12
7 0 -1 -11 -16 -25 -32 -30 -32 -33 -11 -57 14 -14 14 -20 4 -33 -10 -12 -9
-16 6 -22 11 -4 24 -13 30 -21 8 -11 15 -7 38 22 15 20 34 36 43 36 10 0 13 5
8 18 -15 35 -17 52 -7 52 6 0 12 -6 15 -12 2 -7 8 -10 12 -6 4 4 5 14 2 22 -5
11 -15 14 -35 10 -21 -4 -31 -2 -35 10 -4 10 -19 16 -41 16 -19 0 -36 6 -39
13 -3 8 -7 6 -12 -6z"/>
<path d="M15370 1555 c0 -9 6 -12 15 -9 8 4 12 10 9 15 -8 14 -24 10 -24 -6z"/>
<path d="M15698 1564 c-19 -19 -5 -26 37 -21 24 4 47 3 50 -2 6 -10 -17 -20
-48 -22 -13 -1 -8 -4 13 -8 19 -4 45 -11 57 -15 18 -6 25 -1 37 23 9 16 12 32
7 35 -15 10 -146 18 -153 10z"/>
<path d="M14960 1514 c0 -14 3 -14 15 -4 8 7 15 14 15 16 0 2 -7 4 -15 4 -8 0
-15 -7 -15 -16z"/>
<path d="M15356 1521 c-4 -7 -5 -15 -2 -18 9 -9 19 4 14 18 -4 11 -6 11 -12 0z"/>
<path d="M15610 1506 c0 -9 5 -16 10 -16 6 0 10 4 10 9 0 6 -4 13 -10 16 -5 3
-10 -1 -10 -9z"/>
<path d="M15380 1492 c-20 -9 -23 -59 -4 -66 10 -4 14 2 14 19 0 13 5 27 10
30 12 7 14 25 3 24 -5 0 -15 -3 -23 -7z"/>
<path d="M15438 1489 c-13 -7 -18 -23 -18 -53 0 -39 -3 -45 -26 -50 -35 -9
-24 -31 15 -30 17 1 31 -2 31 -7 0 -18 17 -8 28 16 9 20 8 31 -9 59 -12 21
-16 37 -10 40 6 4 17 -7 26 -24 17 -33 39 -38 69 -15 26 20 13 31 -19 17 -29
-13 -40 -2 -31 34 5 20 3 24 -16 24 -13 0 -31 -5 -40 -11z"/>
<path d="M15652 1491 c4 -13 18 -16 19 -4 0 4 -5 9 -11 12 -7 2 -11 -2 -8 -8z"/>
<path d="M14925 1480 c-8 -13 4 -32 16 -25 12 8 12 35 0 35 -6 0 -13 -4 -16
-10z"/>
<path d="M15151 1414 c0 -11 3 -14 6 -6 3 7 2 16 -1 19 -3 4 -6 -2 -5 -13z"/>
<path d="M15240 1414 c0 -8 5 -12 10 -9 6 3 10 10 10 16 0 5 -4 9 -10 9 -5 0
-10 -7 -10 -16z"/>
<path d="M14827 1402 c-18 -20 -22 -48 -8 -56 12 -8 27 13 35 47 7 31 -4 35
-27 9z"/>
<path d="M14878 1394 c-17 -32 -14 -54 7 -54 15 0 26 49 15 69 -6 11 -11 8
-22 -15z"/>
<path d="M14990 1380 c0 -6 7 -10 15 -10 8 0 15 2 15 4 0 2 -7 6 -15 10 -8 3
-15 1 -15 -4z"/>
<path d="M15085 1347 c-12 -18 -29 -32 -40 -32 -32 0 -30 -32 4 -49 38 -20 41
-20 41 4 0 12 10 34 22 51 19 25 20 31 7 43 -12 12 -17 10 -34 -17z"/>
<path d="M15561 1354 c0 -11 3 -14 6 -6 3 7 2 16 -1 19 -3 4 -6 -2 -5 -13z"/>
<path d="M15800 1340 c0 -5 5 -10 10 -10 6 0 10 5 10 10 0 6 -4 10 -10 10 -5
0 -10 -4 -10 -10z"/>
<path d="M15482 1308 c-17 -17 -15 -32 6 -51 14 -13 20 -13 35 -3 9 7 17 18
17 25 0 6 5 11 10 11 6 0 5 6 -2 14 -9 9 -19 11 -30 5 -10 -5 -18 -5 -20 1 -2
7 -8 6 -16 -2z"/>
<path d="M15138 1304 c-10 -10 -10 -51 0 -57 4 -3 19 -3 33 0 20 4 25 9 22 24
-4 13 -11 18 -23 14 -12 -4 -20 0 -22 10 -2 9 -6 13 -10 9z"/>
<path d="M15254 1285 c-16 -12 -17 -17 -6 -34 6 -12 12 -29 12 -40 0 -17 26
-49 34 -40 8 10 24 94 20 101 -13 20 -42 27 -60 13z"/>
<path d="M15415 1290 c3 -5 8 -10 11 -10 2 0 4 5 4 10 0 6 -5 10 -11 10 -5 0
-7 -4 -4 -10z"/>
<path d="M13360 1270 c0 -5 7 -10 15 -10 8 0 24 -5 34 -12 10 -6 26 -8 36 -4
14 5 15 9 5 21 -14 17 -90 21 -90 5z"/>
<path d="M15570 1251 c0 -5 9 -16 20 -26 19 -18 20 -17 20 2 0 12 -8 23 -20
26 -11 3 -20 2 -20 -2z"/>
<path d="M12733 1192 c-21 -23 -28 -38 -20 -41 6 -2 15 -9 19 -15 15 -23 43 9
46 53 2 22 0 41 -5 41 -4 0 -23 -17 -40 -38z"/>
<path d="M15137 1204 c-8 -8 1 -24 14 -24 5 0 9 7 9 15 0 15 -12 20 -23 9z"/>
<path d="M15515 1200 c-3 -5 -1 -10 4 -10 6 0 11 5 11 10 0 6 -2 10 -4 10 -3
0 -8 -4 -11 -10z"/>
<path d="M15071 1186 c-11 -13 -11 -20 -3 -28 15 -15 24 -5 20 23 -3 21 -4 21
-17 5z"/>
<path d="M15185 1168 c-23 -13 -35 -28 -35 -44 0 -8 11 -8 38 1 24 9 37 19 37
31 0 22 -14 26 -40 12z"/>
<path d="M15587 1166 c-3 -7 -20 -16 -37 -20 -33 -6 -35 -15 -14 -69 4 -12 -3
-11 -36 5 -22 11 -44 18 -47 14 -12 -12 34 -61 56 -60 14 0 21 -5 21 -19 0
-17 5 -18 38 -12 65 12 79 40 40 82 -17 18 -19 26 -10 35 14 14 16 58 3 58 -5
0 -11 -6 -14 -14z"/>
<path d="M12806 1161 c-7 -10 22 -37 30 -28 9 8 -3 37 -15 37 -5 0 -12 -4 -15
-9z"/>
<path d="M12899 1151 c8 -6 9 -10 2 -12 -6 -2 2 -26 22 -59 31 -53 32 -54 35
-26 2 16 -1 33 -7 39 -6 6 -11 15 -11 21 0 5 9 0 20 -12 24 -25 40 -28 40 -8
0 26 -35 54 -75 60 -24 3 -34 2 -26 -3z"/>
<path d="M12995 1150 c3 -5 10 -10 16 -10 5 0 9 5 9 10 0 6 -7 10 -16 10 -8 0
-12 -4 -9 -10z"/>
<path d="M15005 1150 c3 -5 8 -10 11 -10 2 0 4 5 4 10 0 6 -5 10 -11 10 -5 0
-7 -4 -4 -10z"/>
<path d="M15355 1150 c3 -5 8 -10 11 -10 2 0 4 5 4 10 0 6 -5 10 -11 10 -5 0
-7 -4 -4 -10z"/>
<path d="M15040 1128 c0 -18 18 -34 28 -24 3 4 -2 14 -11 23 -16 16 -17 16
-17 1z"/>
<path d="M12806 1111 c-4 -5 5 -23 19 -39 25 -30 34 -59 15 -47 -15 9 -12 -10
8 -44 21 -38 53 -38 62 -1 4 17 8 21 14 12 10 -17 56 -15 56 2 0 8 -4 18 -10
21 -5 3 -10 1 -10 -4 0 -6 -4 -11 -10 -11 -5 0 -10 6 -10 13 0 21 -69 87 -90
87 -11 0 -20 5 -20 10 0 13 -17 13 -24 1z"/>
<path d="M15320 1105 c0 -9 5 -15 11 -13 6 2 11 8 11 13 0 5 -5 11 -11 13 -6
2 -11 -4 -11 -13z"/>
<path d="M15412 1109 c2 -7 10 -15 17 -17 8 -3 12 1 9 9 -2 7 -10 15 -17 17
-8 3 -12 -1 -9 -9z"/>
<path d="M15249 1083 c-9 -10 -6 -13 15 -13 15 0 26 6 26 13 0 8 -7 14 -15 14
-8 0 -20 -6 -26 -14z"/>
<path d="M15380 1055 c0 -23 2 -25 21 -15 23 13 21 33 -4 38 -12 3 -17 -4 -17
-23z"/>
<path d="M12730 1054 c-11 -13 -9 -19 13 -41 23 -24 27 -25 33 -9 7 19 -10 66
-25 66 -5 0 -14 -7 -21 -16z"/>
<path d="M13022 1035 c1 -16 9 -30 16 -33 18 -6 15 33 -4 49 -14 11 -15 9 -12
-16z"/>
<path d="M15220 1041 c0 -25 16 -43 56 -61 53 -25 51 -25 64 1 9 17 8 23 -7
34 -15 11 -21 11 -34 -1 -15 -14 -18 -13 -30 4 -16 20 -49 36 -49 23z"/>
<path d="M15419 1018 c-10 -18 -8 -24 12 -39 31 -24 36 -23 50 3 10 18 8 24
-12 39 -31 24 -36 23 -50 -3z"/>
<path d="M15400 965 c0 -9 9 -15 21 -15 18 0 19 2 9 15 -7 8 -16 15 -21 15 -5
0 -9 -7 -9 -15z"/>
<path d="M10163 723 c-11 -22 -10 -29 4 -45 20 -23 25 -23 40 2 9 13 10 27 3
45 -12 32 -32 32 -47 -2z"/>
<path d="M10615 599 c-10 -30 16 -53 49 -45 35 9 33 32 -4 51 -37 19 -37 19
-45 -6z"/>
<path d="M11698 563 c7 -3 16 -2 19 1 4 3 -2 6 -13 5 -11 0 -14 -3 -6 -6z"/>
<path d="M11367 483 c-16 -15 -6 -33 18 -33 18 0 25 5 25 20 0 20 -28 28 -43
13z"/>
<path d="M11066 421 c-9 -14 4 -41 20 -41 15 0 17 10 8 34 -7 18 -20 21 -28 7z"/>
</g>
</svg>
