<svg width="390" height="844" viewBox="0 0 390 844" fill="none" xmlns="http://www.w3.org/2000/svg">
<rect width="390" height="844" fill="#F1F5F9"/>
<rect x="24.5" y="101.5" width="341" height="80" rx="3.5" fill="white" stroke="#DCE1E7"/>
<rect x="38" y="124" width="310" height="34" rx="4" fill="#F7C549"/>
<path d="M132.272 145.24C132.064 145.24 131.88 145.168 131.72 145.024C131.56 144.88 131.48 144.688 131.48 144.448C131.48 144.368 131.496 144.264 131.528 144.136L134.528 136C134.64 135.728 134.808 135.52 135.032 135.376C135.256 135.232 135.496 135.16 135.752 135.16C136.008 135.16 136.248 135.232 136.472 135.376C136.712 135.52 136.888 135.728 137 136L140.192 144.136C140.224 144.264 140.24 144.368 140.24 144.448C140.24 144.688 140.16 144.88 140 145.024C139.84 145.168 139.656 145.24 139.448 145.24C139.304 145.24 139.152 145.2 138.992 145.12C138.848 145.056 138.736 144.944 138.656 144.784L137.864 142.672C137.848 142.576 137.784 142.528 137.672 142.528H134C133.888 142.528 133.816 142.576 133.784 142.672L133.064 144.784C132.984 144.944 132.864 145.056 132.704 145.12C132.56 145.2 132.416 145.24 132.272 145.24ZM134.72 141.088H136.88C136.976 141.088 137.048 141.056 137.096 140.992C137.16 140.912 137.176 140.816 137.144 140.704L135.992 137.416C135.944 137.256 135.872 137.176 135.776 137.176C135.664 137.176 135.584 137.256 135.536 137.416L134.456 140.728C134.424 140.824 134.432 140.912 134.48 140.992C134.544 141.056 134.624 141.088 134.72 141.088ZM141.135 148.48C140.815 148.48 140.535 148.44 140.295 148.36C139.943 148.232 139.767 147.992 139.767 147.64C139.767 147.352 139.871 147.144 140.079 147.016C140.271 146.888 140.455 146.856 140.631 146.92C140.711 146.936 140.783 146.944 140.847 146.944C140.911 146.96 140.975 146.968 141.039 146.968C141.311 146.968 141.527 146.88 141.687 146.704C141.847 146.528 141.927 146.24 141.927 145.84V138.664C141.927 138.424 142.015 138.24 142.191 138.112C142.367 137.984 142.543 137.92 142.719 137.92C142.927 137.92 143.111 137.992 143.271 138.136C143.447 138.264 143.535 138.44 143.535 138.664V145.888C143.535 146.72 143.295 147.36 142.815 147.808C142.351 148.256 141.791 148.48 141.135 148.48ZM142.791 136.6C142.487 136.6 142.223 136.504 141.999 136.312C141.791 136.104 141.687 135.856 141.687 135.568C141.687 135.296 141.791 135.064 141.999 134.872C142.223 134.664 142.487 134.56 142.791 134.56C143.079 134.56 143.327 134.664 143.535 134.872C143.743 135.064 143.847 135.296 143.847 135.568C143.847 135.856 143.743 136.104 143.535 136.312C143.327 136.504 143.079 136.6 142.791 136.6ZM148.77 145.24C148.066 145.24 147.426 145.08 146.85 144.76C146.29 144.44 145.85 144 145.53 143.44C145.21 142.864 145.05 142.224 145.05 141.52C145.05 140.832 145.21 140.216 145.53 139.672C145.85 139.128 146.29 138.704 146.85 138.4C147.426 138.08 148.066 137.92 148.77 137.92C149.474 137.92 150.106 138.08 150.666 138.4C151.226 138.704 151.666 139.128 151.986 139.672C152.322 140.216 152.49 140.832 152.49 141.52C152.49 142.224 152.322 142.864 151.986 143.44C151.666 144 151.226 144.44 150.666 144.76C150.106 145.08 149.474 145.24 148.77 145.24ZM148.77 143.752C149.394 143.752 149.898 143.552 150.282 143.152C150.666 142.736 150.858 142.192 150.858 141.52C150.858 140.88 150.666 140.368 150.282 139.984C149.898 139.6 149.394 139.408 148.77 139.408C148.13 139.408 147.618 139.6 147.234 139.984C146.866 140.368 146.682 140.88 146.682 141.52C146.682 142.192 146.866 142.736 147.234 143.152C147.618 143.552 148.13 143.752 148.77 143.752ZM158.889 138.712C158.889 138.488 158.961 138.304 159.105 138.16C159.265 138 159.465 137.92 159.705 137.92C159.929 137.92 160.121 138 160.281 138.16C160.441 138.304 160.521 138.488 160.521 138.712V142.096C160.521 142.816 160.361 143.408 160.041 143.872C159.721 144.336 159.305 144.68 158.793 144.904C158.281 145.128 157.737 145.24 157.161 145.24C156.585 145.24 156.041 145.128 155.529 144.904C155.017 144.68 154.601 144.336 154.281 143.872C153.961 143.408 153.801 142.816 153.801 142.096V138.712C153.801 138.488 153.873 138.304 154.017 138.16C154.177 138 154.377 137.92 154.617 137.92C154.841 137.92 155.033 138 155.193 138.16C155.353 138.304 155.433 138.488 155.433 138.712V142.096C155.433 142.688 155.609 143.112 155.961 143.368C156.313 143.624 156.713 143.752 157.161 143.752C157.625 143.752 158.025 143.624 158.361 143.368C158.713 143.112 158.889 142.688 158.889 142.096V138.712ZM165.024 145.24C164.4 145.24 163.888 145.048 163.488 144.664C163.088 144.28 162.888 143.704 162.888 142.936V139.888C162.888 139.728 162.808 139.648 162.648 139.648H162.216C162.008 139.648 161.832 139.584 161.688 139.456C161.544 139.312 161.472 139.136 161.472 138.928C161.472 138.704 161.544 138.52 161.688 138.376C161.832 138.232 162.008 138.16 162.216 138.16H162.648C162.808 138.16 162.888 138.08 162.888 137.92V135.904C162.888 135.68 162.96 135.504 163.104 135.376C163.264 135.232 163.456 135.16 163.68 135.16C163.92 135.16 164.112 135.232 164.256 135.376C164.416 135.504 164.496 135.68 164.496 135.904V137.92C164.496 138.08 164.576 138.16 164.736 138.16H166.032C166.224 138.16 166.392 138.232 166.536 138.376C166.68 138.52 166.752 138.704 166.752 138.928C166.752 139.136 166.68 139.312 166.536 139.456C166.408 139.584 166.232 139.648 166.008 139.648H164.736C164.576 139.648 164.496 139.728 164.496 139.888V142.72C164.496 143.392 164.768 143.728 165.312 143.728C165.472 143.728 165.64 143.704 165.816 143.656C165.992 143.608 166.112 143.584 166.176 143.584C166.4 143.584 166.568 143.656 166.68 143.8C166.808 143.944 166.872 144.112 166.872 144.304C166.872 144.448 166.832 144.592 166.752 144.736C166.672 144.864 166.544 144.96 166.368 145.024C166.192 145.088 165.968 145.136 165.696 145.168C165.44 145.216 165.216 145.24 165.024 145.24ZM171.413 145.24C170.213 145.24 169.277 144.896 168.605 144.208C167.933 143.52 167.597 142.592 167.597 141.424C167.597 140.4 167.933 139.56 168.605 138.904C169.293 138.248 170.173 137.92 171.245 137.92C172.285 137.92 173.117 138.224 173.741 138.832C174.365 139.424 174.677 140.16 174.677 141.04C174.677 141.392 174.581 141.656 174.389 141.832C174.213 142.008 173.981 142.096 173.693 142.096H169.517C169.357 142.096 169.301 142.184 169.349 142.36C169.477 142.808 169.733 143.16 170.117 143.416C170.517 143.656 170.965 143.776 171.461 143.776C171.829 143.776 172.181 143.728 172.517 143.632C172.869 143.536 173.173 143.392 173.429 143.2C173.509 143.136 173.613 143.104 173.741 143.104C173.917 143.104 174.077 143.184 174.221 143.344C174.365 143.488 174.437 143.664 174.437 143.872C174.437 143.968 174.421 144.064 174.389 144.16C174.357 144.256 174.285 144.352 174.173 144.448C173.757 144.752 173.309 144.96 172.829 145.072C172.365 145.184 171.893 145.24 171.413 145.24ZM172.805 140.848C172.901 140.848 172.949 140.8 172.949 140.704C172.949 140.336 172.781 140.016 172.445 139.744C172.125 139.472 171.725 139.336 171.245 139.336C170.829 139.336 170.429 139.448 170.045 139.672C169.677 139.896 169.453 140.192 169.373 140.56C169.373 140.56 169.373 140.568 169.373 140.584C169.357 140.648 169.349 140.704 169.349 140.752C169.365 140.8 169.437 140.824 169.565 140.824L172.805 140.848ZM177.748 141.448V144.496C177.748 144.736 177.66 144.92 177.484 145.048C177.324 145.176 177.14 145.24 176.932 145.24C176.724 145.24 176.532 145.176 176.356 145.048C176.196 144.92 176.116 144.736 176.116 144.496V138.856C176.116 138.584 176.196 138.384 176.356 138.256C176.532 138.112 176.724 138.04 176.932 138.04C177.14 138.04 177.324 138.112 177.484 138.256C177.66 138.384 177.748 138.584 177.748 138.856V138.952C177.972 138.648 178.26 138.4 178.612 138.208C178.98 138.016 179.364 137.92 179.764 137.92C179.956 137.92 180.148 137.944 180.34 137.992C180.532 138.04 180.676 138.136 180.772 138.28C180.868 138.424 180.916 138.584 180.916 138.76C180.916 138.968 180.844 139.16 180.7 139.336C180.572 139.496 180.38 139.576 180.124 139.576C180.012 139.576 179.892 139.56 179.764 139.528C179.652 139.496 179.508 139.48 179.332 139.48C178.868 139.48 178.484 139.656 178.18 140.008C177.892 140.36 177.748 140.84 177.748 141.448ZM191.772 138.712C191.772 138.488 191.844 138.304 191.988 138.16C192.148 138 192.348 137.92 192.588 137.92C192.812 137.92 193.004 138 193.164 138.16C193.324 138.304 193.404 138.488 193.404 138.712V142.096C193.404 142.816 193.244 143.408 192.924 143.872C192.604 144.336 192.188 144.68 191.676 144.904C191.164 145.128 190.62 145.24 190.044 145.24C189.468 145.24 188.924 145.128 188.412 144.904C187.9 144.68 187.484 144.336 187.164 143.872C186.844 143.408 186.684 142.816 186.684 142.096V138.712C186.684 138.488 186.756 138.304 186.9 138.16C187.06 138 187.26 137.92 187.5 137.92C187.724 137.92 187.916 138 188.076 138.16C188.236 138.304 188.316 138.488 188.316 138.712V142.096C188.316 142.688 188.492 143.112 188.844 143.368C189.196 143.624 189.596 143.752 190.044 143.752C190.508 143.752 190.908 143.624 191.244 143.368C191.596 143.112 191.772 142.688 191.772 142.096V138.712ZM201.218 145.24C201.01 145.24 200.818 145.176 200.642 145.048C200.482 144.92 200.402 144.736 200.402 144.496V141.472C200.402 140.768 200.242 140.248 199.922 139.912C199.618 139.576 199.21 139.408 198.698 139.408C198.042 139.408 197.562 139.624 197.258 140.056C196.97 140.472 196.826 140.936 196.826 141.448V144.496C196.826 144.736 196.738 144.92 196.562 145.048C196.402 145.176 196.218 145.24 196.01 145.24C195.802 145.24 195.61 145.176 195.434 145.048C195.274 144.92 195.194 144.736 195.194 144.496V138.856C195.194 138.584 195.274 138.384 195.434 138.256C195.61 138.112 195.802 138.04 196.01 138.04C196.218 138.04 196.402 138.112 196.562 138.256C196.738 138.384 196.826 138.584 196.826 138.856C197.098 138.584 197.45 138.36 197.882 138.184C198.314 138.008 198.722 137.92 199.106 137.92C200.002 137.92 200.714 138.208 201.242 138.784C201.77 139.36 202.034 140.208 202.034 141.328V144.496C202.034 144.736 201.946 144.92 201.77 145.048C201.594 145.176 201.41 145.24 201.218 145.24ZM207.179 145.24C205.979 145.24 205.043 144.896 204.371 144.208C203.699 143.52 203.363 142.592 203.363 141.424C203.363 140.4 203.699 139.56 204.371 138.904C205.059 138.248 205.939 137.92 207.011 137.92C208.051 137.92 208.883 138.224 209.507 138.832C210.131 139.424 210.443 140.16 210.443 141.04C210.443 141.392 210.347 141.656 210.155 141.832C209.979 142.008 209.747 142.096 209.459 142.096H205.283C205.123 142.096 205.067 142.184 205.115 142.36C205.243 142.808 205.499 143.16 205.883 143.416C206.283 143.656 206.731 143.776 207.227 143.776C207.595 143.776 207.947 143.728 208.283 143.632C208.635 143.536 208.939 143.392 209.195 143.2C209.275 143.136 209.379 143.104 209.507 143.104C209.683 143.104 209.843 143.184 209.987 143.344C210.131 143.488 210.203 143.664 210.203 143.872C210.203 143.968 210.187 144.064 210.155 144.16C210.123 144.256 210.051 144.352 209.939 144.448C209.523 144.752 209.075 144.96 208.595 145.072C208.131 145.184 207.659 145.24 207.179 145.24ZM208.571 140.848C208.667 140.848 208.715 140.8 208.715 140.704C208.715 140.336 208.547 140.016 208.211 139.744C207.891 139.472 207.491 139.336 207.011 139.336C206.595 139.336 206.195 139.448 205.811 139.672C205.443 139.896 205.219 140.192 205.139 140.56C205.139 140.56 205.139 140.568 205.139 140.584C205.123 140.648 205.115 140.704 205.115 140.752C205.131 140.8 205.203 140.824 205.331 140.824L208.571 140.848ZM220.431 145.24C219.983 145.24 219.583 145.16 219.231 145C218.879 144.856 218.575 144.656 218.319 144.4V147.736C218.319 147.976 218.231 148.16 218.055 148.288C217.895 148.416 217.711 148.48 217.503 148.48C217.295 148.48 217.103 148.416 216.927 148.288C216.767 148.16 216.687 147.976 216.687 147.736V138.856C216.687 138.584 216.767 138.384 216.927 138.256C217.103 138.112 217.295 138.04 217.503 138.04C217.695 138.04 217.871 138.104 218.031 138.232C218.191 138.344 218.287 138.512 218.319 138.736C218.575 138.496 218.879 138.304 219.231 138.16C219.583 138 219.983 137.92 220.431 137.92C221.135 137.92 221.751 138.08 222.279 138.4C222.823 138.704 223.247 139.128 223.551 139.672C223.855 140.216 224.007 140.832 224.007 141.52C224.007 142.224 223.855 142.864 223.551 143.44C223.247 144 222.823 144.44 222.279 144.76C221.751 145.08 221.135 145.24 220.431 145.24ZM220.287 143.752C220.911 143.752 221.415 143.552 221.799 143.152C222.183 142.736 222.375 142.192 222.375 141.52C222.375 140.88 222.183 140.368 221.799 139.984C221.415 139.6 220.911 139.408 220.287 139.408C219.679 139.408 219.199 139.6 218.847 139.984C218.495 140.368 218.319 140.88 218.319 141.52C218.319 142.192 218.495 142.736 218.847 143.152C219.199 143.552 219.679 143.752 220.287 143.752ZM226.268 145.24C226.06 145.24 225.868 145.176 225.692 145.048C225.532 144.92 225.452 144.736 225.452 144.496V135.376C225.452 135.104 225.532 134.904 225.692 134.776C225.868 134.632 226.06 134.56 226.268 134.56C226.476 134.56 226.66 134.632 226.82 134.776C226.996 134.904 227.084 135.104 227.084 135.376V138.808C227.34 138.536 227.676 138.32 228.092 138.16C228.524 138 228.924 137.92 229.292 137.92C230.124 137.92 230.828 138.208 231.404 138.784C231.996 139.36 232.292 140.208 232.292 141.328V144.496C232.292 144.736 232.204 144.92 232.028 145.048C231.852 145.176 231.668 145.24 231.476 145.24C231.268 145.24 231.076 145.176 230.9 145.048C230.74 144.92 230.66 144.736 230.66 144.496V141.472C230.66 140.768 230.5 140.248 230.18 139.912C229.876 139.576 229.468 139.408 228.956 139.408C228.268 139.408 227.78 139.624 227.492 140.056C227.22 140.472 227.084 140.936 227.084 141.448V144.496C227.084 144.736 226.996 144.92 226.82 145.048C226.66 145.176 226.476 145.24 226.268 145.24ZM237.341 145.24C236.637 145.24 235.997 145.08 235.421 144.76C234.861 144.44 234.421 144 234.101 143.44C233.781 142.864 233.621 142.224 233.621 141.52C233.621 140.832 233.781 140.216 234.101 139.672C234.421 139.128 234.861 138.704 235.421 138.4C235.997 138.08 236.637 137.92 237.341 137.92C238.045 137.92 238.677 138.08 239.237 138.4C239.797 138.704 240.237 139.128 240.557 139.672C240.893 140.216 241.061 140.832 241.061 141.52C241.061 142.224 240.893 142.864 240.557 143.44C240.237 144 239.797 144.44 239.237 144.76C238.677 145.08 238.045 145.24 237.341 145.24ZM237.341 143.752C237.965 143.752 238.469 143.552 238.853 143.152C239.237 142.736 239.429 142.192 239.429 141.52C239.429 140.88 239.237 140.368 238.853 139.984C238.469 139.6 237.965 139.408 237.341 139.408C236.701 139.408 236.189 139.6 235.805 139.984C235.437 140.368 235.253 140.88 235.253 141.52C235.253 142.192 235.437 142.736 235.805 143.152C236.189 143.552 236.701 143.752 237.341 143.752ZM245.203 145.24C244.579 145.24 244.067 145.048 243.667 144.664C243.267 144.28 243.067 143.704 243.067 142.936V139.888C243.067 139.728 242.987 139.648 242.827 139.648H242.395C242.187 139.648 242.011 139.584 241.867 139.456C241.723 139.312 241.651 139.136 241.651 138.928C241.651 138.704 241.723 138.52 241.867 138.376C242.011 138.232 242.187 138.16 242.395 138.16H242.827C242.987 138.16 243.067 138.08 243.067 137.92V135.904C243.067 135.68 243.139 135.504 243.283 135.376C243.443 135.232 243.635 135.16 243.859 135.16C244.099 135.16 244.291 135.232 244.435 135.376C244.595 135.504 244.675 135.68 244.675 135.904V137.92C244.675 138.08 244.755 138.16 244.915 138.16H246.211C246.403 138.16 246.571 138.232 246.715 138.376C246.859 138.52 246.931 138.704 246.931 138.928C246.931 139.136 246.859 139.312 246.715 139.456C246.587 139.584 246.411 139.648 246.187 139.648H244.915C244.755 139.648 244.675 139.728 244.675 139.888V142.72C244.675 143.392 244.947 143.728 245.491 143.728C245.651 143.728 245.819 143.704 245.995 143.656C246.171 143.608 246.291 143.584 246.355 143.584C246.579 143.584 246.747 143.656 246.859 143.8C246.987 143.944 247.051 144.112 247.051 144.304C247.051 144.448 247.011 144.592 246.931 144.736C246.851 144.864 246.723 144.96 246.547 145.024C246.371 145.088 246.147 145.136 245.875 145.168C245.619 145.216 245.395 145.24 245.203 145.24ZM251.497 145.24C250.793 145.24 250.153 145.08 249.577 144.76C249.017 144.44 248.577 144 248.257 143.44C247.937 142.864 247.777 142.224 247.777 141.52C247.777 140.832 247.937 140.216 248.257 139.672C248.577 139.128 249.017 138.704 249.577 138.4C250.153 138.08 250.793 137.92 251.497 137.92C252.201 137.92 252.833 138.08 253.393 138.4C253.953 138.704 254.393 139.128 254.713 139.672C255.049 140.216 255.217 140.832 255.217 141.52C255.217 142.224 255.049 142.864 254.713 143.44C254.393 144 253.953 144.44 253.393 144.76C252.833 145.08 252.201 145.24 251.497 145.24ZM251.497 143.752C252.121 143.752 252.625 143.552 253.009 143.152C253.393 142.736 253.585 142.192 253.585 141.52C253.585 140.88 253.393 140.368 253.009 139.984C252.625 139.6 252.121 139.408 251.497 139.408C250.857 139.408 250.345 139.6 249.961 139.984C249.593 140.368 249.409 140.88 249.409 141.52C249.409 142.192 249.593 142.736 249.961 143.152C250.345 143.552 250.857 143.752 251.497 143.752Z" fill="white"/>
<rect y="766" width="390" height="78" fill="white"/>
<path d="M127.42 798.134L119.71 790.387C119.617 790.294 119.507 790.221 119.385 790.171C119.263 790.121 119.132 790.096 119 790.096C118.868 790.096 118.737 790.121 118.616 790.171C118.494 790.221 118.383 790.294 118.29 790.387L110.58 798.144C110.394 798.329 110.246 798.549 110.147 798.79C110.047 799.031 109.997 799.29 110 799.55V807.789C109.999 808.293 110.195 808.777 110.546 809.143C110.898 809.509 111.379 809.728 111.89 809.756H126.11C126.621 809.728 127.102 809.509 127.454 809.143C127.805 808.777 128.001 808.293 128 807.789V799.55C128.001 799.022 127.793 798.514 127.42 798.134ZM117 807.789V801.89H121V807.789H117ZM126 807.789H123V800.907C123 800.646 122.895 800.396 122.707 800.212C122.52 800.027 122.265 799.924 122 799.924H116C115.735 799.924 115.481 800.027 115.293 800.212C115.105 800.396 115 800.646 115 800.907V807.789H112V799.511L119 792.481L126 799.55V807.789Z" fill="#AFAFAF"/>
<path d="M347 800.907C347.791 800.907 348.564 800.676 349.222 800.244C349.88 799.812 350.393 799.198 350.696 798.479C350.998 797.76 351.077 796.97 350.923 796.207C350.769 795.444 350.388 794.743 349.828 794.193C349.269 793.643 348.556 793.268 347.78 793.117C347.004 792.965 346.2 793.043 345.469 793.34C344.738 793.638 344.114 794.142 343.674 794.789C343.235 795.436 343 796.196 343 796.974C343 798.017 343.421 799.017 344.172 799.755C344.922 800.492 345.939 800.907 347 800.907ZM347 795.007C347.396 795.007 347.782 795.123 348.111 795.339C348.44 795.555 348.696 795.862 348.848 796.221C348.999 796.581 349.039 796.976 348.962 797.358C348.884 797.739 348.694 798.089 348.414 798.364C348.135 798.639 347.778 798.827 347.39 798.903C347.002 798.978 346.6 798.939 346.235 798.791C345.869 798.642 345.557 798.39 345.337 798.066C345.117 797.743 345 797.363 345 796.974C345 796.452 345.211 795.952 345.586 795.583C345.961 795.215 346.47 795.007 347 795.007Z" fill="#AFAFAF"/>
<path d="M347 802.873C345.143 802.873 343.363 803.598 342.05 804.889C340.737 806.18 340 807.93 340 809.756C340 810.016 340.105 810.266 340.293 810.451C340.48 810.635 340.735 810.739 341 810.739C341.265 810.739 341.52 810.635 341.707 810.451C341.895 810.266 342 810.016 342 809.756C342 808.452 342.527 807.201 343.464 806.279C344.402 805.357 345.674 804.839 347 804.839C348.326 804.839 349.598 805.357 350.536 806.279C351.473 807.201 352 808.452 352 809.756C352 810.016 352.105 810.266 352.293 810.451C352.48 810.635 352.735 810.739 353 810.739C353.265 810.739 353.52 810.635 353.707 810.451C353.895 810.266 354 810.016 354 809.756C354 807.93 353.263 806.18 351.95 804.889C350.637 803.598 348.857 802.873 347 802.873Z" fill="#AFAFAF"/>
<path d="M270 790.092C268.022 790.092 266.089 790.668 264.444 791.749C262.8 792.829 261.518 794.365 260.761 796.161C260.004 797.958 259.806 799.935 260.192 801.842C260.578 803.749 261.53 805.501 262.929 806.876C264.327 808.251 266.109 809.188 268.049 809.567C269.989 809.947 272 809.752 273.827 809.008C275.654 808.264 277.216 807.003 278.315 805.386C279.414 803.77 280 801.869 280 799.924C280 798.633 279.741 797.354 279.239 796.161C278.736 794.968 278 793.885 277.071 792.972C276.142 792.059 275.04 791.334 273.827 790.84C272.614 790.346 271.313 790.092 270 790.092ZM270 807.79C268.418 807.79 266.871 807.328 265.555 806.464C264.24 805.6 263.214 804.371 262.609 802.934C262.003 801.497 261.845 799.915 262.154 798.389C262.462 796.864 263.224 795.462 264.343 794.362C265.462 793.262 266.887 792.513 268.439 792.209C269.991 791.906 271.6 792.062 273.061 792.657C274.523 793.252 275.773 794.26 276.652 795.554C277.531 796.848 278 798.368 278 799.924C278 802.01 277.157 804.011 275.657 805.486C274.157 806.961 272.122 807.79 270 807.79Z" fill="#AFAFAF"/>
<path d="M270 796.974C270.552 796.974 271 796.534 271 795.991C271 795.448 270.552 795.008 270 795.008C269.448 795.008 269 795.448 269 795.991C269 796.534 269.448 796.974 270 796.974Z" fill="#AFAFAF"/>
<path d="M270 797.957C269.735 797.957 269.48 798.061 269.293 798.245C269.105 798.429 269 798.679 269 798.94V803.856C269 804.117 269.105 804.367 269.293 804.552C269.48 804.736 269.735 804.84 270 804.84C270.265 804.84 270.52 804.736 270.707 804.552C270.895 804.367 271 804.117 271 803.856V798.94C271 798.679 270.895 798.429 270.707 798.245C270.52 798.061 270.265 797.957 270 797.957Z" fill="#AFAFAF"/>
<path d="M41.0002 799.644C37.8983 799.644 33.5003 804.493 33.5003 807.554C33.5003 808.933 34.5475 809.756 36.3026 809.756C38.2104 809.756 39.4701 808.766 41.0002 808.766C42.5435 808.766 43.8068 809.756 45.6978 809.756C47.4529 809.756 48.5001 808.933 48.5001 807.554C48.5001 804.493 44.1021 799.644 41.0002 799.644ZM35.2471 799.145C34.8409 797.777 33.5893 796.89 32.4518 797.165C31.3144 797.44 30.7218 798.773 31.128 800.141C31.5343 801.51 32.7858 802.397 33.9233 802.122C35.0608 801.847 35.6534 800.514 35.2471 799.145ZM38.5565 798.325C39.7651 798.003 40.3697 796.352 39.9072 794.636C39.4447 792.921 38.0901 791.792 36.8815 792.113C35.6729 792.435 35.0682 794.086 35.5307 795.801C35.9932 797.517 37.3483 798.646 38.5565 798.325ZM49.5482 797.165C48.4107 796.891 47.1595 797.777 46.7529 799.146C46.3466 800.515 46.9392 801.847 48.0767 802.122C49.2142 802.397 50.4653 801.51 50.872 800.142C51.2782 798.773 50.6856 797.44 49.5482 797.165ZM43.4439 798.325C44.6525 798.646 46.0072 797.517 46.4697 795.801C46.9322 794.086 46.3275 792.435 45.1189 792.113C43.9103 791.791 42.5556 792.921 42.0932 794.636C41.6307 796.352 42.2353 798.003 43.4439 798.325Z" fill="#AFAFAF"/>
<circle cx="195" cy="770" r="28" fill="#9BCF9B"/>
<path d="M194.73 757.668L195 757.645C195.736 757.645 196.349 758.166 196.476 758.854L196.5 759.119V767.968H205.5C206.236 767.968 206.849 768.49 206.976 769.178L207 769.443C207 770.167 206.469 770.769 205.77 770.894L205.5 770.918H196.5V779.767C196.5 780.491 195.969 781.093 195.27 781.218L195 781.242C194.264 781.242 193.651 780.72 193.524 780.032L193.5 779.767V770.918H184.5C183.764 770.918 183.151 770.396 183.024 769.708L183 769.443C183 768.719 183.531 768.117 184.23 767.992L184.5 767.968H193.5V759.119C193.5 758.395 194.031 757.793 194.73 757.668L195 757.645L194.73 757.668Z" fill="white"/>
<path d="M108.422 36.35C108.048 36.35 107.687 36.21 107.337 35.93C107.01 35.65 106.847 35.2883 106.847 34.845C106.847 34.6583 106.882 34.46 106.952 34.25L111.362 22.735C111.525 22.315 111.793 22 112.167 21.79C112.54 21.58 112.925 21.475 113.322 21.475C113.742 21.475 114.138 21.58 114.512 21.79C114.908 22 115.188 22.315 115.352 22.735L120.077 34.18C120.123 34.2733 120.147 34.3667 120.147 34.46C120.147 34.5533 120.147 34.6467 120.147 34.74C120.147 35.23 119.983 35.615 119.657 35.895C119.33 36.175 118.968 36.315 118.572 36.315C118.292 36.315 118.012 36.2333 117.732 36.07C117.475 35.93 117.288 35.6967 117.172 35.37L116.157 32.64C116.133 32.5 116.04 32.43 115.877 32.43H111.152C110.988 32.43 110.883 32.5 110.837 32.64L109.857 35.405C109.693 35.7083 109.483 35.9417 109.227 36.105C108.97 36.2683 108.702 36.35 108.422 36.35ZM112.412 29.7H114.477C114.617 29.7 114.722 29.6533 114.792 29.56C114.885 29.4433 114.908 29.3033 114.862 29.14L113.952 26.655C113.812 26.2817 113.637 26.095 113.427 26.095C113.217 26.095 113.042 26.2933 112.902 26.69L112.027 29.175C111.98 29.315 111.992 29.4433 112.062 29.56C112.132 29.6533 112.248 29.7 112.412 29.7ZM121.622 41.075C121.342 41.075 121.097 41.0517 120.887 41.005C120.677 40.9583 120.479 40.9117 120.292 40.865C119.942 40.7483 119.686 40.5617 119.522 40.305C119.359 40.0483 119.277 39.78 119.277 39.5C119.277 39.08 119.429 38.7067 119.732 38.38C120.036 38.0533 120.444 37.9483 120.957 38.065C121.144 38.1117 121.307 38.135 121.447 38.135C122.031 38.135 122.322 37.715 122.322 36.875V26.865C122.322 26.4917 122.462 26.1767 122.742 25.92C123.046 25.64 123.431 25.5 123.897 25.5C124.364 25.5 124.726 25.64 124.982 25.92C125.262 26.1767 125.402 26.5033 125.402 26.9V36.945C125.402 38.1583 125.052 39.15 124.352 39.92C123.676 40.69 122.766 41.075 121.622 41.075ZM123.862 23.925C123.372 23.925 122.952 23.7733 122.602 23.47C122.252 23.1433 122.077 22.735 122.077 22.245C122.077 21.8017 122.252 21.4167 122.602 21.09C122.952 20.7633 123.372 20.6 123.862 20.6C124.329 20.6 124.726 20.7633 125.052 21.09C125.402 21.4167 125.577 21.8017 125.577 22.245C125.577 22.735 125.402 23.1433 125.052 23.47C124.726 23.7733 124.329 23.925 123.862 23.925ZM133.025 36.35C132.022 36.35 131.1 36.1167 130.26 35.65C129.42 35.1833 128.744 34.5417 128.23 33.725C127.74 32.885 127.495 31.94 127.495 30.89C127.495 29.8167 127.74 28.8833 128.23 28.09C128.744 27.2733 129.42 26.6433 130.26 26.2C131.1 25.7333 132.022 25.5 133.025 25.5C134.052 25.5 134.974 25.7333 135.79 26.2C136.63 26.6433 137.295 27.2733 137.785 28.09C138.275 28.8833 138.52 29.8167 138.52 30.89C138.52 31.94 138.275 32.885 137.785 33.725C137.295 34.5417 136.63 35.1833 135.79 35.65C134.974 36.1167 134.052 36.35 133.025 36.35ZM133.025 33.515C133.749 33.515 134.332 33.27 134.775 32.78C135.242 32.2667 135.475 31.6367 135.475 30.89C135.475 30.12 135.242 29.5017 134.775 29.035C134.332 28.5683 133.749 28.335 133.025 28.335C132.325 28.335 131.73 28.5683 131.24 29.035C130.774 29.5017 130.54 30.12 130.54 30.89C130.54 31.6367 130.774 32.2667 131.24 32.78C131.73 33.27 132.325 33.515 133.025 33.515ZM147.532 27.005C147.532 26.5617 147.672 26.2 147.952 25.92C148.255 25.64 148.628 25.5 149.072 25.5C149.515 25.5 149.877 25.6517 150.157 25.955C150.46 26.235 150.612 26.585 150.612 27.005V31.94C150.612 32.8967 150.367 33.7133 149.877 34.39C149.387 35.0433 148.757 35.5333 147.987 35.86C147.217 36.1867 146.4 36.35 145.537 36.35C144.697 36.35 143.892 36.1867 143.122 35.86C142.352 35.5333 141.71 35.0433 141.197 34.39C140.707 33.7133 140.462 32.8967 140.462 31.94V27.005C140.462 26.5617 140.602 26.2 140.882 25.92C141.185 25.64 141.558 25.5 142.002 25.5C142.445 25.5 142.807 25.6517 143.087 25.955C143.39 26.235 143.542 26.585 143.542 27.005V31.8C143.542 32.29 143.728 32.6983 144.102 33.025C144.475 33.3517 144.953 33.515 145.537 33.515C146.12 33.515 146.598 33.3517 146.972 33.025C147.345 32.6983 147.532 32.29 147.532 31.8V27.005ZM157.624 36.35C156.621 36.35 155.792 36.0583 155.139 35.475C154.486 34.8917 154.159 33.9933 154.159 32.78V29C154.159 28.7667 154.042 28.65 153.809 28.65H153.284C152.864 28.65 152.549 28.5217 152.339 28.265C152.129 28.0083 152.024 27.6817 152.024 27.285C152.024 26.865 152.129 26.5267 152.339 26.27C152.549 25.99 152.864 25.85 153.284 25.85H153.809C154.042 25.85 154.159 25.7333 154.159 25.5V22.91C154.159 22.5133 154.299 22.175 154.579 21.895C154.859 21.615 155.221 21.475 155.664 21.475C156.107 21.475 156.469 21.615 156.749 21.895C157.052 22.1517 157.204 22.49 157.204 22.91V25.5C157.204 25.7333 157.321 25.85 157.554 25.85H158.849C159.246 25.85 159.572 25.99 159.829 26.27C160.109 26.55 160.249 26.8883 160.249 27.285C160.249 27.6817 160.109 28.0083 159.829 28.265C159.572 28.5217 159.234 28.65 158.814 28.65H157.554C157.321 28.65 157.204 28.7667 157.204 29V32.29C157.204 32.71 157.274 33.0017 157.414 33.165C157.577 33.3283 157.776 33.41 158.009 33.41C158.102 33.41 158.289 33.3867 158.569 33.34C158.849 33.27 159.024 33.235 159.094 33.235C159.467 33.235 159.782 33.375 160.039 33.655C160.296 33.935 160.424 34.2733 160.424 34.67C160.424 34.9733 160.331 35.2533 160.144 35.51C159.981 35.7667 159.712 35.9533 159.339 36.07C159.036 36.1633 158.744 36.2333 158.464 36.28C158.184 36.3267 157.904 36.35 157.624 36.35ZM167.105 36.35C165.518 36.35 164.177 35.8833 163.08 34.95C162.007 33.9933 161.47 32.6867 161.47 31.03C161.47 29.3033 161.995 27.95 163.045 26.97C164.118 25.99 165.46 25.5 167.07 25.5C168.213 25.5 169.158 25.71 169.905 26.13C170.652 26.55 171.212 27.0867 171.585 27.74C171.958 28.3933 172.145 29.0817 172.145 29.805C172.145 31.0183 171.608 31.625 170.535 31.625H164.725C164.538 31.625 164.445 31.7417 164.445 31.975C164.445 32.5117 164.737 32.9433 165.32 33.27C165.927 33.5733 166.603 33.725 167.35 33.725C167.817 33.725 168.283 33.6667 168.75 33.55C169.217 33.41 169.625 33.2117 169.975 32.955C170.208 32.7917 170.453 32.71 170.71 32.71C171.06 32.71 171.352 32.8383 171.585 33.095C171.842 33.3517 171.97 33.655 171.97 34.005C171.97 34.425 171.748 34.8217 171.305 35.195C170.885 35.545 170.267 35.825 169.45 36.035C168.657 36.245 167.875 36.35 167.105 36.35ZM168.925 29.595C168.972 29.595 169.03 29.5833 169.1 29.56C169.193 29.5367 169.24 29.455 169.24 29.315C169.24 28.965 169.018 28.65 168.575 28.37C168.155 28.0667 167.607 27.915 166.93 27.915C166.207 27.915 165.612 28.0783 165.145 28.405C164.702 28.7083 164.48 29.0233 164.48 29.35C164.48 29.5133 164.573 29.595 164.76 29.595H168.925ZM175.81 36.245C175.367 36.245 174.994 36.1167 174.69 35.86C174.387 35.6033 174.235 35.2767 174.235 34.88V27.04C174.235 26.6667 174.375 26.3517 174.655 26.095C174.959 25.815 175.344 25.675 175.81 25.675C176.23 25.675 176.569 25.8033 176.825 26.06C177.105 26.2933 177.269 26.585 177.315 26.935C177.572 26.5383 177.922 26.2 178.365 25.92C178.809 25.64 179.275 25.5 179.765 25.5C180.069 25.5 180.36 25.535 180.64 25.605C180.967 25.6983 181.235 25.885 181.445 26.165C181.655 26.4217 181.76 26.725 181.76 27.075C181.76 27.565 181.597 27.9733 181.27 28.3C180.967 28.6033 180.605 28.7083 180.185 28.615C179.882 28.545 179.579 28.51 179.275 28.51C178.739 28.51 178.295 28.6967 177.945 29.07C177.595 29.4433 177.385 30.2017 177.315 31.345V34.845C177.315 35.2417 177.164 35.58 176.86 35.86C176.58 36.1167 176.23 36.245 175.81 36.245ZM197.229 27.005C197.229 26.5617 197.369 26.2 197.649 25.92C197.952 25.64 198.326 25.5 198.769 25.5C199.212 25.5 199.574 25.6517 199.854 25.955C200.157 26.235 200.309 26.585 200.309 27.005V31.94C200.309 32.8967 200.064 33.7133 199.574 34.39C199.084 35.0433 198.454 35.5333 197.684 35.86C196.914 36.1867 196.097 36.35 195.234 36.35C194.394 36.35 193.589 36.1867 192.819 35.86C192.049 35.5333 191.407 35.0433 190.894 34.39C190.404 33.7133 190.159 32.8967 190.159 31.94V27.005C190.159 26.5617 190.299 26.2 190.579 25.92C190.882 25.64 191.256 25.5 191.699 25.5C192.142 25.5 192.504 25.6517 192.784 25.955C193.087 26.235 193.239 26.585 193.239 27.005V31.8C193.239 32.29 193.426 32.6983 193.799 33.025C194.172 33.3517 194.651 33.515 195.234 33.515C195.817 33.515 196.296 33.3517 196.669 33.025C197.042 32.6983 197.229 32.29 197.229 31.8V27.005ZM211.731 36.35C211.288 36.35 210.915 36.2217 210.611 35.965C210.331 35.7083 210.191 35.3817 210.191 34.985V30.715C210.191 29.8517 209.993 29.2333 209.596 28.86C209.223 28.4867 208.756 28.3 208.196 28.3C207.613 28.3 207.123 28.4867 206.726 28.86C206.353 29.2333 206.12 29.665 206.026 30.155V34.845C206.026 35.2417 205.875 35.58 205.571 35.86C205.291 36.1167 204.941 36.245 204.521 36.245C204.078 36.245 203.705 36.1167 203.401 35.86C203.098 35.6033 202.946 35.2767 202.946 34.88V27.04C202.946 26.6667 203.086 26.3517 203.366 26.095C203.67 25.815 204.055 25.675 204.521 25.675C204.895 25.675 205.21 25.78 205.466 25.99C205.723 26.1767 205.898 26.4217 205.991 26.725C206.621 25.9083 207.578 25.5 208.861 25.5C210.168 25.5 211.23 25.885 212.046 26.655C212.863 27.425 213.271 28.65 213.271 30.33V35.055C213.271 35.4283 213.12 35.7433 212.816 36C212.536 36.2333 212.175 36.35 211.731 36.35ZM227.457 36.35C225.894 36.35 224.622 35.86 223.642 34.88C222.686 33.8767 222.207 32.5467 222.207 30.89C222.207 29.2333 222.674 27.9267 223.607 26.97C224.564 25.99 225.812 25.5 227.352 25.5C228.449 25.5 229.406 25.885 230.222 26.655C230.316 26.375 230.491 26.1417 230.747 25.955C231.004 25.7683 231.307 25.675 231.657 25.675C232.124 25.675 232.497 25.815 232.777 26.095C233.081 26.3517 233.232 26.6667 233.232 27.04V34.985C233.232 35.3817 233.081 35.7083 232.777 35.965C232.497 36.2217 232.124 36.35 231.657 36.35C230.887 36.35 230.409 36.0117 230.222 35.335C229.476 36.0117 228.554 36.35 227.457 36.35ZM227.702 33.515C228.449 33.515 229.044 33.27 229.487 32.78C229.931 32.2667 230.152 31.6367 230.152 30.89C230.152 30.12 229.931 29.5017 229.487 29.035C229.044 28.5683 228.449 28.335 227.702 28.335C226.979 28.335 226.384 28.5683 225.917 29.035C225.474 29.5017 225.252 30.12 225.252 30.89C225.252 31.6367 225.474 32.2667 225.917 32.78C226.384 33.27 226.979 33.515 227.702 33.515ZM244.646 36.35C244.203 36.35 243.83 36.2217 243.526 35.965C243.246 35.7083 243.106 35.3817 243.106 34.985V30.715C243.106 29.8517 242.908 29.2333 242.511 28.86C242.138 28.4867 241.671 28.3 241.111 28.3C240.528 28.3 240.038 28.4867 239.641 28.86C239.268 29.2333 239.035 29.665 238.941 30.155V34.845C238.941 35.2417 238.79 35.58 238.486 35.86C238.206 36.1167 237.856 36.245 237.436 36.245C236.993 36.245 236.62 36.1167 236.316 35.86C236.013 35.6033 235.861 35.2767 235.861 34.88V27.04C235.861 26.6667 236.001 26.3517 236.281 26.095C236.585 25.815 236.97 25.675 237.436 25.675C237.81 25.675 238.125 25.78 238.381 25.99C238.638 26.1767 238.813 26.4217 238.906 26.725C239.536 25.9083 240.493 25.5 241.776 25.5C243.083 25.5 244.145 25.885 244.961 26.655C245.778 27.425 246.186 28.65 246.186 30.33V35.055C246.186 35.4283 246.035 35.7433 245.731 36C245.451 36.2333 245.09 36.35 244.646 36.35ZM250.426 36.35C249.982 36.35 249.609 36.2217 249.306 35.965C249.002 35.7083 248.851 35.3817 248.851 34.985V27.04C248.851 26.6667 248.991 26.3517 249.271 26.095C249.574 25.815 249.959 25.675 250.426 25.675C250.892 25.675 251.254 25.815 251.511 26.095C251.791 26.3517 251.931 26.6783 251.931 27.075V34.95C251.931 35.3467 251.779 35.685 251.476 35.965C251.196 36.2217 250.846 36.35 250.426 36.35ZM250.426 23.925C249.936 23.925 249.516 23.7733 249.166 23.47C248.816 23.1433 248.641 22.735 248.641 22.245C248.641 21.8017 248.816 21.4167 249.166 21.09C249.516 20.7633 249.936 20.6 250.426 20.6C250.892 20.6 251.289 20.7633 251.616 21.09C251.966 21.4167 252.141 21.8017 252.141 22.245C252.141 22.735 251.966 23.1433 251.616 23.47C251.289 23.7733 250.892 23.925 250.426 23.925ZM256.338 36.35C255.894 36.35 255.521 36.2217 255.218 35.965C254.914 35.7083 254.763 35.3817 254.763 34.985V27.04C254.763 26.6667 254.903 26.3517 255.183 26.095C255.486 25.815 255.871 25.675 256.338 25.675C256.874 25.675 257.283 25.8617 257.563 26.235C257.679 26.375 257.749 26.515 257.773 26.655C258.053 26.305 258.426 26.025 258.893 25.815C259.359 25.605 259.884 25.5 260.468 25.5C262.054 25.5 263.198 26.025 263.898 27.075C264.318 26.5617 264.831 26.1767 265.438 25.92C266.044 25.64 266.674 25.5 267.328 25.5C268.634 25.5 269.661 25.885 270.408 26.655C271.178 27.425 271.563 28.65 271.563 30.33V35.055C271.563 35.4283 271.411 35.7433 271.108 36C270.828 36.2333 270.466 36.35 270.023 36.35C269.579 36.35 269.206 36.2217 268.903 35.965C268.623 35.7083 268.483 35.3817 268.483 34.985V30.715C268.483 29.8517 268.331 29.2333 268.028 28.86C267.724 28.4867 267.293 28.3 266.733 28.3C266.173 28.3 265.718 28.475 265.368 28.825C265.041 29.1517 264.819 29.5483 264.703 30.015V35.055C264.703 35.4283 264.551 35.7433 264.248 36C263.968 36.2333 263.606 36.35 263.163 36.35C262.719 36.35 262.346 36.2217 262.043 35.965C261.763 35.7083 261.623 35.3817 261.623 34.985V30.715C261.623 29.8517 261.471 29.2333 261.168 28.86C260.864 28.4867 260.433 28.3 259.873 28.3C259.336 28.3 258.893 28.475 258.543 28.825C258.193 29.1517 257.959 29.5367 257.843 29.98V34.95C257.843 35.3467 257.691 35.685 257.388 35.965C257.108 36.2217 256.758 36.35 256.338 36.35ZM278.727 36.35C277.164 36.35 275.892 35.86 274.912 34.88C273.955 33.8767 273.477 32.5467 273.477 30.89C273.477 29.2333 273.944 27.9267 274.877 26.97C275.834 25.99 277.082 25.5 278.622 25.5C279.719 25.5 280.675 25.885 281.492 26.655C281.585 26.375 281.76 26.1417 282.017 25.955C282.274 25.7683 282.577 25.675 282.927 25.675C283.394 25.675 283.767 25.815 284.047 26.095C284.35 26.3517 284.502 26.6667 284.502 27.04V34.985C284.502 35.3817 284.35 35.7083 284.047 35.965C283.767 36.2217 283.394 36.35 282.927 36.35C282.157 36.35 281.679 36.0117 281.492 35.335C280.745 36.0117 279.824 36.35 278.727 36.35ZM278.972 33.515C279.719 33.515 280.314 33.27 280.757 32.78C281.2 32.2667 281.422 31.6367 281.422 30.89C281.422 30.12 281.2 29.5017 280.757 29.035C280.314 28.5683 279.719 28.335 278.972 28.335C278.249 28.335 277.654 28.5683 277.187 29.035C276.744 29.5017 276.522 30.12 276.522 30.89C276.522 31.6367 276.744 32.2667 277.187 32.78C277.654 33.27 278.249 33.515 278.972 33.515ZM288.741 36.35C288.298 36.35 287.924 36.2217 287.621 35.965C287.318 35.7083 287.166 35.3817 287.166 34.985V21.965C287.166 21.5917 287.306 21.2767 287.586 21.02C287.889 20.74 288.274 20.6 288.741 20.6C289.184 20.6 289.546 20.74 289.826 21.02C290.106 21.2767 290.246 21.6033 290.246 22V34.95C290.246 35.3467 290.094 35.685 289.791 35.965C289.511 36.2217 289.161 36.35 288.741 36.35Z" fill="black"/>
<path d="M56.0311 92.18C55.8151 92.18 55.6231 92.108 55.4551 91.964C55.2991 91.808 55.2211 91.628 55.2211 91.424V85.88C55.2211 85.532 55.3291 85.25 55.5451 85.034C55.7611 84.818 56.0431 84.71 56.3911 84.71H58.2091C58.9291 84.71 59.5231 84.914 59.9911 85.322C60.4711 85.73 60.7111 86.27 60.7111 86.942C60.7111 87.674 60.4771 88.268 60.0091 88.724C59.5411 89.18 58.9471 89.408 58.2271 89.408H57.1651C56.9251 89.408 56.8051 89.528 56.8051 89.768L56.8411 91.424C56.8411 91.628 56.7571 91.808 56.5891 91.964C56.4331 92.108 56.2471 92.18 56.0311 92.18ZM57.0751 87.968H58.0291C58.7731 87.968 59.1451 87.662 59.1451 87.05C59.1451 86.45 58.7971 86.15 58.1011 86.15H57.0751C56.8951 86.15 56.8051 86.24 56.8051 86.42V87.698C56.8051 87.878 56.8951 87.968 57.0751 87.968ZM62.6032 92.126C62.3752 92.126 62.1832 92.06 62.0272 91.928C61.8712 91.796 61.7932 91.628 61.7932 91.424V87.392C61.7932 87.2 61.8652 87.038 62.0092 86.906C62.1652 86.762 62.3632 86.69 62.6032 86.69C62.8192 86.69 62.9932 86.756 63.1252 86.888C63.2692 87.008 63.3532 87.158 63.3772 87.338C63.5092 87.134 63.6892 86.96 63.9172 86.816C64.1452 86.672 64.3852 86.6 64.6372 86.6C64.7932 86.6 64.9432 86.618 65.0872 86.654C65.2552 86.702 65.3932 86.798 65.5012 86.942C65.6092 87.074 65.6632 87.23 65.6632 87.41C65.6632 87.662 65.5792 87.872 65.4112 88.04C65.2552 88.196 65.0692 88.25 64.8532 88.202C64.6972 88.166 64.5412 88.148 64.3852 88.148C64.1092 88.148 63.8812 88.244 63.7012 88.436C63.5212 88.628 63.4132 89.018 63.3772 89.606V91.406C63.3772 91.61 63.2992 91.784 63.1432 91.928C62.9992 92.06 62.8192 92.126 62.6032 92.126ZM68.7772 92.18C68.2612 92.18 67.7872 92.06 67.3552 91.82C66.9232 91.58 66.5752 91.25 66.3112 90.83C66.0592 90.398 65.9332 89.912 65.9332 89.372C65.9332 88.82 66.0592 88.34 66.3112 87.932C66.5752 87.512 66.9232 87.188 67.3552 86.96C67.7872 86.72 68.2612 86.6 68.7772 86.6C69.3052 86.6 69.7792 86.72 70.1992 86.96C70.6312 87.188 70.9732 87.512 71.2252 87.932C71.4772 88.34 71.6032 88.82 71.6032 89.372C71.6032 89.912 71.4772 90.398 71.2252 90.83C70.9732 91.25 70.6312 91.58 70.1992 91.82C69.7792 92.06 69.3052 92.18 68.7772 92.18ZM68.7772 90.722C69.1492 90.722 69.4492 90.596 69.6772 90.344C69.9172 90.08 70.0372 89.756 70.0372 89.372C70.0372 88.976 69.9172 88.658 69.6772 88.418C69.4492 88.178 69.1492 88.058 68.7772 88.058C68.4172 88.058 68.1112 88.178 67.8592 88.418C67.6192 88.658 67.4992 88.976 67.4992 89.372C67.4992 89.756 67.6192 90.08 67.8592 90.344C68.1112 90.596 68.4172 90.722 68.7772 90.722ZM73.9157 92.18C73.6877 92.18 73.5017 92.114 73.3577 91.982C73.2137 91.838 73.1417 91.652 73.1417 91.424V88.4C73.1417 88.28 73.0817 88.22 72.9617 88.22H72.7097C72.4937 88.22 72.3317 88.154 72.2237 88.022C72.1157 87.89 72.0617 87.722 72.0617 87.518C72.0617 87.302 72.1157 87.128 72.2237 86.996C72.3317 86.852 72.4937 86.78 72.7097 86.78H72.9617C73.0817 86.78 73.1417 86.72 73.1417 86.6V86.222C73.1417 85.562 73.3157 85.058 73.6637 84.71C74.0237 84.35 74.4917 84.17 75.0677 84.17C75.1997 84.17 75.3437 84.182 75.4997 84.206C75.6677 84.218 75.7997 84.242 75.8957 84.278C76.0637 84.338 76.1837 84.434 76.2557 84.566C76.3397 84.698 76.3817 84.836 76.3817 84.98C76.3817 85.172 76.3217 85.352 76.2017 85.52C76.0817 85.676 75.9137 85.754 75.6977 85.754C75.6017 85.754 75.5117 85.742 75.4277 85.718C75.3437 85.694 75.2537 85.682 75.1577 85.682C74.8697 85.682 74.7257 85.886 74.7257 86.294V86.6C74.7257 86.72 74.7857 86.78 74.9057 86.78H75.5717C75.7757 86.78 75.9437 86.852 76.0757 86.996C76.2197 87.14 76.2917 87.314 76.2917 87.518C76.2917 87.722 76.2197 87.89 76.0757 88.022C75.9437 88.154 75.7697 88.22 75.5537 88.22H74.9057C74.7857 88.22 74.7257 88.28 74.7257 88.4V91.424C74.7257 91.64 74.6477 91.82 74.4917 91.964C74.3477 92.108 74.1557 92.18 73.9157 92.18ZM78.0197 92.18C77.7917 92.18 77.5997 92.114 77.4437 91.982C77.2877 91.85 77.2097 91.682 77.2097 91.478V87.392C77.2097 87.2 77.2817 87.038 77.4257 86.906C77.5817 86.762 77.7797 86.69 78.0197 86.69C78.2597 86.69 78.4457 86.762 78.5777 86.906C78.7217 87.038 78.7937 87.206 78.7937 87.41V91.46C78.7937 91.664 78.7157 91.838 78.5597 91.982C78.4157 92.114 78.2357 92.18 78.0197 92.18ZM78.0197 85.79C77.7677 85.79 77.5517 85.712 77.3717 85.556C77.1917 85.388 77.1017 85.178 77.1017 84.926C77.1017 84.698 77.1917 84.5 77.3717 84.332C77.5517 84.164 77.7677 84.08 78.0197 84.08C78.2597 84.08 78.4637 84.164 78.6317 84.332C78.8117 84.5 78.9017 84.698 78.9017 84.926C78.9017 85.178 78.8117 85.388 78.6317 85.556C78.4637 85.712 78.2597 85.79 78.0197 85.79ZM81.0783 92.18C80.8503 92.18 80.6583 92.114 80.5023 91.982C80.3463 91.85 80.2683 91.682 80.2683 91.478V84.782C80.2683 84.59 80.3403 84.428 80.4843 84.296C80.6403 84.152 80.8383 84.08 81.0783 84.08C81.3063 84.08 81.4923 84.152 81.6363 84.296C81.7803 84.428 81.8523 84.596 81.8523 84.8V91.46C81.8523 91.664 81.7743 91.838 81.6183 91.982C81.4743 92.114 81.2943 92.18 81.0783 92.18Z" fill="#55BCBE"/>
<path d="M175.246 92.18C174.694 92.18 174.178 92.09 173.698 91.91C173.218 91.718 172.84 91.466 172.564 91.154C172.432 91.01 172.366 90.842 172.366 90.65C172.366 90.446 172.444 90.266 172.6 90.11C172.756 89.954 172.942 89.876 173.158 89.876C173.362 89.876 173.536 89.948 173.68 90.092C173.884 90.284 174.142 90.434 174.454 90.542C174.766 90.65 175.072 90.704 175.372 90.704C175.684 90.704 175.954 90.638 176.182 90.506C176.41 90.362 176.524 90.14 176.524 89.84C176.524 89.588 176.416 89.396 176.2 89.264C175.996 89.12 175.648 89.006 175.156 88.922C174.28 88.778 173.62 88.538 173.176 88.202C172.732 87.854 172.51 87.368 172.51 86.744C172.51 86.072 172.768 85.538 173.284 85.142C173.8 84.734 174.478 84.53 175.318 84.53C176.182 84.53 176.872 84.752 177.388 85.196C177.592 85.364 177.694 85.562 177.694 85.79C177.694 85.982 177.616 86.15 177.46 86.294C177.316 86.426 177.142 86.492 176.938 86.492C176.782 86.492 176.638 86.45 176.506 86.366C176.05 86.078 175.57 85.934 175.066 85.934C174.766 85.934 174.514 85.994 174.31 86.114C174.106 86.234 174.004 86.414 174.004 86.654C174.004 86.906 174.16 87.104 174.472 87.248C174.796 87.392 175.264 87.524 175.876 87.644C176.212 87.704 176.542 87.812 176.866 87.968C177.202 88.112 177.478 88.334 177.694 88.634C177.922 88.934 178.036 89.342 178.036 89.858C178.036 90.542 177.772 91.1 177.244 91.532C176.728 91.964 176.062 92.18 175.246 92.18ZM180.04 92.18C179.812 92.18 179.62 92.114 179.464 91.982C179.308 91.85 179.23 91.682 179.23 91.478V87.392C179.23 87.2 179.302 87.038 179.446 86.906C179.602 86.762 179.8 86.69 180.04 86.69C180.28 86.69 180.466 86.762 180.598 86.906C180.742 87.038 180.814 87.206 180.814 87.41V91.46C180.814 91.664 180.736 91.838 180.58 91.982C180.436 92.114 180.256 92.18 180.04 92.18ZM180.04 85.79C179.788 85.79 179.572 85.712 179.392 85.556C179.212 85.388 179.122 85.178 179.122 84.926C179.122 84.698 179.212 84.5 179.392 84.332C179.572 84.164 179.788 84.08 180.04 84.08C180.28 84.08 180.484 84.164 180.652 84.332C180.832 84.5 180.922 84.698 180.922 84.926C180.922 85.178 180.832 85.388 180.652 85.556C180.484 85.712 180.28 85.79 180.04 85.79ZM184.521 92.18C184.005 92.18 183.579 92.03 183.243 91.73C182.907 91.43 182.739 90.968 182.739 90.344V88.4C182.739 88.28 182.679 88.22 182.559 88.22H182.289C182.073 88.22 181.911 88.154 181.803 88.022C181.695 87.89 181.641 87.722 181.641 87.518C181.641 87.302 181.695 87.128 181.803 86.996C181.911 86.852 182.073 86.78 182.289 86.78H182.559C182.679 86.78 182.739 86.72 182.739 86.6V85.268C182.739 85.064 182.811 84.89 182.955 84.746C183.099 84.602 183.285 84.53 183.513 84.53C183.741 84.53 183.927 84.602 184.071 84.746C184.227 84.878 184.305 85.052 184.305 85.268V86.6C184.305 86.72 184.365 86.78 184.485 86.78H185.151C185.355 86.78 185.523 86.852 185.655 86.996C185.799 87.14 185.871 87.314 185.871 87.518C185.871 87.722 185.799 87.89 185.655 88.022C185.523 88.154 185.349 88.22 185.133 88.22H184.485C184.365 88.22 184.305 88.28 184.305 88.4V90.092C184.305 90.308 184.341 90.458 184.413 90.542C184.497 90.626 184.599 90.668 184.719 90.668C184.767 90.668 184.863 90.656 185.007 90.632C185.151 90.596 185.241 90.578 185.277 90.578C185.469 90.578 185.631 90.65 185.763 90.794C185.895 90.938 185.961 91.112 185.961 91.316C185.961 91.472 185.913 91.616 185.817 91.748C185.733 91.88 185.595 91.976 185.403 92.036C185.247 92.084 185.097 92.12 184.953 92.144C184.809 92.168 184.665 92.18 184.521 92.18ZM190.405 87.374C190.405 87.146 190.477 86.96 190.621 86.816C190.777 86.672 190.969 86.6 191.197 86.6C191.425 86.6 191.611 86.678 191.755 86.834C191.911 86.978 191.989 87.158 191.989 87.374V89.912C191.989 90.404 191.863 90.824 191.611 91.172C191.359 91.508 191.035 91.76 190.639 91.928C190.243 92.096 189.823 92.18 189.379 92.18C188.947 92.18 188.533 92.096 188.137 91.928C187.741 91.76 187.411 91.508 187.147 91.172C186.895 90.824 186.769 90.404 186.769 89.912V87.374C186.769 87.146 186.841 86.96 186.985 86.816C187.141 86.672 187.333 86.6 187.561 86.6C187.789 86.6 187.975 86.678 188.119 86.834C188.275 86.978 188.353 87.158 188.353 87.374V89.84C188.353 90.092 188.449 90.302 188.641 90.47C188.833 90.638 189.079 90.722 189.379 90.722C189.679 90.722 189.925 90.638 190.117 90.47C190.309 90.302 190.405 90.092 190.405 89.84V87.374ZM195.685 92.18C194.881 92.18 194.227 91.928 193.723 91.424C193.231 90.908 192.985 90.224 192.985 89.372C192.985 88.52 193.225 87.848 193.705 87.356C194.197 86.852 194.839 86.6 195.631 86.6C196.195 86.6 196.687 86.798 197.107 87.194C197.155 87.05 197.245 86.93 197.377 86.834C197.509 86.738 197.665 86.69 197.845 86.69C198.085 86.69 198.277 86.762 198.421 86.906C198.577 87.038 198.655 87.2 198.655 87.392V91.478C198.655 91.682 198.577 91.85 198.421 91.982C198.277 92.114 198.085 92.18 197.845 92.18C197.449 92.18 197.203 92.006 197.107 91.658C196.723 92.006 196.249 92.18 195.685 92.18ZM195.811 90.722C196.195 90.722 196.501 90.596 196.729 90.344C196.957 90.08 197.071 89.756 197.071 89.372C197.071 88.976 196.957 88.658 196.729 88.418C196.501 88.178 196.195 88.058 195.811 88.058C195.439 88.058 195.133 88.178 194.893 88.418C194.665 88.658 194.551 88.976 194.551 89.372C194.551 89.756 194.665 90.08 194.893 90.344C195.133 90.596 195.439 90.722 195.811 90.722ZM202.257 92.18C201.741 92.18 201.315 92.03 200.979 91.73C200.643 91.43 200.475 90.968 200.475 90.344V88.4C200.475 88.28 200.415 88.22 200.295 88.22H200.025C199.809 88.22 199.647 88.154 199.539 88.022C199.431 87.89 199.377 87.722 199.377 87.518C199.377 87.302 199.431 87.128 199.539 86.996C199.647 86.852 199.809 86.78 200.025 86.78H200.295C200.415 86.78 200.475 86.72 200.475 86.6V85.268C200.475 85.064 200.547 84.89 200.691 84.746C200.835 84.602 201.021 84.53 201.249 84.53C201.477 84.53 201.663 84.602 201.807 84.746C201.963 84.878 202.041 85.052 202.041 85.268V86.6C202.041 86.72 202.101 86.78 202.221 86.78H202.887C203.091 86.78 203.259 86.852 203.391 86.996C203.535 87.14 203.607 87.314 203.607 87.518C203.607 87.722 203.535 87.89 203.391 88.022C203.259 88.154 203.085 88.22 202.869 88.22H202.221C202.101 88.22 202.041 88.28 202.041 88.4V90.092C202.041 90.308 202.077 90.458 202.149 90.542C202.233 90.626 202.335 90.668 202.455 90.668C202.503 90.668 202.599 90.656 202.743 90.632C202.887 90.596 202.977 90.578 203.013 90.578C203.205 90.578 203.367 90.65 203.499 90.794C203.631 90.938 203.697 91.112 203.697 91.316C203.697 91.472 203.649 91.616 203.553 91.748C203.469 91.88 203.331 91.976 203.139 92.036C202.983 92.084 202.833 92.12 202.689 92.144C202.545 92.168 202.401 92.18 202.257 92.18ZM205.423 92.18C205.195 92.18 205.003 92.114 204.847 91.982C204.691 91.85 204.613 91.682 204.613 91.478V87.392C204.613 87.2 204.685 87.038 204.829 86.906C204.985 86.762 205.183 86.69 205.423 86.69C205.663 86.69 205.849 86.762 205.981 86.906C206.125 87.038 206.197 87.206 206.197 87.41V91.46C206.197 91.664 206.119 91.838 205.963 91.982C205.819 92.114 205.639 92.18 205.423 92.18ZM205.423 85.79C205.171 85.79 204.955 85.712 204.775 85.556C204.595 85.388 204.505 85.178 204.505 84.926C204.505 84.698 204.595 84.5 204.775 84.332C204.955 84.164 205.171 84.08 205.423 84.08C205.663 84.08 205.867 84.164 206.035 84.332C206.215 84.5 206.305 84.698 206.305 84.926C206.305 85.178 206.215 85.388 206.035 85.556C205.867 85.712 205.663 85.79 205.423 85.79ZM210.138 92.18C209.622 92.18 209.148 92.06 208.716 91.82C208.284 91.58 207.936 91.25 207.672 90.83C207.42 90.398 207.294 89.912 207.294 89.372C207.294 88.82 207.42 88.34 207.672 87.932C207.936 87.512 208.284 87.188 208.716 86.96C209.148 86.72 209.622 86.6 210.138 86.6C210.666 86.6 211.14 86.72 211.56 86.96C211.992 87.188 212.334 87.512 212.586 87.932C212.838 88.34 212.964 88.82 212.964 89.372C212.964 89.912 212.838 90.398 212.586 90.83C212.334 91.25 211.992 91.58 211.56 91.82C211.14 92.06 210.666 92.18 210.138 92.18ZM210.138 90.722C210.51 90.722 210.81 90.596 211.038 90.344C211.278 90.08 211.398 89.756 211.398 89.372C211.398 88.976 211.278 88.658 211.038 88.418C210.81 88.178 210.51 88.058 210.138 88.058C209.778 88.058 209.472 88.178 209.22 88.418C208.98 88.658 208.86 88.976 208.86 89.372C208.86 89.756 208.98 90.08 209.22 90.344C209.472 90.596 209.778 90.722 210.138 90.722ZM218.57 92.18C218.342 92.18 218.15 92.114 217.994 91.982C217.85 91.85 217.778 91.682 217.778 91.478V89.282C217.778 88.838 217.676 88.52 217.472 88.328C217.28 88.136 217.04 88.04 216.752 88.04C216.452 88.04 216.2 88.136 215.996 88.328C215.804 88.52 215.684 88.742 215.636 88.994V91.406C215.636 91.61 215.558 91.784 215.402 91.928C215.258 92.06 215.078 92.126 214.862 92.126C214.634 92.126 214.442 92.06 214.286 91.928C214.13 91.796 214.052 91.628 214.052 91.424V87.392C214.052 87.2 214.124 87.038 214.268 86.906C214.424 86.762 214.622 86.69 214.862 86.69C215.054 86.69 215.216 86.744 215.348 86.852C215.48 86.948 215.57 87.074 215.618 87.23C215.942 86.81 216.434 86.6 217.094 86.6C217.766 86.6 218.312 86.798 218.732 87.194C219.152 87.59 219.362 88.22 219.362 89.084V91.514C219.362 91.706 219.284 91.868 219.128 92C218.984 92.12 218.798 92.18 218.57 92.18Z" fill="#55BCBE"/>
<path d="M313.722 92.18C313.506 92.18 313.314 92.108 313.146 91.964C312.99 91.808 312.912 91.628 312.912 91.424V85.88C312.912 85.532 313.02 85.25 313.236 85.034C313.452 84.818 313.734 84.71 314.082 84.71H315.9C316.62 84.71 317.214 84.914 317.682 85.322C318.162 85.73 318.402 86.27 318.402 86.942C318.402 87.674 318.168 88.268 317.7 88.724C317.232 89.18 316.638 89.408 315.918 89.408H314.856C314.616 89.408 314.496 89.528 314.496 89.768L314.532 91.424C314.532 91.628 314.448 91.808 314.28 91.964C314.124 92.108 313.938 92.18 313.722 92.18ZM314.766 87.968H315.72C316.464 87.968 316.836 87.662 316.836 87.05C316.836 86.45 316.488 86.15 315.792 86.15H314.766C314.586 86.15 314.496 86.24 314.496 86.42V87.698C314.496 87.878 314.586 87.968 314.766 87.968ZM320.382 92.18C320.154 92.18 319.962 92.114 319.806 91.982C319.65 91.85 319.572 91.682 319.572 91.478V84.782C319.572 84.59 319.644 84.428 319.788 84.296C319.944 84.152 320.142 84.08 320.382 84.08C320.61 84.08 320.796 84.152 320.94 84.296C321.084 84.428 321.156 84.596 321.156 84.8V87.194C321.312 87.014 321.522 86.87 321.786 86.762C322.05 86.654 322.332 86.6 322.632 86.6C323.304 86.6 323.844 86.798 324.252 87.194C324.672 87.59 324.882 88.22 324.882 89.084V91.514C324.882 91.706 324.804 91.868 324.648 92C324.504 92.12 324.318 92.18 324.09 92.18C323.862 92.18 323.67 92.114 323.514 91.982C323.37 91.85 323.298 91.682 323.298 91.478V89.282C323.298 88.838 323.196 88.52 322.992 88.328C322.8 88.136 322.56 88.04 322.272 88.04C321.972 88.04 321.726 88.142 321.534 88.346C321.342 88.538 321.216 88.754 321.156 88.994V91.46C321.156 91.664 321.078 91.838 320.922 91.982C320.778 92.114 320.598 92.18 320.382 92.18ZM328.718 92.18C328.202 92.18 327.728 92.06 327.296 91.82C326.864 91.58 326.516 91.25 326.252 90.83C326 90.398 325.874 89.912 325.874 89.372C325.874 88.82 326 88.34 326.252 87.932C326.516 87.512 326.864 87.188 327.296 86.96C327.728 86.72 328.202 86.6 328.718 86.6C329.246 86.6 329.72 86.72 330.14 86.96C330.572 87.188 330.914 87.512 331.166 87.932C331.418 88.34 331.544 88.82 331.544 89.372C331.544 89.912 331.418 90.398 331.166 90.83C330.914 91.25 330.572 91.58 330.14 91.82C329.72 92.06 329.246 92.18 328.718 92.18ZM328.718 90.722C329.09 90.722 329.39 90.596 329.618 90.344C329.858 90.08 329.978 89.756 329.978 89.372C329.978 88.976 329.858 88.658 329.618 88.418C329.39 88.178 329.09 88.058 328.718 88.058C328.358 88.058 328.052 88.178 327.8 88.418C327.56 88.658 327.44 88.976 327.44 89.372C327.44 89.756 327.56 90.08 327.8 90.344C328.052 90.596 328.358 90.722 328.718 90.722ZM334.882 92.18C334.366 92.18 333.94 92.03 333.604 91.73C333.268 91.43 333.1 90.968 333.1 90.344V88.4C333.1 88.28 333.04 88.22 332.92 88.22H332.65C332.434 88.22 332.272 88.154 332.164 88.022C332.056 87.89 332.002 87.722 332.002 87.518C332.002 87.302 332.056 87.128 332.164 86.996C332.272 86.852 332.434 86.78 332.65 86.78H332.92C333.04 86.78 333.1 86.72 333.1 86.6V85.268C333.1 85.064 333.172 84.89 333.316 84.746C333.46 84.602 333.646 84.53 333.874 84.53C334.102 84.53 334.288 84.602 334.432 84.746C334.588 84.878 334.666 85.052 334.666 85.268V86.6C334.666 86.72 334.726 86.78 334.846 86.78H335.512C335.716 86.78 335.884 86.852 336.016 86.996C336.16 87.14 336.232 87.314 336.232 87.518C336.232 87.722 336.16 87.89 336.016 88.022C335.884 88.154 335.71 88.22 335.494 88.22H334.846C334.726 88.22 334.666 88.28 334.666 88.4V90.092C334.666 90.308 334.702 90.458 334.774 90.542C334.858 90.626 334.96 90.668 335.08 90.668C335.128 90.668 335.224 90.656 335.368 90.632C335.512 90.596 335.602 90.578 335.638 90.578C335.83 90.578 335.992 90.65 336.124 90.794C336.256 90.938 336.322 91.112 336.322 91.316C336.322 91.472 336.274 91.616 336.178 91.748C336.094 91.88 335.956 91.976 335.764 92.036C335.608 92.084 335.458 92.12 335.314 92.144C335.17 92.168 335.026 92.18 334.882 92.18ZM339.704 92.18C339.188 92.18 338.714 92.06 338.282 91.82C337.85 91.58 337.502 91.25 337.238 90.83C336.986 90.398 336.86 89.912 336.86 89.372C336.86 88.82 336.986 88.34 337.238 87.932C337.502 87.512 337.85 87.188 338.282 86.96C338.714 86.72 339.188 86.6 339.704 86.6C340.232 86.6 340.706 86.72 341.126 86.96C341.558 87.188 341.9 87.512 342.152 87.932C342.404 88.34 342.53 88.82 342.53 89.372C342.53 89.912 342.404 90.398 342.152 90.83C341.9 91.25 341.558 91.58 341.126 91.82C340.706 92.06 340.232 92.18 339.704 92.18ZM339.704 90.722C340.076 90.722 340.376 90.596 340.604 90.344C340.844 90.08 340.964 89.756 340.964 89.372C340.964 88.976 340.844 88.658 340.604 88.418C340.376 88.178 340.076 88.058 339.704 88.058C339.344 88.058 339.038 88.178 338.786 88.418C338.546 88.658 338.426 88.976 338.426 89.372C338.426 89.756 338.546 90.08 338.786 90.344C339.038 90.596 339.344 90.722 339.704 90.722Z" fill="#55BCBE"/>
<circle cx="67.5" cy="68.5" r="11.5" fill="#55BCBE" stroke="#55BCBE" stroke-width="2"/>
<circle cx="197.5" cy="68.5" r="11.5" fill="#55BCBE" stroke="#55BCBE" stroke-width="2"/>
<line x1="210" y1="68.5098" x2="316" y2="68.5002" stroke="#55BCBE"/>
<circle cx="328.5" cy="68.5" r="11.5" fill="#55BCBE" stroke="#55BCBE" stroke-width="2"/>
<path d="M328.43 73.24C327.63 73.224 326.934 73.072 326.342 72.784C325.75 72.496 325.318 72.088 325.046 71.56C324.95 71.368 324.902 71.2 324.902 71.056C324.902 70.752 325.03 70.512 325.286 70.336C325.542 70.16 325.806 70.072 326.078 70.072C326.254 70.072 326.414 70.104 326.558 70.168C326.702 70.232 326.806 70.344 326.87 70.504C327.158 71.128 327.702 71.44 328.502 71.44C328.918 71.44 329.262 71.312 329.534 71.056C329.822 70.784 329.966 70.448 329.966 70.048C329.966 69.12 329.318 68.68 328.022 68.728C327.734 68.744 327.502 68.672 327.326 68.512C327.15 68.336 327.062 68.112 327.062 67.84C327.062 67.568 327.142 67.352 327.302 67.192C327.478 67.032 327.694 66.952 327.95 66.952C328.526 66.952 328.926 66.872 329.15 66.712C329.39 66.552 329.51 66.272 329.51 65.872C329.51 65.552 329.406 65.32 329.198 65.176C328.99 65.016 328.75 64.936 328.478 64.936C328.222 64.936 327.974 64.992 327.734 65.104C327.494 65.216 327.302 65.376 327.158 65.584C327.046 65.744 326.918 65.856 326.774 65.92C326.63 65.968 326.478 65.992 326.318 65.992C326.046 65.992 325.798 65.912 325.574 65.752C325.366 65.576 325.262 65.352 325.262 65.08C325.262 64.968 325.286 64.856 325.334 64.744C325.59 64.232 325.998 63.84 326.558 63.568C327.134 63.296 327.766 63.16 328.454 63.16C329.398 63.16 330.158 63.408 330.734 63.904C331.31 64.384 331.598 65.024 331.598 65.824C331.598 66.576 331.302 67.208 330.71 67.72C331.126 67.928 331.462 68.248 331.718 68.68C331.974 69.096 332.102 69.536 332.102 70C332.102 70.976 331.758 71.768 331.07 72.376C330.398 72.968 329.518 73.256 328.43 73.24Z" fill="white"/>
<path d="M67.9555 73.24C67.6675 73.24 67.4115 73.136 67.1875 72.928C66.9795 72.72 66.8755 72.48 66.8755 72.208V65.848C66.8755 65.624 66.7795 65.568 66.5875 65.68L66.1555 65.92C66.0915 65.952 66.0275 65.976 65.9635 65.992C65.8995 65.992 65.8355 65.992 65.7715 65.992C65.4675 65.992 65.2195 65.896 65.0275 65.704C64.8355 65.496 64.7395 65.24 64.7395 64.936C64.7395 64.52 64.9635 64.216 65.4115 64.024L67.2595 63.28C67.4675 63.2 67.6515 63.16 67.8115 63.16C68.1795 63.16 68.4755 63.272 68.6995 63.496C68.9395 63.72 69.0595 64.016 69.0595 64.384L69.0355 72.256C69.0355 72.544 68.9315 72.784 68.7235 72.976C68.5315 73.152 68.2755 73.24 67.9555 73.24Z" fill="white"/>
<path d="M195.414 73.024C195.11 73.024 194.846 72.92 194.622 72.712C194.414 72.504 194.31 72.248 194.31 71.944C194.31 71.576 194.47 71.24 194.79 70.936L196.686 69.184C197.39 68.528 197.878 67.992 198.15 67.576C198.422 67.144 198.558 66.712 198.558 66.28C198.558 65.912 198.446 65.616 198.222 65.392C198.014 65.168 197.726 65.056 197.358 65.056C197.006 65.056 196.718 65.16 196.494 65.368C196.27 65.576 196.118 65.856 196.038 66.208C195.99 66.448 195.87 66.648 195.678 66.808C195.502 66.952 195.278 67.024 195.006 67.024C194.718 67.024 194.478 66.928 194.286 66.736C194.094 66.544 194.006 66.312 194.022 66.04C194.054 65.192 194.39 64.504 195.03 63.976C195.686 63.432 196.502 63.16 197.478 63.16C198.47 63.16 199.254 63.448 199.83 64.024C200.422 64.584 200.718 65.312 200.718 66.208C200.718 66.768 200.574 67.304 200.286 67.816C200.014 68.312 199.598 68.84 199.038 69.4L197.694 70.744C197.438 71 197.494 71.128 197.862 71.128L200.046 71.08C200.366 71.064 200.622 71.152 200.814 71.344C201.006 71.52 201.102 71.76 201.102 72.064C201.102 72.352 201.014 72.584 200.838 72.76C200.662 72.936 200.43 73.024 200.142 73.024H195.414Z" fill="white"/>
<line x1="79" y1="68.5" x2="185" y2="68.4905" stroke="#55BCBE"/>
</svg>
